<?xml version="1.0" encoding="utf-8"?>
<!-- Generator: Adobe Illustrator 23.1.0, SVG Export Plug-In . SVG Version: 6.00 Build 0)  -->
<svg version="1.1" id="Layer_1" xmlns="http://www.w3.org/2000/svg" xmlns:xlink="http://www.w3.org/1999/xlink" x="0px" y="0px"
	 viewBox="0 0 232.8 192.3" style="enable-background:new 0 0 232.8 192.3;" xml:space="preserve">
<style type="text/css">
	.st0{fill:#E4F1F7;}
	.st1{fill:url(#SVGID_1_);}
	.st2{fill:url(#SVGID_2_);}
	.st3{fill:url(#SVGID_3_);}
	.st4{fill:url(#SVGID_4_);}
	.st5{fill:url(#SVGID_5_);}
	.st6{fill:url(#SVGID_6_);}
	.st7{fill:url(#SVGID_7_);}
	.st8{fill:url(#SVGID_8_);}
	.st9{fill:url(#SVGID_9_);}
	.st10{fill:url(#SVGID_10_);}
	.st11{fill:url(#SVGID_11_);}
	.st12{fill:url(#SVGID_12_);}
	.st13{fill:#00FFFF;}
	.st14{fill:url(#SVGID_13_);}
	.st15{fill:url(#SVGID_14_);}
	.st16{fill:url(#SVGID_15_);}
	.st17{fill:url(#SVGID_16_);}
	.st18{fill:url(#SVGID_17_);}
	.st19{fill:url(#SVGID_18_);}
	.st20{fill:url(#SVGID_19_);}
	.st21{fill:url(#SVGID_20_);}
	.st22{fill:url(#SVGID_21_);}
	.st23{fill:url(#SVGID_22_);}
	.st24{fill:url(#SVGID_23_);}
	.st25{fill:url(#SVGID_24_);}
	.st26{fill:url(#SVGID_25_);}
	.st27{fill:url(#SVGID_26_);}
	.st28{fill:url(#SVGID_27_);}
	.st29{fill:url(#SVGID_28_);}
	.st30{fill:url(#SVGID_29_);}
	.st31{fill:url(#SVGID_30_);}
	.st32{fill:url(#SVGID_31_);}
	.st33{fill:url(#SVGID_32_);}
	.st34{fill:url(#SVGID_33_);}
	.st35{fill:url(#SVGID_34_);}
	.st36{fill:url(#SVGID_35_);}
	.st37{fill:url(#SVGID_36_);}
	.st38{fill:url(#SVGID_37_);}
	.st39{fill:url(#SVGID_38_);}
	.st40{fill:url(#SVGID_39_);}
	.st41{fill:url(#SVGID_40_);}
	.st42{fill:url(#SVGID_41_);}
	.st43{fill:url(#SVGID_42_);}
	.st44{fill:url(#SVGID_43_);}
	.st45{fill:url(#SVGID_44_);}
	.st46{fill:url(#SVGID_45_);}
	.st47{fill:url(#SVGID_46_);}
	.st48{fill:url(#SVGID_47_);}
	.st49{fill:url(#SVGID_48_);}
	.st50{fill:url(#SVGID_49_);}
	.st51{fill:url(#SVGID_50_);}
	.st52{fill:url(#SVGID_51_);}
	.st53{fill:url(#SVGID_52_);}
	.st54{fill:url(#SVGID_53_);}
	.st55{fill:url(#SVGID_54_);}
	.st56{fill:url(#SVGID_55_);}
	.st57{fill:url(#SVGID_56_);}
	.st58{fill:url(#SVGID_57_);}
	.st59{fill:url(#SVGID_58_);}
	.st60{fill:url(#SVGID_59_);}
	.st61{fill:url(#SVGID_60_);}
	.st62{fill:url(#SVGID_61_);}
	.st63{fill:url(#SVGID_62_);}
	.st64{fill:url(#SVGID_63_);}
	.st65{fill:url(#SVGID_64_);}
	.st66{fill:#02C4BF;}
	.st67{font-family:'MyriadPro-Regular';}
	.st68{font-size:11.0846px;}
</style>
<title>ai</title>
<g>
	<g>
		<path class="st0" d="M227.5,59.2c-0.9-3.5-1.9-6.9-3.2-10.3C208.6,8.7,166.5-1.9,127.1,1.6c-4.3,0.4-8.5,1-12.8,1.7
			c-35.6,5.3-71.6,26-92.3,55.8C9.8,76.7,3.4,99.4,7.9,120.6S28,156.8,47,165.9c3,1.4,6.1,2.7,9.2,3.9c41.4,15.1,95,16.1,132.2-10.4
			c4-2.8,7.7-5.9,11.2-9.3C223.4,127.1,235.5,91.8,227.5,59.2z"/>
		
			<linearGradient id="SVGID_1_" gradientUnits="userSpaceOnUse" x1="58.85" y1="102.695" x2="115.66" y2="102.695" gradientTransform="matrix(1 0 0 -1 -1.35 133.23)">
			<stop  offset="0" style="stop-color:#FC697D"/>
			<stop  offset="1" style="stop-color:#DC2276"/>
		</linearGradient>
		<path class="st1" d="M110.2,13.7c1.4-0.2,2.7-0.5,4.1-0.6c-7.8,5.7-15,12.2-21.6,19.3C81.1,37.9,69.4,43.2,57.5,48
			c9.9-11.9,22.1-21.7,35.9-28.7C98.8,16.7,104.4,14.8,110.2,13.7z"/>
		
			<linearGradient id="SVGID_2_" gradientUnits="userSpaceOnUse" x1="2.8606" y1="45.0934" x2="61.1506" y2="34.3434" gradientTransform="matrix(1 0 0 -1 -1.35 133.23)">
			<stop  offset="0" style="stop-color:#FACF5C"/>
			<stop  offset="1" style="stop-color:#FC9173"/>
		</linearGradient>
		<path class="st2" d="M57.5,48c-8.1,9.8-14.6,20.9-19.2,32.8c-2.4,6.1-3.8,12.5-4.3,19.1c-1.1,16.2,2.5,32.3,10.2,46.6
			c-15.8-5.3-29-16.4-36.9-31.1C-6.6,96.8-0.2,66.2,22.9,59.8C34.6,56.5,46.2,52.6,57.5,48z"/>
		<path class="st0" d="M184,149.8c-4.5,8.3-10.3,15.8-17.2,22.2c-2,1.8-4,3.6-6.1,5.2c-3.8,3-7.9,5.5-12.2,7.7
			c-8.9,4.5-18.7,7-28.7,7.3c-5.1,0-10.2-0.4-15.2-1.3c-26.3-4.7-48.2-21.9-60.3-44.5c1.4,0.5,2.8,0.9,4.2,1.2
			c8.2,2.2,16.7,4.2,25.3,5.7c12.9,9.8,30.4,14.6,46.8,14.2C142.7,167,164.6,160.8,184,149.8z"/>
		
			<linearGradient id="SVGID_3_" gradientUnits="userSpaceOnUse" x1="175.6582" y1="81.6301" x2="220.5767" y2="3.8327" gradientTransform="matrix(1 0 0 -1 -1.35 133.23)">
			<stop  offset="0" style="stop-color:#FACF5C"/>
			<stop  offset="1" style="stop-color:#FC9173"/>
		</linearGradient>
		<path class="st3" d="M228.8,65.6c12.3,27.3-5.6,54.2-26.1,71.2c-5.8,4.8-12.1,9.2-18.7,12.9c6.2-11.4,10.1-23.9,11.5-36.7
			c11.2-18.4,16.3-39.8,14.6-61.2c-0.5-6.4-1.7-12.7-3.5-18.8C215.8,42.5,223.3,53.5,228.8,65.6z"/>
		
			<linearGradient id="SVGID_4_" gradientUnits="userSpaceOnUse" x1="172.4293" y1="128.98" x2="172.4293" y2="20.21" gradientTransform="matrix(1 0 0 -1 -1.35 133.23)">
			<stop  offset="0" style="stop-color:#445DEF"/>
			<stop  offset="0.33" style="stop-color:#4333EF"/>
			<stop  offset="1" style="stop-color:#4C008A"/>
		</linearGradient>
		<path class="st4" d="M210.1,51.8c1.7,21.4-3.4,42.9-14.6,61.2c1.1-9.7,0.9-19.6-0.7-29.3c-4-24.6-16.9-47.5-38.7-61.5
			c-4.3-2.8-8.9-5-13.7-6.6c-3.5-1.1-7-1.9-10.6-2.4c3.6-1.7,7.2-3.5,10.8-5.2c2.8-1.3,5.5-2.6,8.4-3.8
			c21.2,2.3,40.6,13.3,55.7,28.8C208.4,39.1,209.6,45.4,210.1,51.8z"/>
		
			<linearGradient id="SVGID_5_" gradientUnits="userSpaceOnUse" x1="167.5351" y1="137.8372" x2="193.9061" y2="92.1656" gradientTransform="matrix(1 0 0 -1 -1.35 133.23)">
			<stop  offset="0" style="stop-color:#FC697D"/>
			<stop  offset="1" style="stop-color:#DC2276"/>
		</linearGradient>
		<path class="st5" d="M205.1,28.8c0.5,1.4,1,2.8,1.4,4.2c-15-15.5-34.4-26.5-55.7-28.8c5.8-2.4,11.8-4.2,18-4.2
			C185.3,0,199.4,13.4,205.1,28.8z"/>
		
			<linearGradient id="SVGID_6_" gradientUnits="userSpaceOnUse" x1="88.8323" y1="97.8303" x2="154.8578" y2="-16.5321" gradientTransform="matrix(1 0 0 -1 -1.35 133.23)">
			<stop  offset="0" style="stop-color:#2EADFF"/>
			<stop  offset="0.23" style="stop-color:#2BA8FF"/>
			<stop  offset="0.49" style="stop-color:#219AFF"/>
			<stop  offset="0.78" style="stop-color:#1082FF"/>
			<stop  offset="1" style="stop-color:#006BFF"/>
		</linearGradient>
		<path class="st6" d="M194.8,83.7c1.6,9.7,1.8,19.5,0.7,29.3c-9.1,15-22.4,26.9-38.4,34.2c-26,11.7-55.5,11.2-83.5,6.2
			c-10.7-8.1-18.3-19.7-19.5-34.6c-0.7-6.8-0.2-13.6,1.3-20.2c7.2-24.6,20-47.3,37.3-66.2c13.1-6.3,26-12.8,39-19.2
			c3.6,0.5,7.2,1.3,10.6,2.4c4.8,1.6,9.4,3.8,13.7,6.6C177.8,36.2,190.7,59.1,194.8,83.7z"/>
		
			<linearGradient id="SVGID_7_" gradientUnits="userSpaceOnUse" x1="129.4135" y1="11.2634" x2="155.4211" y2="-33.7824" gradientTransform="matrix(1 0 0 -1 -1.35 133.23)">
			<stop  offset="0" style="stop-color:#FC697D"/>
			<stop  offset="1" style="stop-color:#DC2276"/>
		</linearGradient>
		<path class="st7" d="M195.5,113c-1.4,12.9-5.3,25.3-11.5,36.7c-19.4,11.1-41.2,17.2-63.6,17.9c-16.3,0.4-33.8-4.4-46.8-14.2
			c28,5,57.5,5.5,83.5-6.2C173,139.9,186.4,128,195.5,113z"/>
		<path class="st0" d="M135.5,4.1c5.1-0.5,10.3-0.4,15.4,0.1c-2.8,1.2-5.6,2.5-8.4,3.8c-3.6,1.7-7.2,3.4-10.8,5.2
			c-1.6-0.2-3.2-0.3-4.8-0.4c-4.2-0.3-8.5-0.3-12.7,0.2c0.9-0.7,1.8-1.3,2.7-1.9C122.7,7.8,129,5.4,135.5,4.1z"/>
		
			<linearGradient id="SVGID_8_" gradientUnits="userSpaceOnUse" x1="109.9169" y1="116.8598" x2="114.3469" y2="109.1798" gradientTransform="matrix(1 0 0 -1 -1.35 133.23)">
			<stop  offset="0" style="stop-color:#FACF5C"/>
			<stop  offset="1" style="stop-color:#FC9173"/>
		</linearGradient>
		<path class="st8" d="M127,12.8c1.6,0.1,3.2,0.2,4.8,0.4c-13,6.3-26,12.9-39,19.2c6.6-7.1,13.8-13.6,21.6-19.3
			C118.5,12.5,122.8,12.5,127,12.8z"/>
		
			<linearGradient id="SVGID_9_" gradientUnits="userSpaceOnUse" x1="64.6227" y1="100.86" x2="64.6227" y2="-20.17" gradientTransform="matrix(1 0 0 -1 -1.35 133.23)">
			<stop  offset="0" style="stop-color:#445DEF"/>
			<stop  offset="0.33" style="stop-color:#4333EF"/>
			<stop  offset="1" style="stop-color:#4C008A"/>
		</linearGradient>
		<path class="st9" d="M57.5,48c11.9-4.8,23.6-10.1,35.2-15.7C75.4,51.3,62.6,73.9,55.4,98.5c-1.5,6.6-2,13.5-1.3,20.2
			c1.2,14.9,8.8,26.5,19.5,34.6c-8.6-1.5-17.1-3.5-25.3-5.7c-1.4-0.4-2.8-0.8-4.2-1.2C36.5,132.2,32.9,116,34,99.9
			c0.5-6.5,1.9-13,4.3-19.1C42.9,68.9,49.4,57.8,57.5,48z"/>
		
			<radialGradient id="SVGID_10_" cx="143.4225" cy="59.4811" r="37.08" gradientTransform="matrix(1 0 0 -1 -1.3434 133.2337)" gradientUnits="userSpaceOnUse">
			<stop  offset="0" style="stop-color:#FFFFFF"/>
			<stop  offset="0.34" style="stop-color:#FCFDFC"/>
			<stop  offset="0.56" style="stop-color:#F4F4F4"/>
			<stop  offset="0.73" style="stop-color:#E5E6E5"/>
			<stop  offset="0.89" style="stop-color:#D1D3D1"/>
			<stop  offset="1" style="stop-color:#BDBFBD"/>
		</radialGradient>
		<circle class="st10" cx="142.1" cy="73.8" r="37.1"/>
		
			<radialGradient id="SVGID_11_" cx="143.4225" cy="59.4811" r="33.2" gradientTransform="matrix(1 0 0 -1 -1.3434 133.2337)" gradientUnits="userSpaceOnUse">
			<stop  offset="0" style="stop-color:#FFFFFF"/>
			<stop  offset="0.24" style="stop-color:#FBFBFB"/>
			<stop  offset="0.49" style="stop-color:#EEEEEE"/>
			<stop  offset="0.75" style="stop-color:#D8DAD8"/>
			<stop  offset="1" style="stop-color:#BDBFBD"/>
		</radialGradient>
		<circle class="st11" cx="142.1" cy="73.8" r="33.2"/>
		
			<radialGradient id="SVGID_12_" cx="143.4225" cy="59.4811" r="21.93" gradientTransform="matrix(1 0 0 -1 -1.3434 133.2337)" gradientUnits="userSpaceOnUse">
			<stop  offset="0" style="stop-color:#FFFFFF"/>
			<stop  offset="0.46" style="stop-color:#FDFDFD"/>
			<stop  offset="0.64" style="stop-color:#F6F6F6"/>
			<stop  offset="0.78" style="stop-color:#EAEAEA"/>
			<stop  offset="0.89" style="stop-color:#D8DAD8"/>
			<stop  offset="0.98" style="stop-color:#C2C4C2"/>
			<stop  offset="1" style="stop-color:#BDBFBD"/>
		</radialGradient>
		<circle class="st12" cx="142.1" cy="73.8" r="21.9"/>
		<path class="st13" d="M153,62.7v22.2h-22.2V62.7H153 M153.8,61.8H130v23.9h23.9V61.8z"/>
		<rect x="133.8" y="58.2" class="st13" width="1.5" height="4"/>
		<rect x="139.7" y="58.2" class="st13" width="1.5" height="4"/>
		<rect x="145.6" y="58.2" class="st13" width="1.5" height="4"/>
		<rect x="151.4" y="58.2" class="st13" width="1.5" height="4"/>
		<rect x="136.7" y="59.6" class="st13" width="1.5" height="2.6"/>
		<rect x="130.8" y="59.6" class="st13" width="1.5" height="2.6"/>
		<rect x="142.6" y="59.6" class="st13" width="1.5" height="2.6"/>
		<rect x="148.5" y="59.6" class="st13" width="1.5" height="2.6"/>
		<rect x="148.5" y="85.3" class="st13" width="1.5" height="4"/>
		<rect x="142.6" y="85.3" class="st13" width="1.5" height="4"/>
		<rect x="136.7" y="85.3" class="st13" width="1.5" height="4"/>
		<rect x="130.8" y="85.3" class="st13" width="1.5" height="4"/>
		<rect x="145.6" y="85.3" class="st13" width="1.5" height="2.6"/>
		<rect x="151.4" y="85.3" class="st13" width="1.5" height="2.6"/>
		<rect x="139.7" y="85.3" class="st13" width="1.5" height="2.6"/>
		<rect x="133.8" y="85.3" class="st13" width="1.5" height="2.6"/>
		<rect x="153.3" y="65.6" class="st13" width="4" height="1.5"/>
		<rect x="153.3" y="71.5" class="st13" width="4" height="1.5"/>
		<rect x="153.3" y="77.4" class="st13" width="4" height="1.5"/>
		<rect x="153.3" y="83.3" class="st13" width="4" height="1.5"/>
		<rect x="153.3" y="68.6" class="st13" width="2.6" height="1.5"/>
		<rect x="153.3" y="62.7" class="st13" width="2.6" height="1.5"/>
		<rect x="153.3" y="74.5" class="st13" width="2.6" height="1.5"/>
		<rect x="153.3" y="80.4" class="st13" width="2.6" height="1.5"/>
		<rect x="126.4" y="80.4" class="st13" width="4" height="1.5"/>
		<rect x="126.4" y="74.5" class="st13" width="4" height="1.5"/>
		<rect x="126.4" y="68.6" class="st13" width="4" height="1.5"/>
		<rect x="126.4" y="62.7" class="st13" width="4" height="1.5"/>
		<rect x="127.8" y="77.4" class="st13" width="2.6" height="1.5"/>
		<rect x="127.8" y="83.3" class="st13" width="2.6" height="1.5"/>
		<rect x="127.8" y="71.5" class="st13" width="2.6" height="1.5"/>
		<rect x="127.8" y="65.6" class="st13" width="2.6" height="1.5"/>
		<polygon class="st13" points="131.9,59.8 131.6,59.8 131.6,56.7 128.6,53.8 128.6,45.4 128.9,45.4 128.9,53.6 131.9,56.6 		"/>
		<polygon class="st13" points="134.7,58.5 134.3,58.5 134.3,54.3 135.8,52.9 135.8,40.5 136.2,40.5 136.2,53 134.7,54.5 		"/>
		<polygon class="st13" points="136,48.6 132,44.6 132,37.3 132.4,37.3 132.4,44.5 136.2,48.3 		"/>
		<polygon class="st13" points="137.7,59.6 137.3,59.6 137.3,55.8 138.8,54.3 138.8,37.8 139.2,37.8 139.2,54.5 137.7,55.9 		"/>
		<polygon class="st13" points="140.6,58.3 140.2,58.3 140.2,55.3 141.6,53.9 141.6,32.4 141.9,32.4 141.9,54 140.6,55.4 		"/>
		<rect x="143.2" y="43.8" class="st13" width="0.4" height="15.8"/>
		<polygon class="st13" points="146.5,58.4 146.2,58.4 146.2,54 144.5,52.3 144.5,28.5 144.9,28.5 144.9,52.2 146.5,53.8 		"/>
		<polygon class="st13" points="149.5,59.7 149.1,59.7 149.1,52.5 147.3,50.6 147.3,38.7 147.6,38.7 147.6,50.5 149.5,52.3 		"/>
		<polygon class="st13" points="147.7,44.8 147.4,44.5 149.9,42 149.9,31.6 150.3,31.6 150.3,42.2 		"/>
		<polygon class="st13" points="152.3,58.4 152,58.4 152,50.1 154.3,47.8 154.3,41.8 154.6,41.8 154.6,47.9 152.3,50.2 		"/>
		<path class="st13" d="M145.5,27.8c0,0.4-0.4,0.8-0.8,0.8c-0.4,0-0.8-0.4-0.8-0.8c0-0.5,0.4-0.8,0.8-0.8l0,0
			C145.1,26.9,145.5,27.3,145.5,27.8z"/>
		<path class="st13" d="M139.8,37.1c0,0.4-0.4,0.8-0.8,0.8c-0.5,0-0.8-0.4-0.8-0.8s0.4-0.8,0.8-0.8
			C139.4,36.3,139.8,36.6,139.8,37.1C139.8,37.1,139.8,37.1,139.8,37.1z"/>
		<path class="st13" d="M144.2,43c0,0.4-0.4,0.8-0.8,0.8c-0.5,0-0.8-0.4-0.8-0.8v0c0-0.4,0.4-0.8,0.8-0.8
			C143.8,42.2,144.2,42.6,144.2,43z"/>
		<path class="st13" d="M136.8,39.8c0,0.5-0.4,0.8-0.8,0.8l0,0c-0.5,0-0.8-0.4-0.8-0.8c0-0.5,0.4-0.8,0.8-0.8
			C136.5,38.9,136.8,39.3,136.8,39.8L136.8,39.8z"/>
		<path class="st13" d="M133,36.5c0,0.4-0.4,0.8-0.8,0.8c-0.4,0-0.8-0.4-0.8-0.8c0-0.4,0.4-0.8,0.8-0.8
			C132.6,35.7,133,36.1,133,36.5L133,36.5z"/>
		<path class="st13" d="M129.5,44.6c0,0.5-0.5,0.8-0.9,0.7c-0.4,0-0.7-0.3-0.7-0.7c0-0.5,0.3-0.9,0.7-0.9c0.5,0,0.9,0.3,0.9,0.7
			C129.5,44.5,129.5,44.5,129.5,44.6z"/>
		<path class="st13" d="M142.5,31.6c0,0.5-0.4,0.8-0.8,0.8c-0.5,0-0.8-0.4-0.8-0.8s0.4-0.8,0.8-0.8
			C142.2,30.8,142.5,31.1,142.5,31.6L142.5,31.6z"/>
		<path class="st13" d="M150.9,30.8c0,0.4-0.4,0.8-0.8,0.8c-0.5,0-0.8-0.4-0.8-0.8v0c0-0.4,0.4-0.8,0.8-0.8
			C150.6,30,150.9,30.4,150.9,30.8z"/>
		<path class="st13" d="M148.2,37.9c0,0.5-0.4,0.8-0.8,0.8c-0.5,0-0.8-0.4-0.8-0.8s0.4-0.8,0.8-0.8
			C147.9,37.1,148.2,37.5,148.2,37.9L148.2,37.9z"/>
		<path class="st13" d="M155.2,41c0,0.4-0.4,0.8-0.8,0.8c-0.4,0-0.8-0.4-0.8-0.8c0-0.5,0.4-0.8,0.8-0.8l0,0
			C154.8,40.2,155.2,40.5,155.2,41z"/>
		<polygon class="st13" points="155.2,102.1 154.8,102.1 154.8,93.9 151.8,90.9 151.8,87.7 152.2,87.7 152.2,90.8 155.2,93.8 		"/>
		<polygon class="st13" points="147.9,106.9 147.5,106.9 147.5,94.5 149,93 149,89 149.4,89 149.4,93.2 147.9,94.6 		"/>
		<polygon class="st13" points="151.7,110.2 151.3,110.2 151.3,103 147.5,99.2 147.8,98.9 151.7,102.9 		"/>
		<polygon class="st13" points="144.9,109.7 144.6,109.7 144.6,93 146,91.6 146,87.9 146.4,87.9 146.4,91.7 144.9,93.2 		"/>
		<polygon class="st13" points="142.1,115.1 141.8,115.1 141.8,93.5 143.2,92.1 143.2,89.2 143.5,89.2 143.5,92.2 142.1,93.6 		"/>
		<rect x="140.1" y="87.9" class="st13" width="0.4" height="15.8"/>
		<polygon class="st13" points="139.2,119 138.9,119 138.9,95.3 137.2,93.7 137.2,89.1 137.6,89.1 137.6,93.5 139.2,95.2 		"/>
		<polygon class="st13" points="136.4,108.8 136.1,108.8 136.1,97 134.2,95.2 134.2,87.8 134.6,87.8 134.6,95 136.4,96.9 		"/>
		<polygon class="st13" points="133.8,115.9 133.4,115.9 133.4,105.3 136,102.7 136.3,103 133.8,105.5 		"/>
		<polygon class="st13" points="129.5,105.7 129.1,105.7 129.1,99.6 131.4,97.3 131.4,89.1 131.8,89.1 131.8,97.4 129.5,99.7 		"/>
		<path class="st13" d="M138.2,119.7c0-0.5,0.4-0.8,0.8-0.8h0c0.5,0,0.8,0.4,0.8,0.8c0,0.5-0.4,0.8-0.8,0.8
			C138.6,120.6,138.2,120.2,138.2,119.7z"/>
		<path class="st13" d="M143.9,110.4c0-0.5,0.4-0.8,0.8-0.8h0c0.5,0,0.8,0.4,0.8,0.8c0,0.5-0.4,0.8-0.8,0.8
			C144.3,111.2,143.9,110.9,143.9,110.4z"/>
		<path class="st13" d="M139.5,104.5c0-0.4,0.4-0.8,0.8-0.8c0.4,0,0.8,0.4,0.8,0.8c0,0.4-0.4,0.8-0.8,0.8
			C139.9,105.3,139.5,104.9,139.5,104.5L139.5,104.5z"/>
		<path class="st13" d="M146.9,107.7c0-0.4,0.4-0.8,0.8-0.8c0.5,0,0.8,0.4,0.8,0.8v0c0,0.4-0.4,0.8-0.8,0.8
			C147.3,108.5,146.9,108.2,146.9,107.7z"/>
		<path class="st13" d="M150.7,111c0-0.4,0.4-0.8,0.8-0.8c0.5,0,0.8,0.4,0.8,0.8v0c0,0.4-0.4,0.8-0.8,0.8
			C151.1,111.8,150.7,111.4,150.7,111z"/>
		<path class="st13" d="M154.2,102.9c0-0.5,0.4-0.8,0.8-0.8s0.8,0.4,0.8,0.8c0,0.5-0.4,0.8-0.8,0.8
			C154.6,103.7,154.2,103.4,154.2,102.9L154.2,102.9z"/>
		<path class="st13" d="M141.2,115.9c0-0.4,0.4-0.8,0.8-0.8c0.5,0,0.8,0.4,0.8,0.8v0c0,0.4-0.4,0.8-0.8,0.8
			C141.6,116.7,141.2,116.4,141.2,115.9z"/>
		<path class="st13" d="M132.8,116.7c0-0.4,0.4-0.8,0.8-0.8c0.4,0,0.8,0.4,0.8,0.8c0,0.4-0.4,0.8-0.8,0.8
			C133.1,117.5,132.8,117.1,132.8,116.7L132.8,116.7z"/>
		<path class="st13" d="M135.5,109.6c0-0.4,0.4-0.8,0.8-0.8c0.5,0,0.8,0.4,0.8,0.8v0c0,0.4-0.4,0.8-0.8,0.8
			C135.9,110.4,135.5,110,135.5,109.6z"/>
		<path class="st13" d="M128.5,106.5c0-0.5,0.4-0.8,0.8-0.8h0c0.4,0,0.8,0.4,0.8,0.8c0,0.4-0.4,0.8-0.8,0.8
			C128.9,107.3,128.5,107,128.5,106.5z"/>
		<polygon class="st13" points="159,63.7 155.8,63.7 155.8,63.3 158.8,63.3 161.8,60.4 170.2,60.4 170.2,60.7 162,60.7 		"/>
		<polygon class="st13" points="175,68 162.5,68 161.1,66.5 157.1,66.5 157.1,66.1 161.2,66.1 162.7,67.6 175,67.6 		"/>
		<polygon class="st13" points="167.2,68 167,67.8 170.9,63.8 178.3,63.8 178.3,64.2 171.1,64.2 		"/>
		<polygon class="st13" points="177.7,71 161.1,71 159.6,69.5 155.9,69.5 155.9,69.2 159.8,69.2 161.2,70.6 177.7,70.6 		"/>
		<polygon class="st13" points="183.2,73.8 161.5,73.8 160.1,72.4 157.3,72.4 157.3,72 160.3,72 161.7,73.4 183.2,73.4 		"/>
		<rect x="155.9" y="75" class="st13" width="15.8" height="0.4"/>
		<polygon class="st13" points="161.7,78.3 157.2,78.3 157.2,78 161.6,78 163.3,76.3 187,76.3 187,76.7 163.4,76.7 		"/>
		<polygon class="st13" points="163.3,81.3 155.8,81.3 155.8,80.9 163.1,80.9 164.9,79.1 176.8,79.1 176.8,79.5 165.1,79.5 		"/>
		<polygon class="st13" points="184,82.1 173.4,82.1 170.8,79.5 171.1,79.2 173.6,81.7 184,81.7 		"/>
		<polygon class="st13" points="173.8,86.4 167.6,86.4 165.4,84.2 157.2,84.2 157.2,83.8 165.5,83.8 167.8,86.1 173.8,86.1 		"/>
		<path class="st13" d="M187.8,77.3c-0.5,0-0.8-0.4-0.8-0.8v0c0-0.4,0.4-0.8,0.8-0.8c0.4,0,0.8,0.4,0.8,0.8
			C188.6,76.9,188.2,77.3,187.8,77.3z"/>
		<path class="st13" d="M178.5,71.6c-0.5,0-0.8-0.4-0.8-0.8v0c0-0.5,0.4-0.8,0.8-0.8c0.5,0,0.8,0.4,0.8,0.8
			C179.3,71.2,178.9,71.6,178.5,71.6z"/>
		<path class="st13" d="M172.5,76c-0.4,0-0.8-0.4-0.8-0.8c0-0.4,0.4-0.8,0.8-0.8c0.4,0,0.8,0.4,0.8,0.8C173.3,75.6,173,76,172.5,76
			L172.5,76z"/>
		<path class="st13" d="M175.8,68.6c-0.4,0-0.8-0.4-0.8-0.8c0-0.5,0.4-0.8,0.8-0.8c0.5,0,0.8,0.4,0.8,0.8
			C176.6,68.3,176.3,68.6,175.8,68.6C175.8,68.6,175.8,68.6,175.8,68.6z"/>
		<path class="st13" d="M179,64.8c-0.4,0-0.8-0.4-0.8-0.8c0-0.5,0.4-0.8,0.8-0.8l0,0c0.4,0,0.8,0.4,0.8,0.8
			C179.9,64.4,179.5,64.8,179,64.8z"/>
		<path class="st13" d="M171,61.3c-0.5,0-0.8-0.4-0.8-0.8c0-0.5,0.4-0.8,0.8-0.8c0,0,0,0,0,0c0.5,0,0.8,0.4,0.8,0.8
			C171.8,61,171.4,61.3,171,61.3z"/>
		<path class="st13" d="M184,74.3c-0.5,0-0.8-0.4-0.8-0.8s0.4-0.8,0.8-0.8s0.8,0.4,0.8,0.8c0,0,0,0,0,0
			C184.8,74,184.4,74.3,184,74.3z"/>
		<path class="st13" d="M184.7,82.7c-0.4,0-0.8-0.4-0.8-0.8c0-0.4,0.4-0.8,0.8-0.8c0.4,0,0.8,0.4,0.8,0.8
			C185.5,82.4,185.2,82.7,184.7,82.7L184.7,82.7z"/>
		<path class="st13" d="M177.6,80c-0.5,0-0.8-0.4-0.8-0.8c0-0.5,0.4-0.8,0.8-0.8c0,0,0,0,0,0c0.5,0,0.8,0.4,0.8,0.8
			C178.5,79.7,178.1,80,177.6,80z"/>
		<path class="st13" d="M174.6,87c-0.5,0-0.8-0.4-0.8-0.8v0c0-0.4,0.4-0.8,0.8-0.8c0.4,0,0.8,0.4,0.8,0.8
			C175.4,86.6,175,87,174.6,87z"/>
		<polygon class="st13" points="122.3,87.2 114,87.2 114,86.8 122.2,86.8 125.2,83.8 128.4,83.8 128.4,84.2 125.3,84.2 		"/>
		<polygon class="st13" points="127.1,81.4 122.9,81.4 121.5,79.9 109.2,79.9 109.2,79.6 121.6,79.6 123.1,81 127.1,81 		"/>
		<polygon class="st13" points="113.2,83.7 105.9,83.7 105.9,83.3 113.1,83.3 116.9,79.5 117.2,79.8 		"/>
		<polygon class="st13" points="128.2,78.4 124.4,78.4 122.9,76.9 106.4,76.9 106.4,76.6 123.1,76.6 124.5,78 128.2,78 		"/>
		<polygon class="st13" points="126.9,75.5 123.9,75.5 122.5,74.2 101,74.2 101,73.8 122.6,73.8 124,75.2 126.9,75.2 		"/>
		<rect x="112.4" y="72.2" class="st13" width="15.8" height="0.4"/>
		<polygon class="st13" points="120.9,71.2 97.1,71.2 97.1,70.9 120.8,70.9 122.4,69.2 127,69.2 127,69.6 122.6,69.6 		"/>
		<polygon class="st13" points="119.2,68.4 107.3,68.4 107.3,68.1 119.1,68.1 120.9,66.2 128.3,66.2 128.3,66.6 121.1,66.6 		"/>
		<polygon class="st13" points="113.1,68.3 110.6,65.8 100.2,65.8 100.2,65.4 110.8,65.4 113.4,68 		"/>
		<polygon class="st13" points="127,63.8 118.7,63.8 116.4,61.5 110.4,61.5 110.4,61.1 116.5,61.1 118.8,63.4 127,63.4 		"/>
		<path class="st13" d="M96.3,70.2c0.5,0,0.8,0.4,0.8,0.8l0,0c0,0.5-0.4,0.8-0.8,0.8c-0.5,0-0.8-0.4-0.8-0.8
			C95.5,70.6,95.9,70.2,96.3,70.2L96.3,70.2z"/>
		<path class="st13" d="M105.7,75.9c0.5,0,0.8,0.4,0.8,0.8l0,0c0,0.5-0.4,0.8-0.8,0.8c-0.5,0-0.8-0.4-0.8-0.8
			C104.8,76.3,105.2,75.9,105.7,75.9L105.7,75.9z"/>
		<path class="st13" d="M111.7,71.5c0.4,0,0.8,0.4,0.8,0.8c0,0.4-0.4,0.8-0.8,0.8c-0.4,0-0.8-0.4-0.8-0.8
			C110.8,71.9,111.2,71.5,111.7,71.5L111.7,71.5z"/>
		<path class="st13" d="M108.4,78.9c0.4,0,0.8,0.4,0.8,0.8c0,0.5-0.4,0.8-0.8,0.8h0c-0.4,0-0.8-0.4-0.8-0.8
			C107.6,79.3,107.9,78.9,108.4,78.9z"/>
		<path class="st13" d="M105.1,82.7c0.4,0,0.8,0.4,0.8,0.8c0,0.5-0.4,0.8-0.8,0.8h0c-0.4,0-0.8-0.4-0.8-0.8
			C104.3,83.1,104.7,82.7,105.1,82.7z"/>
		<path class="st13" d="M113.2,86.2c0.5,0,0.8,0.4,0.8,0.8c0,0.5-0.4,0.8-0.8,0.8s-0.8-0.4-0.8-0.8
			C112.4,86.6,112.7,86.2,113.2,86.2L113.2,86.2z"/>
		<path class="st13" d="M100.2,73.2c0.5,0,0.8,0.4,0.8,0.8c0,0.5-0.4,0.8-0.8,0.8c-0.5,0-0.8-0.4-0.8-0.8
			C99.4,73.6,99.7,73.2,100.2,73.2z"/>
		<path class="st13" d="M99.4,64.8c0.4,0,0.8,0.4,0.8,0.8c0,0.4-0.4,0.8-0.8,0.8c-0.4,0-0.8-0.4-0.8-0.8
			C98.6,65.2,99,64.8,99.4,64.8z"/>
		<path class="st13" d="M106.5,67.5c0.5,0,0.8,0.4,0.8,0.8c0,0.5-0.4,0.8-0.8,0.8c-0.5,0-0.8-0.4-0.8-0.8
			C105.7,67.9,106.1,67.5,106.5,67.5z"/>
		<path class="st13" d="M109.6,60.5c0.5,0,0.8,0.4,0.8,0.8c0,0.4-0.4,0.8-0.8,0.8c-0.4,0-0.8-0.4-0.8-0.8
			C108.8,60.9,109.1,60.5,109.6,60.5z"/>
		
			<radialGradient id="SVGID_13_" cx="144.75" cy="164.24" r="5.72" gradientTransform="matrix(1 0 0 -1 0 192)" gradientUnits="userSpaceOnUse">
			<stop  offset="0" style="stop-color:#2EA9E0"/>
			<stop  offset="0.23" style="stop-color:#227DA5"/>
			<stop  offset="0.61" style="stop-color:#103A4D"/>
			<stop  offset="0.87" style="stop-color:#041016"/>
			<stop  offset="1" style="stop-color:#000000"/>
		</radialGradient>
		<circle class="st14" cx="144.8" cy="27.8" r="5.1"/>
		
			<radialGradient id="SVGID_14_" cx="144.75" cy="164.24" r="3.62" gradientTransform="matrix(1 0 0 -1 0 192)" gradientUnits="userSpaceOnUse">
			<stop  offset="0" style="stop-color:#2EA9E0"/>
			<stop  offset="0.23" style="stop-color:#227DA5"/>
			<stop  offset="0.61" style="stop-color:#103A4D"/>
			<stop  offset="0.87" style="stop-color:#041016"/>
			<stop  offset="1" style="stop-color:#000000"/>
		</radialGradient>
		<circle class="st15" cx="144.8" cy="27.8" r="2.8"/>
		
			<radialGradient id="SVGID_15_" cx="154.4" cy="151.02" r="5.72" gradientTransform="matrix(1 0 0 -1 0 192)" gradientUnits="userSpaceOnUse">
			<stop  offset="0" style="stop-color:#2EA9E0"/>
			<stop  offset="0.23" style="stop-color:#227DA5"/>
			<stop  offset="0.61" style="stop-color:#103A4D"/>
			<stop  offset="0.87" style="stop-color:#041016"/>
			<stop  offset="1" style="stop-color:#000000"/>
		</radialGradient>
		<circle class="st16" cx="154.4" cy="41" r="5.1"/>
		
			<radialGradient id="SVGID_16_" cx="154.4" cy="151.02" r="3.62" gradientTransform="matrix(1 0 0 -1 0 192)" gradientUnits="userSpaceOnUse">
			<stop  offset="0" style="stop-color:#2EA9E0"/>
			<stop  offset="0.23" style="stop-color:#227DA5"/>
			<stop  offset="0.61" style="stop-color:#103A4D"/>
			<stop  offset="0.87" style="stop-color:#041016"/>
			<stop  offset="1" style="stop-color:#000000"/>
		</radialGradient>
		<circle class="st17" cx="154.4" cy="41" r="2.8"/>
		
			<radialGradient id="SVGID_17_" cx="143.58" cy="148.97" r="5.72" gradientTransform="matrix(1 0 0 -1 0 192)" gradientUnits="userSpaceOnUse">
			<stop  offset="0" style="stop-color:#2EA9E0"/>
			<stop  offset="0.23" style="stop-color:#227DA5"/>
			<stop  offset="0.61" style="stop-color:#103A4D"/>
			<stop  offset="0.87" style="stop-color:#041016"/>
			<stop  offset="1" style="stop-color:#000000"/>
		</radialGradient>
		<circle class="st18" cx="143.6" cy="43" r="5.1"/>
		
			<radialGradient id="SVGID_18_" cx="144.92" cy="90.2" r="3.62" gradientTransform="matrix(1 0 0 -1 -1.35 133.23)" gradientUnits="userSpaceOnUse">
			<stop  offset="0" style="stop-color:#2EA9E0"/>
			<stop  offset="0.23" style="stop-color:#227DA5"/>
			<stop  offset="0.61" style="stop-color:#103A4D"/>
			<stop  offset="0.87" style="stop-color:#041016"/>
			<stop  offset="1" style="stop-color:#000000"/>
		</radialGradient>
		<path class="st19" d="M146.4,43c0,1.5-1.3,2.8-2.8,2.8s-2.8-1.3-2.8-2.8c0-1.5,1.3-2.8,2.8-2.8S146.4,41.5,146.4,43L146.4,43z"/>
		
			<radialGradient id="SVGID_19_" cx="171.08" cy="131.49" r="5.72" gradientTransform="matrix(1 0 0 -1 0 192)" gradientUnits="userSpaceOnUse">
			<stop  offset="0" style="stop-color:#2EA9E0"/>
			<stop  offset="0.23" style="stop-color:#227DA5"/>
			<stop  offset="0.61" style="stop-color:#103A4D"/>
			<stop  offset="0.87" style="stop-color:#041016"/>
			<stop  offset="1" style="stop-color:#000000"/>
		</radialGradient>
		<circle class="st20" cx="171.1" cy="60.5" r="5.1"/>
		
			<radialGradient id="SVGID_20_" cx="171.08" cy="131.49" r="3.62" gradientTransform="matrix(1 0 0 -1 0 192)" gradientUnits="userSpaceOnUse">
			<stop  offset="0" style="stop-color:#2EA9E0"/>
			<stop  offset="0.23" style="stop-color:#227DA5"/>
			<stop  offset="0.61" style="stop-color:#103A4D"/>
			<stop  offset="0.87" style="stop-color:#041016"/>
			<stop  offset="1" style="stop-color:#000000"/>
		</radialGradient>
		<circle class="st21" cx="171.1" cy="60.5" r="2.8"/>
		
			<radialGradient id="SVGID_21_" cx="96.35" cy="120.75" r="5.72" gradientTransform="matrix(1 0 0 -1 0 192)" gradientUnits="userSpaceOnUse">
			<stop  offset="0" style="stop-color:#2EA9E0"/>
			<stop  offset="0.23" style="stop-color:#227DA5"/>
			<stop  offset="0.61" style="stop-color:#103A4D"/>
			<stop  offset="0.87" style="stop-color:#041016"/>
			<stop  offset="1" style="stop-color:#000000"/>
		</radialGradient>
		<circle class="st22" cx="96.3" cy="71.2" r="5.1"/>
		
			<radialGradient id="SVGID_22_" cx="96.35" cy="120.75" r="3.62" gradientTransform="matrix(1 0 0 -1 0 192)" gradientUnits="userSpaceOnUse">
			<stop  offset="0" style="stop-color:#2EA9E0"/>
			<stop  offset="0.23" style="stop-color:#227DA5"/>
			<stop  offset="0.61" style="stop-color:#103A4D"/>
			<stop  offset="0.87" style="stop-color:#041016"/>
			<stop  offset="1" style="stop-color:#000000"/>
		</radialGradient>
		<circle class="st23" cx="96.3" cy="71.2" r="2.8"/>
		
			<radialGradient id="SVGID_23_" cx="113.19" cy="104.83" r="5.72" gradientTransform="matrix(1 0 0 -1 0 192)" gradientUnits="userSpaceOnUse">
			<stop  offset="0" style="stop-color:#2EA9E0"/>
			<stop  offset="0.23" style="stop-color:#227DA5"/>
			<stop  offset="0.61" style="stop-color:#103A4D"/>
			<stop  offset="0.87" style="stop-color:#041016"/>
			<stop  offset="1" style="stop-color:#000000"/>
		</radialGradient>
		<circle class="st24" cx="113.2" cy="87.2" r="5.1"/>
		
			<radialGradient id="SVGID_24_" cx="114.54" cy="46.06" r="3.62" gradientTransform="matrix(1 0 0 -1 -1.35 133.23)" gradientUnits="userSpaceOnUse">
			<stop  offset="0" style="stop-color:#2EA9E0"/>
			<stop  offset="0.23" style="stop-color:#227DA5"/>
			<stop  offset="0.61" style="stop-color:#103A4D"/>
			<stop  offset="0.87" style="stop-color:#041016"/>
			<stop  offset="1" style="stop-color:#000000"/>
		</radialGradient>
		<path class="st25" d="M116,87.2c0,1.5-1.3,2.8-2.8,2.8c-1.5,0-2.8-1.3-2.8-2.8c0-1.5,1.3-2.8,2.8-2.8S116,85.6,116,87.2L116,87.2z
			"/>
		
			<radialGradient id="SVGID_25_" cx="105.7" cy="115.24" r="5.72" gradientTransform="matrix(1 0 0 -1 0 192)" gradientUnits="userSpaceOnUse">
			<stop  offset="0" style="stop-color:#2EA9E0"/>
			<stop  offset="0.23" style="stop-color:#227DA5"/>
			<stop  offset="0.61" style="stop-color:#103A4D"/>
			<stop  offset="0.87" style="stop-color:#041016"/>
			<stop  offset="1" style="stop-color:#000000"/>
		</radialGradient>
		<circle class="st26" cx="105.7" cy="76.8" r="5.1"/>
		
			<radialGradient id="SVGID_26_" cx="105.7" cy="115.24" r="3.62" gradientTransform="matrix(1 0 0 -1 0 192)" gradientUnits="userSpaceOnUse">
			<stop  offset="0" style="stop-color:#2EA9E0"/>
			<stop  offset="0.23" style="stop-color:#227DA5"/>
			<stop  offset="0.61" style="stop-color:#103A4D"/>
			<stop  offset="0.87" style="stop-color:#041016"/>
			<stop  offset="1" style="stop-color:#000000"/>
		</radialGradient>
		<circle class="st27" cx="105.7" cy="76.8" r="2.8"/>
		
			<radialGradient id="SVGID_27_" cx="109.58" cy="130.67" r="5.72" gradientTransform="matrix(1 0 0 -1 0 192)" gradientUnits="userSpaceOnUse">
			<stop  offset="0" style="stop-color:#2EA9E0"/>
			<stop  offset="0.23" style="stop-color:#227DA5"/>
			<stop  offset="0.61" style="stop-color:#103A4D"/>
			<stop  offset="0.87" style="stop-color:#041016"/>
			<stop  offset="1" style="stop-color:#000000"/>
		</radialGradient>
		<circle class="st28" cx="109.6" cy="61.3" r="5.1"/>
		
			<radialGradient id="SVGID_28_" cx="110.92" cy="71.9" r="3.62" gradientTransform="matrix(1 0 0 -1 -1.35 133.23)" gradientUnits="userSpaceOnUse">
			<stop  offset="0" style="stop-color:#2EA9E0"/>
			<stop  offset="0.23" style="stop-color:#227DA5"/>
			<stop  offset="0.61" style="stop-color:#103A4D"/>
			<stop  offset="0.87" style="stop-color:#041016"/>
			<stop  offset="1" style="stop-color:#000000"/>
		</radialGradient>
		<path class="st29" d="M112.4,61.3c0,1.5-1.3,2.8-2.8,2.8s-2.8-1.3-2.8-2.8c0-1.5,1.3-2.8,2.8-2.8
			C111.1,58.5,112.4,59.8,112.4,61.3C112.4,61.3,112.4,61.3,112.4,61.3z"/>
		
			<radialGradient id="SVGID_29_" cx="178.47" cy="121.23" r="5.72" gradientTransform="matrix(1 0 0 -1 0 192)" gradientUnits="userSpaceOnUse">
			<stop  offset="0" style="stop-color:#2EA9E0"/>
			<stop  offset="0.23" style="stop-color:#227DA5"/>
			<stop  offset="0.61" style="stop-color:#103A4D"/>
			<stop  offset="0.87" style="stop-color:#041016"/>
			<stop  offset="1" style="stop-color:#000000"/>
		</radialGradient>
		<circle class="st30" cx="178.5" cy="70.8" r="5.1"/>
		
			<radialGradient id="SVGID_30_" cx="179.82" cy="62.46" r="3.62" gradientTransform="matrix(1 0 0 -1 -1.35 133.23)" gradientUnits="userSpaceOnUse">
			<stop  offset="0" style="stop-color:#2EA9E0"/>
			<stop  offset="0.23" style="stop-color:#227DA5"/>
			<stop  offset="0.61" style="stop-color:#103A4D"/>
			<stop  offset="0.87" style="stop-color:#041016"/>
			<stop  offset="1" style="stop-color:#000000"/>
		</radialGradient>
		<path class="st31" d="M181.3,70.8c0,1.5-1.3,2.8-2.8,2.8c-1.5,0-2.8-1.3-2.8-2.8c0-1.5,1.3-2.8,2.8-2.8S181.3,69.2,181.3,70.8
			L181.3,70.8z"/>
		
			<radialGradient id="SVGID_31_" cx="187.8" cy="115.44" r="5.72" gradientTransform="matrix(1 0 0 -1 0 192)" gradientUnits="userSpaceOnUse">
			<stop  offset="0" style="stop-color:#2EA9E0"/>
			<stop  offset="0.23" style="stop-color:#227DA5"/>
			<stop  offset="0.61" style="stop-color:#103A4D"/>
			<stop  offset="0.87" style="stop-color:#041016"/>
			<stop  offset="1" style="stop-color:#000000"/>
		</radialGradient>
		<circle class="st32" cx="187.8" cy="76.6" r="5.1"/>
		
			<radialGradient id="SVGID_32_" cx="189.15" cy="56.67" r="3.62" gradientTransform="matrix(1 0 0 -1 -1.35 133.23)" gradientUnits="userSpaceOnUse">
			<stop  offset="0" style="stop-color:#2EA9E0"/>
			<stop  offset="0.23" style="stop-color:#227DA5"/>
			<stop  offset="0.61" style="stop-color:#103A4D"/>
			<stop  offset="0.87" style="stop-color:#041016"/>
			<stop  offset="1" style="stop-color:#000000"/>
		</radialGradient>
		<path class="st33" d="M190.6,76.6c0,1.5-1.3,2.8-2.8,2.8c-1.5,0-2.8-1.3-2.8-2.8c0-1.5,1.3-2.8,2.8-2.8S190.6,75,190.6,76.6
			L190.6,76.6z"/>
		
			<radialGradient id="SVGID_33_" cx="174.58" cy="105.8" r="5.72" gradientTransform="matrix(1 0 0 -1 0 192)" gradientUnits="userSpaceOnUse">
			<stop  offset="0" style="stop-color:#2EA9E0"/>
			<stop  offset="0.23" style="stop-color:#227DA5"/>
			<stop  offset="0.61" style="stop-color:#103A4D"/>
			<stop  offset="0.87" style="stop-color:#041016"/>
			<stop  offset="1" style="stop-color:#000000"/>
		</radialGradient>
		<circle class="st34" cx="174.6" cy="86.2" r="5.1"/>
		
			<radialGradient id="SVGID_34_" cx="175.93" cy="47.03" r="3.62" gradientTransform="matrix(1 0 0 -1 -1.35 133.23)" gradientUnits="userSpaceOnUse">
			<stop  offset="0" style="stop-color:#2EA9E0"/>
			<stop  offset="0.23" style="stop-color:#227DA5"/>
			<stop  offset="0.61" style="stop-color:#103A4D"/>
			<stop  offset="0.87" style="stop-color:#041016"/>
			<stop  offset="1" style="stop-color:#000000"/>
		</radialGradient>
		<path class="st35" d="M177.4,86.2c0,1.6-1.2,2.8-2.8,2.8s-2.8-1.2-2.8-2.8s1.2-2.8,2.8-2.8c0,0,0,0,0,0
			C176.1,83.4,177.4,84.7,177.4,86.2L177.4,86.2z"/>
		
			<radialGradient id="SVGID_35_" cx="156.36" cy="30.33" r="2.57" gradientTransform="matrix(1 0 0 -1 -1.35 133.23)" gradientUnits="userSpaceOnUse">
			<stop  offset="0" style="stop-color:#2EA9E0"/>
			<stop  offset="0.23" style="stop-color:#227DA5"/>
			<stop  offset="0.61" style="stop-color:#103A4D"/>
			<stop  offset="0.87" style="stop-color:#041016"/>
			<stop  offset="1" style="stop-color:#000000"/>
		</radialGradient>
		<path class="st36" d="M157.3,102.9c0,1.3-1,2.3-2.3,2.3s-2.3-1-2.3-2.3c0-1.3,1-2.3,2.3-2.3h0
			C156.3,100.6,157.3,101.6,157.3,102.9z"/>
		
			<radialGradient id="SVGID_36_" cx="156.36" cy="30.33" r="1.63" gradientTransform="matrix(1 0 0 -1 -1.35 133.23)" gradientUnits="userSpaceOnUse">
			<stop  offset="0" style="stop-color:#2EA9E0"/>
			<stop  offset="0.23" style="stop-color:#227DA5"/>
			<stop  offset="0.61" style="stop-color:#103A4D"/>
			<stop  offset="0.87" style="stop-color:#041016"/>
			<stop  offset="1" style="stop-color:#000000"/>
		</radialGradient>
		<path class="st37" d="M156.3,102.9c0,0.7-0.6,1.3-1.3,1.3s-1.3-0.6-1.3-1.3s0.6-1.3,1.3-1.3c0,0,0,0,0,0
			C155.7,101.6,156.3,102.2,156.3,102.9z"/>
		
			<radialGradient id="SVGID_37_" cx="140.33" cy="87.44" r="2.57" gradientTransform="matrix(1 0 0 -1 0 192)" gradientUnits="userSpaceOnUse">
			<stop  offset="0" style="stop-color:#2EA9E0"/>
			<stop  offset="0.23" style="stop-color:#227DA5"/>
			<stop  offset="0.61" style="stop-color:#103A4D"/>
			<stop  offset="0.87" style="stop-color:#041016"/>
			<stop  offset="1" style="stop-color:#000000"/>
		</radialGradient>
		<circle class="st38" cx="140.3" cy="104.6" r="2.3"/>
		
			<radialGradient id="SVGID_38_" cx="140.33" cy="87.44" r="1.63" gradientTransform="matrix(1 0 0 -1 0 192)" gradientUnits="userSpaceOnUse">
			<stop  offset="0" style="stop-color:#2EA9E0"/>
			<stop  offset="0.23" style="stop-color:#227DA5"/>
			<stop  offset="0.61" style="stop-color:#103A4D"/>
			<stop  offset="0.87" style="stop-color:#041016"/>
			<stop  offset="1" style="stop-color:#000000"/>
		</radialGradient>
		<circle class="st39" cx="140.3" cy="104.6" r="1.3"/>
		
			<radialGradient id="SVGID_39_" cx="172.62" cy="116.81" r="2.57" gradientTransform="matrix(1 0 0 -1 0 192)" gradientUnits="userSpaceOnUse">
			<stop  offset="0" style="stop-color:#2EA9E0"/>
			<stop  offset="0.23" style="stop-color:#227DA5"/>
			<stop  offset="0.61" style="stop-color:#103A4D"/>
			<stop  offset="0.87" style="stop-color:#041016"/>
			<stop  offset="1" style="stop-color:#000000"/>
		</radialGradient>
		<circle class="st40" cx="172.6" cy="75.2" r="2.3"/>
		
			<radialGradient id="SVGID_40_" cx="173.9706" cy="58.0403" r="1.6294" gradientTransform="matrix(1 0 0 -1 -1.35 133.23)" gradientUnits="userSpaceOnUse">
			<stop  offset="0" style="stop-color:#2EA9E0"/>
			<stop  offset="0.23" style="stop-color:#227DA5"/>
			<stop  offset="0.61" style="stop-color:#103A4D"/>
			<stop  offset="0.87" style="stop-color:#041016"/>
			<stop  offset="1" style="stop-color:#000000"/>
		</radialGradient>
		<path class="st41" d="M173.9,75.2c0,0.7-0.6,1.2-1.3,1.2s-1.2-0.6-1.2-1.3c0-0.7,0.6-1.2,1.3-1.2
			C173.3,73.9,173.9,74.5,173.9,75.2C173.9,75.2,173.9,75.2,173.9,75.2z"/>
		
			<radialGradient id="SVGID_41_" cx="130.06" cy="88.63" r="2.57" gradientTransform="matrix(1 0 0 -1 -1.35 133.23)" gradientUnits="userSpaceOnUse">
			<stop  offset="0" style="stop-color:#2EA9E0"/>
			<stop  offset="0.23" style="stop-color:#227DA5"/>
			<stop  offset="0.61" style="stop-color:#103A4D"/>
			<stop  offset="0.87" style="stop-color:#041016"/>
			<stop  offset="1" style="stop-color:#000000"/>
		</radialGradient>
		<path class="st42" d="M131,44.6c0,1.3-1,2.3-2.3,2.3c-1.3,0-2.3-1-2.3-2.3c0-1.3,1-2.3,2.3-2.3c0,0,0,0,0,0
			C130,42.3,131,43.3,131,44.6C131,44.6,131,44.6,131,44.6z"/>
		
			<radialGradient id="SVGID_42_" cx="130.06" cy="88.63" r="1.63" gradientTransform="matrix(1 0 0 -1 -1.35 133.23)" gradientUnits="userSpaceOnUse">
			<stop  offset="0" style="stop-color:#2EA9E0"/>
			<stop  offset="0.23" style="stop-color:#227DA5"/>
			<stop  offset="0.61" style="stop-color:#103A4D"/>
			<stop  offset="0.87" style="stop-color:#041016"/>
			<stop  offset="1" style="stop-color:#000000"/>
		</radialGradient>
		<path class="st43" d="M130,44.6c0,0.7-0.6,1.3-1.3,1.3s-1.3-0.6-1.3-1.3c0-0.7,0.6-1.3,1.3-1.3c0,0,0,0,0,0
			C129.4,43.3,130,43.9,130,44.6z"/>
		
			<radialGradient id="SVGID_43_" cx="140.32" cy="96.13" r="2.57" gradientTransform="matrix(1 0 0 -1 -1.35 133.23)" gradientUnits="userSpaceOnUse">
			<stop  offset="0" style="stop-color:#2EA9E0"/>
			<stop  offset="0.23" style="stop-color:#227DA5"/>
			<stop  offset="0.61" style="stop-color:#103A4D"/>
			<stop  offset="0.87" style="stop-color:#041016"/>
			<stop  offset="1" style="stop-color:#000000"/>
		</radialGradient>
		<path class="st44" d="M141.2,37.1c0,1.3-1,2.3-2.3,2.3s-2.3-1-2.3-2.3s1-2.3,2.3-2.3c0,0,0,0,0,0
			C140.2,34.8,141.2,35.8,141.2,37.1z"/>
		
			<radialGradient id="SVGID_44_" cx="140.32" cy="96.13" r="1.63" gradientTransform="matrix(1 0 0 -1 -1.35 133.23)" gradientUnits="userSpaceOnUse">
			<stop  offset="0" style="stop-color:#2EA9E0"/>
			<stop  offset="0.23" style="stop-color:#227DA5"/>
			<stop  offset="0.61" style="stop-color:#103A4D"/>
			<stop  offset="0.87" style="stop-color:#041016"/>
			<stop  offset="1" style="stop-color:#000000"/>
		</radialGradient>
		<path class="st45" d="M140.2,37.1c0,0.7-0.6,1.3-1.3,1.3c-0.7,0-1.3-0.6-1.3-1.3c0-0.7,0.6-1.3,1.3-1.3l0,0
			C139.7,35.8,140.2,36.4,140.2,37.1z"/>
		
			<radialGradient id="SVGID_45_" cx="150.12" cy="161.17" r="2.57" gradientTransform="matrix(1 0 0 -1 0 192)" gradientUnits="userSpaceOnUse">
			<stop  offset="0" style="stop-color:#2EA9E0"/>
			<stop  offset="0.23" style="stop-color:#227DA5"/>
			<stop  offset="0.61" style="stop-color:#103A4D"/>
			<stop  offset="0.87" style="stop-color:#041016"/>
			<stop  offset="1" style="stop-color:#000000"/>
		</radialGradient>
		<circle class="st46" cx="150.1" cy="30.8" r="2.3"/>
		
			<radialGradient id="SVGID_46_" cx="150.12" cy="161.17" r="1.63" gradientTransform="matrix(1 0 0 -1 0 192)" gradientUnits="userSpaceOnUse">
			<stop  offset="0" style="stop-color:#2EA9E0"/>
			<stop  offset="0.23" style="stop-color:#227DA5"/>
			<stop  offset="0.61" style="stop-color:#103A4D"/>
			<stop  offset="0.87" style="stop-color:#041016"/>
			<stop  offset="1" style="stop-color:#000000"/>
		</radialGradient>
		<circle class="st47" cx="150.1" cy="30.8" r="1.3"/>
		
			<radialGradient id="SVGID_47_" cx="179.05" cy="128.02" r="2.57" gradientTransform="matrix(1 0 0 -1 0 192)" gradientUnits="userSpaceOnUse">
			<stop  offset="0" style="stop-color:#2EA9E0"/>
			<stop  offset="0.23" style="stop-color:#227DA5"/>
			<stop  offset="0.61" style="stop-color:#103A4D"/>
			<stop  offset="0.87" style="stop-color:#041016"/>
			<stop  offset="1" style="stop-color:#000000"/>
		</radialGradient>
		<circle class="st48" cx="179.1" cy="64" r="2.3"/>
		
			<radialGradient id="SVGID_48_" cx="179.05" cy="128.02" r="1.63" gradientTransform="matrix(1 0 0 -1 0 192)" gradientUnits="userSpaceOnUse">
			<stop  offset="0" style="stop-color:#2EA9E0"/>
			<stop  offset="0.23" style="stop-color:#227DA5"/>
			<stop  offset="0.61" style="stop-color:#103A4D"/>
			<stop  offset="0.87" style="stop-color:#041016"/>
			<stop  offset="1" style="stop-color:#000000"/>
		</radialGradient>
		<circle class="st49" cx="179.1" cy="64" r="1.3"/>
		
			<radialGradient id="SVGID_49_" cx="186.07" cy="51.34" r="2.57" gradientTransform="matrix(1 0 0 -1 -1.35 133.23)" gradientUnits="userSpaceOnUse">
			<stop  offset="0" style="stop-color:#2EA9E0"/>
			<stop  offset="0.23" style="stop-color:#227DA5"/>
			<stop  offset="0.61" style="stop-color:#103A4D"/>
			<stop  offset="0.87" style="stop-color:#041016"/>
			<stop  offset="1" style="stop-color:#000000"/>
		</radialGradient>
		<path class="st50" d="M187,81.9c0,1.3-1,2.3-2.3,2.3c-1.3,0-2.3-1-2.3-2.3s1-2.3,2.3-2.3c0,0,0,0,0,0C186,79.6,187,80.6,187,81.9
			C187,81.9,187,81.9,187,81.9z"/>
		
			<radialGradient id="SVGID_50_" cx="186.07" cy="51.34" r="1.63" gradientTransform="matrix(1 0 0 -1 -1.35 133.23)" gradientUnits="userSpaceOnUse">
			<stop  offset="0" style="stop-color:#2EA9E0"/>
			<stop  offset="0.23" style="stop-color:#227DA5"/>
			<stop  offset="0.61" style="stop-color:#103A4D"/>
			<stop  offset="0.87" style="stop-color:#041016"/>
			<stop  offset="1" style="stop-color:#000000"/>
		</radialGradient>
		<path class="st51" d="M186,81.9c0,0.7-0.6,1.3-1.2,1.3c-0.7,0-1.3-0.6-1.3-1.2c0-0.7,0.6-1.3,1.2-1.3c0,0,0,0,0,0
			C185.4,80.6,186,81.2,186,81.9C186,81.9,186,81.9,186,81.9z"/>
		
			<radialGradient id="SVGID_51_" cx="111.63" cy="119.66" r="2.57" gradientTransform="matrix(1 0 0 -1 0 192)" gradientUnits="userSpaceOnUse">
			<stop  offset="0" style="stop-color:#2EA9E0"/>
			<stop  offset="0.23" style="stop-color:#227DA5"/>
			<stop  offset="0.61" style="stop-color:#103A4D"/>
			<stop  offset="0.87" style="stop-color:#041016"/>
			<stop  offset="1" style="stop-color:#000000"/>
		</radialGradient>
		<circle class="st52" cx="111.6" cy="72.3" r="2.3"/>
		
			<radialGradient id="SVGID_52_" cx="112.98" cy="60.8879" r="1.6313" gradientTransform="matrix(1 0 0 -1 -1.35 133.23)" gradientUnits="userSpaceOnUse">
			<stop  offset="0" style="stop-color:#2EA9E0"/>
			<stop  offset="0.23" style="stop-color:#227DA5"/>
			<stop  offset="0.61" style="stop-color:#103A4D"/>
			<stop  offset="0.87" style="stop-color:#041016"/>
			<stop  offset="1" style="stop-color:#000000"/>
		</radialGradient>
		<path class="st53" d="M112.9,72.3c0,0.7-0.6,1.3-1.3,1.3s-1.3-0.6-1.3-1.3c0,0,0,0,0,0c0-0.7,0.6-1.3,1.3-1.3
			C112.3,71.1,112.9,71.6,112.9,72.3z"/>
		
			<radialGradient id="SVGID_53_" cx="105" cy="108.45" r="2.57" gradientTransform="matrix(1 0 0 -1 0 192)" gradientUnits="userSpaceOnUse">
			<stop  offset="0" style="stop-color:#2EA9E0"/>
			<stop  offset="0.23" style="stop-color:#227DA5"/>
			<stop  offset="0.61" style="stop-color:#103A4D"/>
			<stop  offset="0.87" style="stop-color:#041016"/>
			<stop  offset="1" style="stop-color:#000000"/>
		</radialGradient>
		<circle class="st54" cx="105" cy="83.6" r="2.3"/>
		
			<radialGradient id="SVGID_54_" cx="106.35" cy="49.68" r="1.63" gradientTransform="matrix(1 0 0 -1 -1.35 133.23)" gradientUnits="userSpaceOnUse">
			<stop  offset="0" style="stop-color:#2EA9E0"/>
			<stop  offset="0.23" style="stop-color:#227DA5"/>
			<stop  offset="0.61" style="stop-color:#103A4D"/>
			<stop  offset="0.87" style="stop-color:#041016"/>
			<stop  offset="1" style="stop-color:#000000"/>
		</radialGradient>
		<path class="st55" d="M106.3,83.6c0,0.7-0.6,1.3-1.3,1.3s-1.3-0.6-1.3-1.3c0-0.7,0.6-1.3,1.3-1.3l0,0
			C105.7,82.3,106.3,82.9,106.3,83.6z"/>
		
			<radialGradient id="SVGID_55_" cx="99.43" cy="126.38" r="2.57" gradientTransform="matrix(1 0 0 -1 0 192)" gradientUnits="userSpaceOnUse">
			<stop  offset="0" style="stop-color:#2EA9E0"/>
			<stop  offset="0.23" style="stop-color:#227DA5"/>
			<stop  offset="0.61" style="stop-color:#103A4D"/>
			<stop  offset="0.87" style="stop-color:#041016"/>
			<stop  offset="1" style="stop-color:#000000"/>
		</radialGradient>
		<circle class="st56" cx="99.4" cy="65.6" r="2.3"/>
		
			<radialGradient id="SVGID_56_" cx="99.43" cy="126.38" r="1.63" gradientTransform="matrix(1 0 0 -1 0 192)" gradientUnits="userSpaceOnUse">
			<stop  offset="0" style="stop-color:#2EA9E0"/>
			<stop  offset="0.23" style="stop-color:#227DA5"/>
			<stop  offset="0.61" style="stop-color:#103A4D"/>
			<stop  offset="0.87" style="stop-color:#041016"/>
			<stop  offset="1" style="stop-color:#000000"/>
		</radialGradient>
		<circle class="st57" cx="99.4" cy="65.6" r="1.3"/>
		
			<radialGradient id="SVGID_57_" cx="151.55" cy="81.01" r="5.72" gradientTransform="matrix(1 0 0 -1 0 192)" gradientUnits="userSpaceOnUse">
			<stop  offset="0" style="stop-color:#2EA9E0"/>
			<stop  offset="0.23" style="stop-color:#227DA5"/>
			<stop  offset="0.61" style="stop-color:#103A4D"/>
			<stop  offset="0.87" style="stop-color:#041016"/>
			<stop  offset="1" style="stop-color:#000000"/>
		</radialGradient>
		<circle class="st58" cx="151.6" cy="111" r="5.1"/>
		
			<radialGradient id="SVGID_58_" cx="152.89" cy="22.24" r="3.62" gradientTransform="matrix(1 0 0 -1 -1.35 133.23)" gradientUnits="userSpaceOnUse">
			<stop  offset="0" style="stop-color:#2EA9E0"/>
			<stop  offset="0.23" style="stop-color:#227DA5"/>
			<stop  offset="0.61" style="stop-color:#103A4D"/>
			<stop  offset="0.87" style="stop-color:#041016"/>
			<stop  offset="1" style="stop-color:#000000"/>
		</radialGradient>
		<path class="st59" d="M154.3,111c0,1.6-1.2,2.8-2.8,2.8s-2.8-1.2-2.8-2.8s1.2-2.8,2.8-2.8c0,0,0,0,0,0
			C153.1,108.2,154.3,109.4,154.3,111C154.3,111,154.3,111,154.3,111z"/>
		
			<radialGradient id="SVGID_59_" cx="129.32" cy="85.09" r="5.72" gradientTransform="matrix(1 0 0 -1 0 192)" gradientUnits="userSpaceOnUse">
			<stop  offset="0" style="stop-color:#2EA9E0"/>
			<stop  offset="0.23" style="stop-color:#227DA5"/>
			<stop  offset="0.61" style="stop-color:#103A4D"/>
			<stop  offset="0.87" style="stop-color:#041016"/>
			<stop  offset="1" style="stop-color:#000000"/>
		</radialGradient>
		<circle class="st60" cx="129.3" cy="106.9" r="5.1"/>
		
			<radialGradient id="SVGID_60_" cx="129.32" cy="85.09" r="3.62" gradientTransform="matrix(1 0 0 -1 0 192)" gradientUnits="userSpaceOnUse">
			<stop  offset="0" style="stop-color:#2EA9E0"/>
			<stop  offset="0.23" style="stop-color:#227DA5"/>
			<stop  offset="0.61" style="stop-color:#103A4D"/>
			<stop  offset="0.87" style="stop-color:#041016"/>
			<stop  offset="1" style="stop-color:#000000"/>
		</radialGradient>
		<circle class="st61" cx="129.3" cy="106.9" r="2.8"/>
		
			<radialGradient id="SVGID_61_" cx="139.04" cy="72.26" r="5.72" gradientTransform="matrix(1 0 0 -1 0 192)" gradientUnits="userSpaceOnUse">
			<stop  offset="0" style="stop-color:#2EA9E0"/>
			<stop  offset="0.23" style="stop-color:#227DA5"/>
			<stop  offset="0.61" style="stop-color:#103A4D"/>
			<stop  offset="0.87" style="stop-color:#041016"/>
			<stop  offset="1" style="stop-color:#000000"/>
		</radialGradient>
		<circle class="st62" cx="139" cy="119.7" r="5.1"/>
		
			<radialGradient id="SVGID_62_" cx="140.39" cy="13.49" r="3.62" gradientTransform="matrix(1 0 0 -1 -1.35 133.23)" gradientUnits="userSpaceOnUse">
			<stop  offset="0" style="stop-color:#2EA9E0"/>
			<stop  offset="0.23" style="stop-color:#227DA5"/>
			<stop  offset="0.61" style="stop-color:#103A4D"/>
			<stop  offset="0.87" style="stop-color:#041016"/>
			<stop  offset="1" style="stop-color:#000000"/>
		</radialGradient>
		<path class="st63" d="M141.8,119.7c0,1.6-1.2,2.8-2.8,2.8s-2.8-1.2-2.8-2.8s1.2-2.8,2.8-2.8c0,0,0,0,0,0
			C140.6,116.9,141.8,118.2,141.8,119.7L141.8,119.7z"/>
		
			<radialGradient id="SVGID_63_" cx="132.34" cy="155.49" r="5.72" gradientTransform="matrix(1 0 0 -1 0 192)" gradientUnits="userSpaceOnUse">
			<stop  offset="0" style="stop-color:#2EA9E0"/>
			<stop  offset="0.23" style="stop-color:#227DA5"/>
			<stop  offset="0.61" style="stop-color:#103A4D"/>
			<stop  offset="0.87" style="stop-color:#041016"/>
			<stop  offset="1" style="stop-color:#000000"/>
		</radialGradient>
		<circle class="st64" cx="132.3" cy="36.5" r="5.1"/>
		
			<radialGradient id="SVGID_64_" cx="133.68" cy="96.72" r="3.62" gradientTransform="matrix(1 0 0 -1 -1.35 133.23)" gradientUnits="userSpaceOnUse">
			<stop  offset="0" style="stop-color:#2EA9E0"/>
			<stop  offset="0.23" style="stop-color:#227DA5"/>
			<stop  offset="0.61" style="stop-color:#103A4D"/>
			<stop  offset="0.87" style="stop-color:#041016"/>
			<stop  offset="1" style="stop-color:#000000"/>
		</radialGradient>
		<path class="st65" d="M135.1,36.5c0,1.6-1.3,2.8-2.8,2.8c-1.6,0-2.8-1.3-2.8-2.8c0-1.6,1.3-2.8,2.8-2.8l0,0
			C133.9,33.7,135.1,34.9,135.1,36.5C135.1,36.5,135.1,36.5,135.1,36.5z"/>
		<text transform="matrix(1 0 0 1 131.1709 77.48)" class="st66 st67 st68">COG</text>
	</g>
</g>
</svg>
