<?xml version="1.0" encoding="utf-8"?>
<!-- Generator: Adobe Illustrator 23.1.0, SVG Export Plug-In . SVG Version: 6.00 Build 0)  -->
<svg version="1.1" id="Layer_1" xmlns="http://www.w3.org/2000/svg" xmlns:xlink="http://www.w3.org/1999/xlink" x="0px" y="0px"
	 viewBox="0 0 181.7 40.3" style="enable-background:new 0 0 181.7 40.3;" xml:space="preserve">
<style type="text/css">
	.st0{fill:#474747;}
	.st1{font-family:'Arial-Black';}
	.st2{font-size:19.5165px;}
	.st3{fill:#5A5A5A;}
	.st4{fill:#444444;}
	.st5{fill:#FDBF00;}
	.st6{fill:#FF9F00;}
	.st7{fill:#FFD400;}
	.st8{fill:#6E6E6E;}
</style>
<text transform="matrix(1.1013 0 0 1 32.0498 30.5469)" class="st0 st1 st2">COGNITOMO</text>
<path class="st3" d="M26.6,18.8v6.5l-10.2,4.6L6.2,25.3v-6.5C6.2,18.8,26.6,18.8,26.6,18.8z"/>
<path class="st4" d="M26.6,18.8v6.5l-10.2,4.6V18.8C16.2,18.8,26.6,18.8,26.6,18.8z"/>
<path class="st5" d="M30.2,16v14.7h-1.9V17L30.2,16z"/>
<path class="st6" d="M30.2,16v14.7h-1V16.4L30.2,16z"/>
<path class="st7" d="M29.3,24.6l-2.9,2.9v6.9H32v-6.9L29.3,24.6z"/>
<path class="st5" d="M32.1,27.4v6.9h-2.9v-9.8L32.1,27.4z"/>
<path class="st8" d="M32.1,16l-15.7,8.4L0.5,16l15.7-8.5L32.1,16z"/>
<path class="st3" d="M32.1,16l-15.7,8.4V7.6L32.1,16z"/>
<path class="st7" d="M16.2,13.2c-2.1,0-3.6,1.2-3.6,2.9c0,1.7,1.5,2.9,3.6,2.9s3.6-1.2,3.6-2.9S18.3,13.2,16.2,13.2z"/>
<path class="st5" d="M20,16c0,1.5-1.5,2.9-3.6,2.9v-5.5C18.3,13.2,20,14.4,20,16z"/>
</svg>
