<?xml version="1.0" encoding="utf-8"?>
<!-- Generator: Adobe Illustrator 23.1.0, SVG Export Plug-In . SVG Version: 6.00 Build 0)  -->
<svg version="1.1" id="Layer_1" xmlns="http://www.w3.org/2000/svg" xmlns:xlink="http://www.w3.org/1999/xlink" x="0px" y="0px"
	 viewBox="0 0 261.3 58" style="enable-background:new 0 0 261.3 58;" xml:space="preserve">
<style type="text/css">
	.st0{fill:#474747;}
	.st1{font-family:'Arial-Black';}
	.st2{font-size:24.7747px;}
	.st3{fill:#E4F1F7;}
	.st4{fill:url(#SVGID_1_);}
	.st5{fill:url(#SVGID_2_);}
	.st6{fill:url(#SVGID_3_);}
	.st7{fill:url(#SVGID_4_);}
	.st8{fill:url(#SVGID_5_);}
	.st9{fill:url(#SVGID_6_);}
	.st10{fill:url(#SVGID_7_);}
	.st11{fill:url(#SVGID_8_);}
	.st12{fill:url(#SVGID_9_);}
	.st13{fill:url(#SVGID_10_);}
	.st14{fill:url(#SVGID_11_);}
	.st15{fill:url(#SVGID_12_);}
	.st16{fill:#00FFFF;}
	.st17{fill:url(#SVGID_13_);}
	.st18{fill:url(#SVGID_14_);}
	.st19{fill:url(#SVGID_15_);}
	.st20{fill:url(#SVGID_16_);}
	.st21{fill:url(#SVGID_17_);}
	.st22{fill:url(#SVGID_18_);}
	.st23{fill:url(#SVGID_19_);}
	.st24{fill:url(#SVGID_20_);}
	.st25{fill:url(#SVGID_21_);}
	.st26{fill:url(#SVGID_22_);}
	.st27{fill:url(#SVGID_23_);}
	.st28{fill:url(#SVGID_24_);}
	.st29{fill:url(#SVGID_25_);}
	.st30{fill:url(#SVGID_26_);}
	.st31{fill:url(#SVGID_27_);}
	.st32{fill:url(#SVGID_28_);}
	.st33{fill:url(#SVGID_29_);}
	.st34{fill:url(#SVGID_30_);}
	.st35{fill:url(#SVGID_31_);}
	.st36{fill:url(#SVGID_32_);}
	.st37{fill:url(#SVGID_33_);}
	.st38{fill:url(#SVGID_34_);}
	.st39{fill:url(#SVGID_35_);}
	.st40{fill:url(#SVGID_36_);}
	.st41{fill:url(#SVGID_37_);}
	.st42{fill:url(#SVGID_38_);}
	.st43{fill:url(#SVGID_39_);}
	.st44{fill:url(#SVGID_40_);}
	.st45{fill:url(#SVGID_41_);}
	.st46{fill:url(#SVGID_42_);}
	.st47{fill:url(#SVGID_43_);}
	.st48{fill:url(#SVGID_44_);}
	.st49{fill:url(#SVGID_45_);}
	.st50{fill:url(#SVGID_46_);}
	.st51{fill:url(#SVGID_47_);}
	.st52{fill:url(#SVGID_48_);}
	.st53{fill:url(#SVGID_49_);}
	.st54{fill:url(#SVGID_50_);}
	.st55{fill:url(#SVGID_51_);}
	.st56{fill:url(#SVGID_52_);}
	.st57{fill:url(#SVGID_53_);}
	.st58{fill:url(#SVGID_54_);}
	.st59{fill:url(#SVGID_55_);}
	.st60{fill:url(#SVGID_56_);}
	.st61{fill:url(#SVGID_57_);}
	.st62{fill:url(#SVGID_58_);}
	.st63{fill:url(#SVGID_59_);}
	.st64{fill:url(#SVGID_60_);}
	.st65{fill:url(#SVGID_61_);}
	.st66{fill:url(#SVGID_62_);}
	.st67{fill:url(#SVGID_63_);}
	.st68{fill:url(#SVGID_64_);}
	.st69{fill:#02C4BF;}
	.st70{font-family:'MyriadPro-Semibold';}
	.st71{font-size:3.0941px;}
</style>
<text transform="matrix(1.1013 0 0 1 69.0404 38.5805)" class="st0 st1 st2">COGNITOMO</text>
<g>
	<g>
		<path class="st3" d="M65.6,18.3c-0.3-1-0.5-1.9-0.9-2.9C60.3,4.2,48.6,1.2,37.6,2.2c-1.2,0.1-2.4,0.3-3.6,0.5
			C24.1,4.1,14,9.9,8.3,18.2c-3.4,4.9-5.2,11.2-3.9,17.2s5.6,10.1,10.9,12.6c0.8,0.4,1.7,0.8,2.6,1.1c11.6,4.2,26.5,4.5,36.9-2.9
			c1.1-0.8,2.1-1.6,3.1-2.6C64.5,37.2,67.8,27.4,65.6,18.3z"/>
		
			<linearGradient id="SVGID_1_" gradientUnits="userSpaceOnUse" x1="19.5132" y1="57.0423" x2="35.3679" y2="57.0423" gradientTransform="matrix(1 0 0 1 -1.35 -46.77)">
			<stop  offset="0" style="stop-color:#FC697D"/>
			<stop  offset="1" style="stop-color:#DC2276"/>
		</linearGradient>
		<path class="st4" d="M32.9,5.6c0.4-0.1,0.8-0.1,1.1-0.2c-2.2,1.6-4.2,3.4-6,5.4c-3.2,1.5-6.5,3-9.8,4.4c2.8-3.3,6.2-6.1,10-8
			C29.7,6.4,31.3,5.9,32.9,5.6z"/>
		
			<linearGradient id="SVGID_2_" gradientUnits="userSpaceOnUse" x1="3.884" y1="73.1204" x2="20.1547" y2="76.121" gradientTransform="matrix(1 0 0 1 -1.35 -46.77)">
			<stop  offset="0" style="stop-color:#FACF5C"/>
			<stop  offset="1" style="stop-color:#FC9173"/>
		</linearGradient>
		<path class="st5" d="M18.2,15.1c-2.3,2.7-4.1,5.8-5.4,9.2c-0.7,1.7-1.1,3.5-1.2,5.3c-0.3,4.5,0.7,9,2.8,13
			C10,41.2,6.4,38.1,4.2,34c-3.9-5.2-2.1-13.7,4.4-15.5C11.8,17.5,15,16.4,18.2,15.1z"/>
		<path class="st3" d="M53.5,43.6c-1.3,2.3-2.9,4.4-4.8,6.2c-0.6,0.5-1.1,1-1.7,1.5c-1.1,0.8-2.2,1.5-3.4,2.1c-2.5,1.3-5.2,2-8,2
			c-1.4,0-2.8-0.1-4.2-0.4c-7.3-1.3-13.5-6.1-16.8-12.4c0.4,0.1,0.8,0.3,1.2,0.3c2.3,0.6,4.7,1.2,7.1,1.6c3.6,2.7,8.5,4.1,13.1,4
			C41.9,48.4,48.1,46.6,53.5,43.6z"/>
		
			<linearGradient id="SVGID_3_" gradientUnits="userSpaceOnUse" x1="52.133" y1="62.9219" x2="64.6627" y2="84.6229" gradientTransform="matrix(1 0 0 1 -1.35 -46.77)">
			<stop  offset="0" style="stop-color:#FACF5C"/>
			<stop  offset="1" style="stop-color:#FC9173"/>
		</linearGradient>
		<path class="st6" d="M66,20.1c3.4,7.6-1.6,15.1-7.3,19.9c-1.6,1.3-3.4,2.6-5.2,3.6c1.7-3.2,2.8-6.7,3.2-10.2
			c3.1-5.1,4.5-11.1,4.1-17.1c-0.1-1.8-0.5-3.5-1-5.2C62.3,13.6,64.4,16.7,66,20.1z"/>
		
			<linearGradient id="SVGID_4_" gradientUnits="userSpaceOnUse" x1="51.2255" y1="49.6871" x2="51.2255" y2="80.0568" gradientTransform="matrix(1 0 0 1 -1.35 -46.77)">
			<stop  offset="0" style="stop-color:#445DEF"/>
			<stop  offset="0.33" style="stop-color:#4333EF"/>
			<stop  offset="1" style="stop-color:#4C008A"/>
		</linearGradient>
		<path class="st7" d="M60.8,16.2c0.5,6-0.9,12-4.1,17.1c0.3-2.7,0.3-5.5-0.2-8.2c-1.1-6.9-4.7-13.3-10.8-17.2
			c-1.2-0.8-2.5-1.4-3.8-1.8c-1-0.3-2-0.5-3-0.7c1-0.5,2-1,3-1.5c0.8-0.4,1.5-0.7,2.3-1.1c5.9,0.6,11.3,3.7,15.5,8
			C60.3,12.7,60.6,14.4,60.8,16.2z"/>
		
			<linearGradient id="SVGID_5_" gradientUnits="userSpaceOnUse" x1="49.8457" y1="47.2316" x2="57.2067" y2="59.9801" gradientTransform="matrix(1 0 0 1 -1.35 -46.77)">
			<stop  offset="0" style="stop-color:#FC697D"/>
			<stop  offset="1" style="stop-color:#DC2276"/>
		</linearGradient>
		<path class="st8" d="M59.4,9.8c0.1,0.4,0.3,0.8,0.4,1.2c-4.2-4.3-9.6-7.4-15.5-8c1.6-0.7,3.3-1.2,5-1.2
			C53.8,1.7,57.8,5.5,59.4,9.8z"/>
		
			<linearGradient id="SVGID_6_" gradientUnits="userSpaceOnUse" x1="27.8782" y1="58.4019" x2="46.303" y2="90.3155" gradientTransform="matrix(1 0 0 1 -1.35 -46.77)">
			<stop  offset="0" style="stop-color:#2EADFF"/>
			<stop  offset="0.23" style="stop-color:#2BA8FF"/>
			<stop  offset="0.49" style="stop-color:#219AFF"/>
			<stop  offset="0.78" style="stop-color:#1082FF"/>
			<stop  offset="1" style="stop-color:#006BFF"/>
		</linearGradient>
		<path class="st9" d="M56.5,25.1c0.4,2.7,0.5,5.4,0.2,8.2c-2.5,4.2-6.3,7.5-10.7,9.5c-7.3,3.3-15.5,3.1-23.3,1.7
			c-3-2.3-5.1-5.5-5.4-9.7c-0.2-1.9-0.1-3.8,0.4-5.6c2-6.9,5.6-13.2,10.4-18.5c3.7-1.8,7.3-3.6,10.9-5.4c1,0.1,2,0.4,3,0.7
			c1.3,0.4,2.6,1.1,3.8,1.8C51.7,11.8,55.3,18.2,56.5,25.1z"/>
		
			<linearGradient id="SVGID_7_" gradientUnits="userSpaceOnUse" x1="39.2085" y1="82.5571" x2="46.4656" y2="95.1264" gradientTransform="matrix(1 0 0 1 -1.35 -46.77)">
			<stop  offset="0" style="stop-color:#FC697D"/>
			<stop  offset="1" style="stop-color:#DC2276"/>
		</linearGradient>
		<path class="st10" d="M56.7,33.3c-0.4,3.6-1.5,7.1-3.2,10.2c-5.4,3.1-11.5,4.8-17.8,5c-4.5,0.1-9.4-1.2-13.1-4
			c7.8,1.4,16.1,1.5,23.3-1.7C50.4,40.8,54.1,37.5,56.7,33.3z"/>
		<path class="st3" d="M39.9,2.9c1.4-0.1,2.9-0.1,4.3,0c-0.8,0.3-1.6,0.7-2.3,1.1c-1,0.5-2,0.9-3,1.5c-0.4-0.1-0.9-0.1-1.3-0.1
			c-1.2-0.1-2.4-0.1-3.5,0.1c0.3-0.2,0.5-0.4,0.8-0.5C36.4,3.9,38.1,3.3,39.9,2.9z"/>
		
			<linearGradient id="SVGID_8_" gradientUnits="userSpaceOnUse" x1="33.7727" y1="53.0813" x2="35.0093" y2="55.225" gradientTransform="matrix(1 0 0 1 -1.35 -46.77)">
			<stop  offset="0" style="stop-color:#FACF5C"/>
			<stop  offset="1" style="stop-color:#FC9173"/>
		</linearGradient>
		<path class="st11" d="M37.6,5.3c0.4,0,0.9,0.1,1.3,0.1C35.3,7.2,31.6,9,28,10.8c1.8-2,3.9-3.8,6-5.4C35.2,5.2,36.4,5.2,37.6,5.3z"
			/>
		
			<linearGradient id="SVGID_9_" gradientUnits="userSpaceOnUse" x1="21.119" y1="57.5308" x2="21.119" y2="91.3058" gradientTransform="matrix(1 0 0 1 -1.35 -46.77)">
			<stop  offset="0" style="stop-color:#445DEF"/>
			<stop  offset="0.33" style="stop-color:#4333EF"/>
			<stop  offset="1" style="stop-color:#4C008A"/>
		</linearGradient>
		<path class="st12" d="M18.2,15.1c3.3-1.3,6.6-2.8,9.8-4.4c-4.8,5.3-8.4,11.6-10.4,18.5c-0.4,1.8-0.6,3.8-0.4,5.6
			c0.3,4.2,2.5,7.4,5.4,9.7c-2.4-0.4-4.8-1-7.1-1.6c-0.4-0.1-0.8-0.2-1.2-0.3c-2.1-4-3.1-8.5-2.8-13c0.1-1.8,0.5-3.6,1.2-5.3
			C14.1,21,15.9,17.9,18.2,15.1z"/>
		
			<radialGradient id="SVGID_10_" cx="43.1212" cy="69.111" r="10.3407" gradientTransform="matrix(1 0 0 1 -1.3434 -46.7663)" gradientUnits="userSpaceOnUse">
			<stop  offset="0" style="stop-color:#FFFFFF"/>
			<stop  offset="0.34" style="stop-color:#FCFDFC"/>
			<stop  offset="0.56" style="stop-color:#F4F4F4"/>
			<stop  offset="0.73" style="stop-color:#E5E6E5"/>
			<stop  offset="0.89" style="stop-color:#D1D3D1"/>
			<stop  offset="1" style="stop-color:#BDBFBD"/>
		</radialGradient>
		<circle class="st13" cx="41.8" cy="22.3" r="10.4"/>
		
			<radialGradient id="SVGID_11_" cx="43.1212" cy="69.111" r="9.2577" gradientTransform="matrix(1 0 0 1 -1.3434 -46.7663)" gradientUnits="userSpaceOnUse">
			<stop  offset="0" style="stop-color:#FFFFFF"/>
			<stop  offset="0.24" style="stop-color:#FBFBFB"/>
			<stop  offset="0.49" style="stop-color:#EEEEEE"/>
			<stop  offset="0.75" style="stop-color:#D8DAD8"/>
			<stop  offset="1" style="stop-color:#BDBFBD"/>
		</radialGradient>
		<circle class="st14" cx="41.8" cy="22.3" r="9.3"/>
		
			<radialGradient id="SVGID_12_" cx="43.1212" cy="69.0978" r="6.1196" gradientTransform="matrix(1 0 0 1 -1.3434 -46.7663)" gradientUnits="userSpaceOnUse">
			<stop  offset="0" style="stop-color:#FFFFFF"/>
			<stop  offset="0.46" style="stop-color:#FDFDFD"/>
			<stop  offset="0.64" style="stop-color:#F6F6F6"/>
			<stop  offset="0.78" style="stop-color:#EAEAEA"/>
			<stop  offset="0.89" style="stop-color:#D8DAD8"/>
			<stop  offset="0.98" style="stop-color:#C2C4C2"/>
			<stop  offset="1" style="stop-color:#BDBFBD"/>
		</radialGradient>
		<circle class="st15" cx="41.8" cy="22.3" r="6.1"/>
		<path class="st16" d="M44.8,19.2v6.2h-6.2v-6.2H44.8 M45,19h-6.6v6.7h6.7L45,19L45,19z"/>
		<rect x="39.5" y="18" class="st16" width="0.4" height="1.1"/>
		<rect x="41.1" y="18" class="st16" width="0.4" height="1.1"/>
		<rect x="42.8" y="18" class="st16" width="0.4" height="1.1"/>
		<rect x="44.4" y="18" class="st16" width="0.4" height="1.1"/>
		<rect x="40.3" y="18.4" class="st16" width="0.4" height="0.7"/>
		<rect x="38.6" y="18.4" class="st16" width="0.4" height="0.7"/>
		<rect x="41.9" y="18.4" class="st16" width="0.4" height="0.7"/>
		<rect x="43.6" y="18.4" class="st16" width="0.4" height="0.7"/>
		<rect x="43.6" y="25.6" class="st16" width="0.4" height="1.1"/>
		<rect x="41.9" y="25.6" class="st16" width="0.4" height="1.1"/>
		<rect x="40.3" y="25.6" class="st16" width="0.4" height="1.1"/>
		<rect x="38.6" y="25.6" class="st16" width="0.4" height="1.1"/>
		<rect x="42.8" y="25.6" class="st16" width="0.4" height="0.7"/>
		<rect x="44.4" y="25.6" class="st16" width="0.4" height="0.7"/>
		<rect x="41.1" y="25.6" class="st16" width="0.4" height="0.7"/>
		<rect x="39.5" y="25.6" class="st16" width="0.4" height="0.7"/>
		<rect x="44.9" y="20.1" class="st16" width="1.1" height="0.4"/>
		<rect x="44.9" y="21.7" class="st16" width="1.1" height="0.4"/>
		<rect x="44.9" y="23.3" class="st16" width="1.1" height="0.4"/>
		<rect x="44.9" y="25" class="st16" width="1.1" height="0.4"/>
		<rect x="44.9" y="20.9" class="st16" width="0.7" height="0.4"/>
		<rect x="44.9" y="19.2" class="st16" width="0.7" height="0.4"/>
		<rect x="44.9" y="22.5" class="st16" width="0.7" height="0.4"/>
		<rect x="44.9" y="24.2" class="st16" width="0.7" height="0.4"/>
		<rect x="37.4" y="24.2" class="st16" width="1.1" height="0.4"/>
		<rect x="37.4" y="22.5" class="st16" width="1.1" height="0.4"/>
		<rect x="37.4" y="20.9" class="st16" width="1.1" height="0.4"/>
		<rect x="37.4" y="19.2" class="st16" width="1.1" height="0.4"/>
		<rect x="37.8" y="23.3" class="st16" width="0.7" height="0.4"/>
		<rect x="37.8" y="25" class="st16" width="0.7" height="0.4"/>
		<rect x="37.8" y="21.7" class="st16" width="0.7" height="0.4"/>
		<rect x="37.8" y="20.1" class="st16" width="0.7" height="0.4"/>
		<polygon class="st16" points="38.9,18.4 38.8,18.4 38.8,17.6 38,16.8 38,14.4 38.1,14.4 38.1,16.7 38.9,17.5 		"/>
		<polygon class="st16" points="39.7,18.1 39.6,18.1 39.6,16.9 40,16.5 40,13 40.1,13 40.1,16.5 39.7,17 		"/>
		<polygon class="st16" points="40.1,15.3 39,14.2 39,12.2 39.1,12.2 39.1,14.2 40.1,15.2 		"/>
		<polygon class="st16" points="40.5,18.4 40.4,18.4 40.4,17.3 40.9,16.9 40.9,12.3 41,12.3 41,17 40.5,17.3 		"/>
		<polygon class="st16" points="41.4,18 41.2,18 41.2,17.2 41.6,16.8 41.6,10.8 41.7,10.8 41.7,16.8 41.4,17.2 		"/>
		<rect x="42.1" y="14" class="st16" width="0.1" height="4.4"/>
		<polygon class="st16" points="43,18 42.9,18 42.9,16.8 42.4,16.3 42.4,9.7 42.6,9.7 42.6,16.3 43,16.8 		"/>
		<polygon class="st16" points="43.8,18.4 43.7,18.4 43.7,16.4 43.2,15.9 43.2,12.5 43.3,12.5 43.3,15.8 43.8,16.3 		"/>
		<polygon class="st16" points="43.3,14.2 43.3,14.2 44,13.5 44,10.6 44.1,10.6 44.1,13.5 		"/>
		<polygon class="st16" points="44.6,18 44.5,18 44.5,15.7 45.2,15.1 45.2,13.4 45.3,13.4 45.3,15.1 44.6,15.8 		"/>
		<path class="st16" d="M42.7,9.5c0,0.1-0.1,0.2-0.2,0.2c-0.1,0-0.2-0.1-0.2-0.2c0-0.1,0.1-0.2,0.2-0.2l0,0
			C42.6,9.3,42.7,9.4,42.7,9.5z"/>
		<path class="st16" d="M41.1,12.1c0,0.1-0.1,0.2-0.2,0.2c-0.1,0-0.2-0.1-0.2-0.2s0.1-0.2,0.2-0.2C41,11.9,41.1,12,41.1,12.1
			L41.1,12.1z"/>
		<path class="st16" d="M42.4,13.7c0,0.1-0.1,0.2-0.2,0.2c-0.1,0-0.2-0.1-0.2-0.2l0,0c0-0.1,0.1-0.2,0.2-0.2S42.4,13.6,42.4,13.7z"
			/>
		<path class="st16" d="M40.3,12.9c0,0.1-0.1,0.2-0.2,0.2l0,0c-0.1,0-0.2-0.1-0.2-0.2c0-0.1,0.1-0.2,0.2-0.2
			C40.2,12.6,40.3,12.7,40.3,12.9L40.3,12.9z"/>
		<path class="st16" d="M39.2,11.9c0,0.1-0.1,0.2-0.2,0.2s-0.2-0.1-0.2-0.2c0-0.1,0.1-0.2,0.2-0.2C39.1,11.7,39.2,11.8,39.2,11.9
			L39.2,11.9z"/>
		<path class="st16" d="M38.3,14.2c0,0.1-0.1,0.2-0.3,0.2c-0.1,0-0.2-0.1-0.2-0.2c0-0.1,0.1-0.3,0.2-0.3
			C38.1,13.9,38.3,14,38.3,14.2C38.3,14.2,38.3,14.2,38.3,14.2z"/>
		<path class="st16" d="M41.9,10.6c0,0.1-0.1,0.2-0.2,0.2c-0.1,0-0.2-0.1-0.2-0.2s0.1-0.2,0.2-0.2C41.8,10.3,41.9,10.4,41.9,10.6
			L41.9,10.6z"/>
		<path class="st16" d="M44.2,10.3c0,0.1-0.1,0.2-0.2,0.2c-0.1,0-0.2-0.1-0.2-0.2l0,0c0-0.1,0.1-0.2,0.2-0.2
			C44.2,10.1,44.2,10.2,44.2,10.3z"/>
		<path class="st16" d="M43.5,12.3c0,0.1-0.1,0.2-0.2,0.2c-0.1,0-0.2-0.1-0.2-0.2s0.1-0.2,0.2-0.2C43.4,12.1,43.5,12.2,43.5,12.3
			L43.5,12.3z"/>
		<path class="st16" d="M45.4,13.2c0,0.1-0.1,0.2-0.2,0.2c-0.1,0-0.2-0.1-0.2-0.2c0-0.1,0.1-0.2,0.2-0.2l0,0
			C45.3,13,45.4,13,45.4,13.2z"/>
		<polygon class="st16" points="45.4,30.2 45.3,30.2 45.3,28 44.5,27.1 44.5,26.2 44.6,26.2 44.6,27.1 45.4,27.9 		"/>
		<polygon class="st16" points="43.4,31.6 43.3,31.6 43.3,28.1 43.7,27.7 43.7,26.6 43.8,26.6 43.8,27.8 43.4,28.2 		"/>
		<polygon class="st16" points="44.5,32.5 44.3,32.5 44.3,30.5 43.3,29.4 43.4,29.4 44.5,30.5 		"/>
		<polygon class="st16" points="42.6,32.4 42.5,32.4 42.5,27.7 42.9,27.3 42.9,26.3 43,26.3 43,27.3 42.6,27.8 		"/>
		<polygon class="st16" points="41.8,33.9 41.7,33.9 41.7,27.8 42.1,27.5 42.1,26.6 42.2,26.6 42.2,27.5 41.8,27.9 		"/>
		<rect x="41.2" y="26.3" class="st16" width="0.1" height="4.4"/>
		<polygon class="st16" points="41,35 40.9,35 40.9,28.3 40.4,27.9 40.4,26.6 40.5,26.6 40.5,27.8 41,28.3 		"/>
		<polygon class="st16" points="40.2,32.1 40.1,32.1 40.1,28.8 39.6,28.3 39.6,26.3 39.7,26.3 39.7,28.3 40.2,28.8 		"/>
		<polygon class="st16" points="39.5,34.1 39.3,34.1 39.3,31.1 40.1,30.4 40.2,30.5 39.5,31.2 		"/>
		<polygon class="st16" points="38.3,31.2 38.1,31.2 38.1,29.5 38.8,28.9 38.8,26.6 38.9,26.6 38.9,28.9 38.3,29.6 		"/>
		<path class="st16" d="M40.7,35.2c0-0.1,0.1-0.2,0.2-0.2l0,0c0.1,0,0.2,0.1,0.2,0.2c0,0.1-0.1,0.2-0.2,0.2
			C40.8,35.4,40.7,35.3,40.7,35.2z"/>
		<path class="st16" d="M42.3,32.6c0-0.1,0.1-0.2,0.2-0.2l0,0c0.1,0,0.2,0.1,0.2,0.2c0,0.1-0.1,0.2-0.2,0.2
			C42.4,32.8,42.3,32.7,42.3,32.6z"/>
		<path class="st16" d="M41.1,30.9c0-0.1,0.1-0.2,0.2-0.2c0.1,0,0.2,0.1,0.2,0.2c0,0.1-0.1,0.2-0.2,0.2S41.1,31,41.1,30.9L41.1,30.9
			z"/>
		<path class="st16" d="M43.1,31.8c0-0.1,0.1-0.2,0.2-0.2c0.1,0,0.2,0.1,0.2,0.2l0,0c0,0.1-0.1,0.2-0.2,0.2
			C43.2,32,43.1,31.9,43.1,31.8z"/>
		<path class="st16" d="M44.2,32.7c0-0.1,0.1-0.2,0.2-0.2c0.1,0,0.2,0.1,0.2,0.2l0,0c0,0.1-0.1,0.2-0.2,0.2
			C44.3,33,44.2,32.8,44.2,32.7z"/>
		<path class="st16" d="M45.2,30.5c0-0.1,0.1-0.2,0.2-0.2c0.1,0,0.2,0.1,0.2,0.2c0,0.1-0.1,0.2-0.2,0.2
			C45.3,30.7,45.2,30.6,45.2,30.5L45.2,30.5z"/>
		<path class="st16" d="M41.5,34.1c0-0.1,0.1-0.2,0.2-0.2c0.1,0,0.2,0.1,0.2,0.2l0,0c0,0.1-0.1,0.2-0.2,0.2
			C41.6,34.3,41.5,34.2,41.5,34.1z"/>
		<path class="st16" d="M39.2,34.3c0-0.1,0.1-0.2,0.2-0.2s0.2,0.1,0.2,0.2s-0.1,0.2-0.2,0.2C39.3,34.5,39.2,34.4,39.2,34.3
			L39.2,34.3z"/>
		<path class="st16" d="M39.9,32.3c0-0.1,0.1-0.2,0.2-0.2c0.1,0,0.2,0.1,0.2,0.2l0,0c0,0.1-0.1,0.2-0.2,0.2S39.9,32.4,39.9,32.3z"/>
		<path class="st16" d="M38,31.5c0-0.1,0.1-0.2,0.2-0.2l0,0c0.1,0,0.2,0.1,0.2,0.2s-0.1,0.2-0.2,0.2C38.1,31.7,38,31.6,38,31.5z"/>
		<polygon class="st16" points="46.5,19.5 45.6,19.5 45.6,19.4 46.4,19.4 47.3,18.6 49.6,18.6 49.6,18.7 47.3,18.7 		"/>
		<polygon class="st16" points="51,20.7 47.5,20.7 47.1,20.3 46,20.3 46,20.2 47.1,20.2 47.5,20.6 51,20.6 		"/>
		<polygon class="st16" points="48.8,20.7 48.7,20.7 49.8,19.6 51.9,19.6 51.9,19.7 49.9,19.7 		"/>
		<polygon class="st16" points="51.7,21.6 47.1,21.6 46.7,21.1 45.6,21.1 45.6,21.1 46.7,21.1 47.1,21.5 51.7,21.5 		"/>
		<polygon class="st16" points="53.3,22.3 47.2,22.3 46.8,22 46,22 46,21.8 46.9,21.8 47.2,22.2 53.3,22.2 		"/>
		<rect x="45.6" y="22.7" class="st16" width="4.4" height="0.1"/>
		<polygon class="st16" points="47.2,23.6 46,23.6 46,23.5 47.2,23.5 47.7,23 54.3,23 54.3,23.2 47.7,23.2 		"/>
		<polygon class="st16" points="47.7,24.4 45.6,24.4 45.6,24.3 47.6,24.3 48.1,23.8 51.5,23.8 51.5,23.9 48.2,23.9 		"/>
		<polygon class="st16" points="53.5,24.7 50.5,24.7 49.8,23.9 49.9,23.9 50.6,24.5 53.5,24.5 		"/>
		<polygon class="st16" points="50.6,25.9 48.9,25.9 48.3,25.2 46,25.2 46,25.1 48.3,25.1 49,25.8 50.6,25.8 		"/>
		<path class="st16" d="M54.5,23.3c-0.1,0-0.2-0.1-0.2-0.2l0,0c0-0.1,0.1-0.2,0.2-0.2c0.1,0,0.2,0.1,0.2,0.2
			C54.8,23.2,54.6,23.3,54.5,23.3z"/>
		<path class="st16" d="M51.9,21.7c-0.1,0-0.2-0.1-0.2-0.2l0,0c0-0.1,0.1-0.2,0.2-0.2c0.1,0,0.2,0.1,0.2,0.2
			C52.2,21.6,52,21.7,51.9,21.7z"/>
		<path class="st16" d="M50.3,23c-0.1,0-0.2-0.1-0.2-0.2c0-0.1,0.1-0.2,0.2-0.2c0.1,0,0.2,0.1,0.2,0.2C50.5,22.8,50.4,23,50.3,23
			L50.3,23z"/>
		<path class="st16" d="M51.2,20.9c-0.1,0-0.2-0.1-0.2-0.2c0-0.1,0.1-0.2,0.2-0.2c0.1,0,0.2,0.1,0.2,0.2
			C51.4,20.8,51.3,20.9,51.2,20.9L51.2,20.9z"/>
		<path class="st16" d="M52.1,19.8c-0.1,0-0.2-0.1-0.2-0.2c0-0.1,0.1-0.2,0.2-0.2l0,0c0.1,0,0.2,0.1,0.2,0.2
			C52.3,19.7,52.2,19.8,52.1,19.8z"/>
		<path class="st16" d="M49.8,18.9c-0.1,0-0.2-0.1-0.2-0.2c0-0.1,0.1-0.2,0.2-0.2l0,0c0.1,0,0.2,0.1,0.2,0.2
			C50.1,18.8,50,18.9,49.8,18.9z"/>
		<path class="st16" d="M53.5,22.5c-0.1,0-0.2-0.1-0.2-0.2c0-0.1,0.1-0.2,0.2-0.2c0.1,0,0.2,0.1,0.2,0.2l0,0
			C53.7,22.4,53.6,22.5,53.5,22.5z"/>
		<path class="st16" d="M53.7,24.8c-0.1,0-0.2-0.1-0.2-0.2s0.1-0.2,0.2-0.2s0.2,0.1,0.2,0.2C53.9,24.7,53.8,24.8,53.7,24.8
			L53.7,24.8z"/>
		<path class="st16" d="M51.7,24.1c-0.1,0-0.2-0.1-0.2-0.2c0-0.1,0.1-0.2,0.2-0.2l0,0c0.1,0,0.2,0.1,0.2,0.2
			C51.9,24,51.8,24.1,51.7,24.1z"/>
		<path class="st16" d="M50.8,26c-0.1,0-0.2-0.1-0.2-0.2l0,0c0-0.1,0.1-0.2,0.2-0.2s0.2,0.1,0.2,0.2C51.1,25.9,51,26,50.8,26z"/>
		<polygon class="st16" points="36.3,26.1 33.9,26.1 33.9,26 36.2,26 37.1,25.1 38,25.1 38,25.2 37.1,25.2 		"/>
		<polygon class="st16" points="37.6,24.5 36.4,24.5 36,24 32.6,24 32.6,24 36.1,24 36.5,24.4 37.6,24.4 		"/>
		<polygon class="st16" points="33.7,25.1 31.7,25.1 31.7,25 33.7,25 34.7,23.9 34.8,24 		"/>
		<polygon class="st16" points="37.9,23.6 36.8,23.6 36.4,23.2 31.8,23.2 31.8,23.1 36.5,23.1 36.9,23.5 37.9,23.5 		"/>
		<polygon class="st16" points="37.5,22.8 36.7,22.8 36.3,22.5 30.3,22.5 30.3,22.3 36.3,22.3 36.7,22.7 37.5,22.7 		"/>
		<rect x="33.5" y="21.9" class="st16" width="4.4" height="0.1"/>
		<polygon class="st16" points="35.9,21.6 29.2,21.6 29.2,21.5 35.8,21.5 36.3,21.1 37.6,21.1 37.6,21.2 36.3,21.2 		"/>
		<polygon class="st16" points="35.4,20.8 32.1,20.8 32.1,20.8 35.4,20.8 35.9,20.2 37.9,20.2 37.9,20.3 35.9,20.3 		"/>
		<polygon class="st16" points="33.7,20.8 33,20.1 30.1,20.1 30.1,20 33,20 33.8,20.7 		"/>
		<polygon class="st16" points="37.6,19.6 35.2,19.6 34.6,18.9 32.9,18.9 32.9,18.8 34.6,18.8 35.3,19.4 37.6,19.4 		"/>
		<path class="st16" d="M29,21.3c0.1,0,0.2,0.1,0.2,0.2l0,0c0,0.1-0.1,0.2-0.2,0.2c-0.1,0-0.2-0.1-0.2-0.2S28.9,21.3,29,21.3
			L29,21.3z"/>
		<path class="st16" d="M31.6,22.9c0.1,0,0.2,0.1,0.2,0.2l0,0c0,0.1-0.1,0.2-0.2,0.2c-0.1,0-0.2-0.1-0.2-0.2
			C31.4,23,31.5,22.9,31.6,22.9L31.6,22.9z"/>
		<path class="st16" d="M33.3,21.7c0.1,0,0.2,0.1,0.2,0.2s-0.1,0.2-0.2,0.2c-0.1,0-0.2-0.1-0.2-0.2C33,21.8,33.2,21.7,33.3,21.7
			L33.3,21.7z"/>
		<path class="st16" d="M32.4,23.8c0.1,0,0.2,0.1,0.2,0.2c0,0.1-0.1,0.2-0.2,0.2l0,0c-0.1,0-0.2-0.1-0.2-0.2
			C32.1,23.9,32.2,23.8,32.4,23.8z"/>
		<path class="st16" d="M31.4,24.8c0.1,0,0.2,0.1,0.2,0.2c0,0.1-0.1,0.2-0.2,0.2l0,0c-0.1,0-0.2-0.1-0.2-0.2
			C31.2,24.9,31.3,24.8,31.4,24.8z"/>
		<path class="st16" d="M33.7,25.8c0.1,0,0.2,0.1,0.2,0.2c0,0.1-0.1,0.2-0.2,0.2s-0.2-0.1-0.2-0.2C33.5,25.9,33.6,25.8,33.7,25.8
			L33.7,25.8z"/>
		<path class="st16" d="M30.1,22.2c0.1,0,0.2,0.1,0.2,0.2c0,0.1-0.1,0.2-0.2,0.2c-0.1,0-0.2-0.1-0.2-0.2
			C29.9,22.3,29.9,22.2,30.1,22.2z"/>
		<path class="st16" d="M29.9,19.8c0.1,0,0.2,0.1,0.2,0.2c0,0.1-0.1,0.2-0.2,0.2c-0.1,0-0.2-0.1-0.2-0.2S29.7,19.8,29.9,19.8z"/>
		<path class="st16" d="M31.8,20.6c0.1,0,0.2,0.1,0.2,0.2c0,0.1-0.1,0.2-0.2,0.2c-0.1,0-0.2-0.1-0.2-0.2
			C31.6,20.7,31.7,20.6,31.8,20.6z"/>
		<path class="st16" d="M32.7,18.6c0.1,0,0.2,0.1,0.2,0.2c0,0.1-0.1,0.2-0.2,0.2c-0.1,0-0.2-0.1-0.2-0.2
			C32.5,18.7,32.6,18.6,32.7,18.6z"/>
		
			<radialGradient id="SVGID_13_" cx="42.5175" cy="-2.5065" r="1.5966" gradientTransform="matrix(1 0 0 1 0 12)" gradientUnits="userSpaceOnUse">
			<stop  offset="0" style="stop-color:#2EA9E0"/>
			<stop  offset="0.23" style="stop-color:#227DA5"/>
			<stop  offset="0.61" style="stop-color:#103A4D"/>
			<stop  offset="0.87" style="stop-color:#041016"/>
			<stop  offset="1" style="stop-color:#000000"/>
		</radialGradient>
		<circle class="st17" cx="42.5" cy="9.5" r="1.4"/>
		
			<radialGradient id="SVGID_14_" cx="42.5175" cy="-2.5065" r="1.0105" gradientTransform="matrix(1 0 0 1 0 12)" gradientUnits="userSpaceOnUse">
			<stop  offset="0" style="stop-color:#2EA9E0"/>
			<stop  offset="0.23" style="stop-color:#227DA5"/>
			<stop  offset="0.61" style="stop-color:#103A4D"/>
			<stop  offset="0.87" style="stop-color:#041016"/>
			<stop  offset="1" style="stop-color:#000000"/>
		</radialGradient>
		<circle class="st18" cx="42.5" cy="9.5" r="0.8"/>
		
			<radialGradient id="SVGID_15_" cx="45.2111" cy="1.1836" r="1.5966" gradientTransform="matrix(1 0 0 1 0 12)" gradientUnits="userSpaceOnUse">
			<stop  offset="0" style="stop-color:#2EA9E0"/>
			<stop  offset="0.23" style="stop-color:#227DA5"/>
			<stop  offset="0.61" style="stop-color:#103A4D"/>
			<stop  offset="0.87" style="stop-color:#041016"/>
			<stop  offset="1" style="stop-color:#000000"/>
		</radialGradient>
		<circle class="st19" cx="45.2" cy="13.2" r="1.4"/>
		
			<radialGradient id="SVGID_16_" cx="45.2111" cy="1.1836" r="1.0105" gradientTransform="matrix(1 0 0 1 0 12)" gradientUnits="userSpaceOnUse">
			<stop  offset="0" style="stop-color:#2EA9E0"/>
			<stop  offset="0.23" style="stop-color:#227DA5"/>
			<stop  offset="0.61" style="stop-color:#103A4D"/>
			<stop  offset="0.87" style="stop-color:#041016"/>
			<stop  offset="1" style="stop-color:#000000"/>
		</radialGradient>
		<circle class="st20" cx="45.2" cy="13.2" r="0.8"/>
		
			<radialGradient id="SVGID_17_" cx="42.1909" cy="1.7558" r="1.5966" gradientTransform="matrix(1 0 0 1 0 12)" gradientUnits="userSpaceOnUse">
			<stop  offset="0" style="stop-color:#2EA9E0"/>
			<stop  offset="0.23" style="stop-color:#227DA5"/>
			<stop  offset="0.61" style="stop-color:#103A4D"/>
			<stop  offset="0.87" style="stop-color:#041016"/>
			<stop  offset="1" style="stop-color:#000000"/>
		</radialGradient>
		<circle class="st21" cx="42.2" cy="13.7" r="1.4"/>
		
			<radialGradient id="SVGID_18_" cx="43.5381" cy="60.5258" r="1.0105" gradientTransform="matrix(1 0 0 1 -1.35 -46.77)" gradientUnits="userSpaceOnUse">
			<stop  offset="0" style="stop-color:#2EA9E0"/>
			<stop  offset="0.23" style="stop-color:#227DA5"/>
			<stop  offset="0.61" style="stop-color:#103A4D"/>
			<stop  offset="0.87" style="stop-color:#041016"/>
			<stop  offset="1" style="stop-color:#000000"/>
		</radialGradient>
		<path class="st22" d="M43,13.7c0,0.4-0.4,0.8-0.8,0.8c-0.4,0-0.8-0.4-0.8-0.8c0-0.4,0.4-0.8,0.8-0.8C42.6,13,43,13.3,43,13.7
			L43,13.7z"/>
		
			<radialGradient id="SVGID_19_" cx="49.8671" cy="6.6323" r="1.5982" gradientTransform="matrix(1 0 0 1 0 12)" gradientUnits="userSpaceOnUse">
			<stop  offset="0" style="stop-color:#2EA9E0"/>
			<stop  offset="0.23" style="stop-color:#227DA5"/>
			<stop  offset="0.61" style="stop-color:#103A4D"/>
			<stop  offset="0.87" style="stop-color:#041016"/>
			<stop  offset="1" style="stop-color:#000000"/>
		</radialGradient>
		<circle class="st23" cx="49.9" cy="18.6" r="1.4"/>
		
			<radialGradient id="SVGID_20_" cx="49.8671" cy="6.6351" r="1.0105" gradientTransform="matrix(1 0 0 1 0 12)" gradientUnits="userSpaceOnUse">
			<stop  offset="0" style="stop-color:#2EA9E0"/>
			<stop  offset="0.23" style="stop-color:#227DA5"/>
			<stop  offset="0.61" style="stop-color:#103A4D"/>
			<stop  offset="0.87" style="stop-color:#041016"/>
			<stop  offset="1" style="stop-color:#000000"/>
		</radialGradient>
		<circle class="st24" cx="49.9" cy="18.6" r="0.8"/>
		
			<radialGradient id="SVGID_21_" cx="29.0075" cy="9.633" r="1.5966" gradientTransform="matrix(1 0 0 1 0 12)" gradientUnits="userSpaceOnUse">
			<stop  offset="0" style="stop-color:#2EA9E0"/>
			<stop  offset="0.23" style="stop-color:#227DA5"/>
			<stop  offset="0.61" style="stop-color:#103A4D"/>
			<stop  offset="0.87" style="stop-color:#041016"/>
			<stop  offset="1" style="stop-color:#000000"/>
		</radialGradient>
		<circle class="st25" cx="29" cy="21.6" r="1.4"/>
		
			<radialGradient id="SVGID_22_" cx="29.0075" cy="9.633" r="1.0105" gradientTransform="matrix(1 0 0 1 0 12)" gradientUnits="userSpaceOnUse">
			<stop  offset="0" style="stop-color:#2EA9E0"/>
			<stop  offset="0.23" style="stop-color:#227DA5"/>
			<stop  offset="0.61" style="stop-color:#103A4D"/>
			<stop  offset="0.87" style="stop-color:#041016"/>
			<stop  offset="1" style="stop-color:#000000"/>
		</radialGradient>
		<circle class="st26" cx="29" cy="21.6" r="0.8"/>
		
			<radialGradient id="SVGID_23_" cx="33.7109" cy="14.0768" r="1.5951" gradientTransform="matrix(1 0 0 1 0 12)" gradientUnits="userSpaceOnUse">
			<stop  offset="0" style="stop-color:#2EA9E0"/>
			<stop  offset="0.23" style="stop-color:#227DA5"/>
			<stop  offset="0.61" style="stop-color:#103A4D"/>
			<stop  offset="0.87" style="stop-color:#041016"/>
			<stop  offset="1" style="stop-color:#000000"/>
		</radialGradient>
		<circle class="st27" cx="33.7" cy="26.1" r="1.4"/>
		
			<radialGradient id="SVGID_24_" cx="35.0581" cy="72.8468" r="1.0105" gradientTransform="matrix(1 0 0 1 -1.35 -46.77)" gradientUnits="userSpaceOnUse">
			<stop  offset="0" style="stop-color:#2EA9E0"/>
			<stop  offset="0.23" style="stop-color:#227DA5"/>
			<stop  offset="0.61" style="stop-color:#103A4D"/>
			<stop  offset="0.87" style="stop-color:#041016"/>
			<stop  offset="1" style="stop-color:#000000"/>
		</radialGradient>
		<path class="st28" d="M34.5,26.1c0,0.4-0.4,0.8-0.8,0.8s-0.8-0.4-0.8-0.8c0-0.4,0.4-0.8,0.8-0.8S34.5,25.6,34.5,26.1L34.5,26.1z"
			/>
		
			<radialGradient id="SVGID_25_" cx="31.6174" cy="11.171" r="1.5966" gradientTransform="matrix(1 0 0 1 0 12)" gradientUnits="userSpaceOnUse">
			<stop  offset="0" style="stop-color:#2EA9E0"/>
			<stop  offset="0.23" style="stop-color:#227DA5"/>
			<stop  offset="0.61" style="stop-color:#103A4D"/>
			<stop  offset="0.87" style="stop-color:#041016"/>
			<stop  offset="1" style="stop-color:#000000"/>
		</radialGradient>
		<circle class="st29" cx="31.6" cy="23.2" r="1.4"/>
		
			<radialGradient id="SVGID_26_" cx="31.6174" cy="11.171" r="1.0105" gradientTransform="matrix(1 0 0 1 0 12)" gradientUnits="userSpaceOnUse">
			<stop  offset="0" style="stop-color:#2EA9E0"/>
			<stop  offset="0.23" style="stop-color:#227DA5"/>
			<stop  offset="0.61" style="stop-color:#103A4D"/>
			<stop  offset="0.87" style="stop-color:#041016"/>
			<stop  offset="1" style="stop-color:#000000"/>
		</radialGradient>
		<circle class="st30" cx="31.6" cy="23.2" r="0.8"/>
		
			<radialGradient id="SVGID_27_" cx="32.7004" cy="6.864" r="1.5966" gradientTransform="matrix(1 0 0 1 0 12)" gradientUnits="userSpaceOnUse">
			<stop  offset="0" style="stop-color:#2EA9E0"/>
			<stop  offset="0.23" style="stop-color:#227DA5"/>
			<stop  offset="0.61" style="stop-color:#103A4D"/>
			<stop  offset="0.87" style="stop-color:#041016"/>
			<stop  offset="1" style="stop-color:#000000"/>
		</radialGradient>
		<circle class="st31" cx="32.7" cy="18.9" r="1.4"/>
		
			<radialGradient id="SVGID_28_" cx="34.0476" cy="65.634" r="1.0105" gradientTransform="matrix(1 0 0 1 -1.35 -46.77)" gradientUnits="userSpaceOnUse">
			<stop  offset="0" style="stop-color:#2EA9E0"/>
			<stop  offset="0.23" style="stop-color:#227DA5"/>
			<stop  offset="0.61" style="stop-color:#103A4D"/>
			<stop  offset="0.87" style="stop-color:#041016"/>
			<stop  offset="1" style="stop-color:#000000"/>
		</radialGradient>
		<path class="st32" d="M33.5,18.9c0,0.4-0.4,0.8-0.8,0.8c-0.4,0-0.8-0.4-0.8-0.8s0.4-0.8,0.8-0.8C33.1,18.1,33.5,18.4,33.5,18.9
			L33.5,18.9z"/>
		
			<radialGradient id="SVGID_29_" cx="51.9299" cy="9.499" r="1.5966" gradientTransform="matrix(1 0 0 1 0 12)" gradientUnits="userSpaceOnUse">
			<stop  offset="0" style="stop-color:#2EA9E0"/>
			<stop  offset="0.23" style="stop-color:#227DA5"/>
			<stop  offset="0.61" style="stop-color:#103A4D"/>
			<stop  offset="0.87" style="stop-color:#041016"/>
			<stop  offset="1" style="stop-color:#000000"/>
		</radialGradient>
		<circle class="st33" cx="51.9" cy="21.5" r="1.4"/>
		
			<radialGradient id="SVGID_30_" cx="53.2799" cy="68.269" r="1.0105" gradientTransform="matrix(1 0 0 1 -1.35 -46.77)" gradientUnits="userSpaceOnUse">
			<stop  offset="0" style="stop-color:#2EA9E0"/>
			<stop  offset="0.23" style="stop-color:#227DA5"/>
			<stop  offset="0.61" style="stop-color:#103A4D"/>
			<stop  offset="0.87" style="stop-color:#041016"/>
			<stop  offset="1" style="stop-color:#000000"/>
		</radialGradient>
		<path class="st34" d="M52.7,21.5c0,0.4-0.4,0.8-0.8,0.8c-0.4,0-0.8-0.4-0.8-0.8s0.4-0.8,0.8-0.8C52.4,20.7,52.7,21.1,52.7,21.5
			L52.7,21.5z"/>
		
			<radialGradient id="SVGID_31_" cx="54.5342" cy="11.1152" r="1.5966" gradientTransform="matrix(1 0 0 1 0 12)" gradientUnits="userSpaceOnUse">
			<stop  offset="0" style="stop-color:#2EA9E0"/>
			<stop  offset="0.23" style="stop-color:#227DA5"/>
			<stop  offset="0.61" style="stop-color:#103A4D"/>
			<stop  offset="0.87" style="stop-color:#041016"/>
			<stop  offset="1" style="stop-color:#000000"/>
		</radialGradient>
		<circle class="st35" cx="54.5" cy="23.1" r="1.4"/>
		
			<radialGradient id="SVGID_32_" cx="55.8842" cy="69.8852" r="1.0105" gradientTransform="matrix(1 0 0 1 -1.35 -46.77)" gradientUnits="userSpaceOnUse">
			<stop  offset="0" style="stop-color:#2EA9E0"/>
			<stop  offset="0.23" style="stop-color:#227DA5"/>
			<stop  offset="0.61" style="stop-color:#103A4D"/>
			<stop  offset="0.87" style="stop-color:#041016"/>
			<stop  offset="1" style="stop-color:#000000"/>
		</radialGradient>
		<path class="st36" d="M55.3,23.1c0,0.4-0.4,0.8-0.8,0.8s-0.8-0.4-0.8-0.8c0-0.4,0.4-0.8,0.8-0.8S55.3,22.7,55.3,23.1L55.3,23.1z"
			/>
		
			<radialGradient id="SVGID_33_" cx="50.844" cy="13.806" r="1.5966" gradientTransform="matrix(1 0 0 1 0 12)" gradientUnits="userSpaceOnUse">
			<stop  offset="0" style="stop-color:#2EA9E0"/>
			<stop  offset="0.23" style="stop-color:#227DA5"/>
			<stop  offset="0.61" style="stop-color:#103A4D"/>
			<stop  offset="0.87" style="stop-color:#041016"/>
			<stop  offset="1" style="stop-color:#000000"/>
		</radialGradient>
		<circle class="st37" cx="50.8" cy="25.8" r="1.4"/>
		
			<radialGradient id="SVGID_34_" cx="52.194" cy="72.576" r="1.0105" gradientTransform="matrix(1 0 0 1 -1.35 -46.77)" gradientUnits="userSpaceOnUse">
			<stop  offset="0" style="stop-color:#2EA9E0"/>
			<stop  offset="0.23" style="stop-color:#227DA5"/>
			<stop  offset="0.61" style="stop-color:#103A4D"/>
			<stop  offset="0.87" style="stop-color:#041016"/>
			<stop  offset="1" style="stop-color:#000000"/>
		</radialGradient>
		<path class="st38" d="M51.6,25.8c0,0.4-0.3,0.8-0.8,0.8c-0.4,0-0.8-0.3-0.8-0.8c0-0.4,0.3-0.8,0.8-0.8l0,0
			C51.3,25,51.6,25.4,51.6,25.8L51.6,25.8z"/>
		
			<radialGradient id="SVGID_35_" cx="46.7314" cy="77.2375" r="0.7174" gradientTransform="matrix(1 0 0 1 -1.35 -46.77)" gradientUnits="userSpaceOnUse">
			<stop  offset="0" style="stop-color:#2EA9E0"/>
			<stop  offset="0.23" style="stop-color:#227DA5"/>
			<stop  offset="0.61" style="stop-color:#103A4D"/>
			<stop  offset="0.87" style="stop-color:#041016"/>
			<stop  offset="1" style="stop-color:#000000"/>
		</radialGradient>
		<path class="st39" d="M46,30.5c0,0.4-0.3,0.6-0.6,0.6s-0.6-0.3-0.6-0.6s0.3-0.6,0.6-0.6l0,0C45.7,29.8,46,30.1,46,30.5z"/>
		
			<radialGradient id="SVGID_36_" cx="46.7314" cy="77.2375" r="0.455" gradientTransform="matrix(1 0 0 1 -1.35 -46.77)" gradientUnits="userSpaceOnUse">
			<stop  offset="0" style="stop-color:#2EA9E0"/>
			<stop  offset="0.23" style="stop-color:#227DA5"/>
			<stop  offset="0.61" style="stop-color:#103A4D"/>
			<stop  offset="0.87" style="stop-color:#041016"/>
			<stop  offset="1" style="stop-color:#000000"/>
		</radialGradient>
		<path class="st40" d="M45.7,30.5c0,0.2-0.2,0.4-0.4,0.4c-0.2,0-0.4-0.2-0.4-0.4s0.2-0.4,0.4-0.4l0,0
			C45.6,30.1,45.7,30.3,45.7,30.5z"/>
		
			<radialGradient id="SVGID_37_" cx="41.2837" cy="18.9309" r="0.7174" gradientTransform="matrix(1 0 0 1 0 12)" gradientUnits="userSpaceOnUse">
			<stop  offset="0" style="stop-color:#2EA9E0"/>
			<stop  offset="0.23" style="stop-color:#227DA5"/>
			<stop  offset="0.61" style="stop-color:#103A4D"/>
			<stop  offset="0.87" style="stop-color:#041016"/>
			<stop  offset="1" style="stop-color:#000000"/>
		</radialGradient>
		<circle class="st41" cx="41.3" cy="30.9" r="0.6"/>
		
			<radialGradient id="SVGID_38_" cx="41.2837" cy="18.9309" r="0.455" gradientTransform="matrix(1 0 0 1 0 12)" gradientUnits="userSpaceOnUse">
			<stop  offset="0" style="stop-color:#2EA9E0"/>
			<stop  offset="0.23" style="stop-color:#227DA5"/>
			<stop  offset="0.61" style="stop-color:#103A4D"/>
			<stop  offset="0.87" style="stop-color:#041016"/>
			<stop  offset="1" style="stop-color:#000000"/>
		</radialGradient>
		<circle class="st42" cx="41.3" cy="30.9" r="0.4"/>
		
			<radialGradient id="SVGID_39_" cx="50.2969" cy="10.7327" r="0.7174" gradientTransform="matrix(1 0 0 1 0 12)" gradientUnits="userSpaceOnUse">
			<stop  offset="0" style="stop-color:#2EA9E0"/>
			<stop  offset="0.23" style="stop-color:#227DA5"/>
			<stop  offset="0.61" style="stop-color:#103A4D"/>
			<stop  offset="0.87" style="stop-color:#041016"/>
			<stop  offset="1" style="stop-color:#000000"/>
		</radialGradient>
		<circle class="st43" cx="50.3" cy="22.7" r="0.6"/>
		
			<radialGradient id="SVGID_40_" cx="51.6471" cy="69.5027" r="0.4548" gradientTransform="matrix(1 0 0 1 -1.35 -46.77)" gradientUnits="userSpaceOnUse">
			<stop  offset="0" style="stop-color:#2EA9E0"/>
			<stop  offset="0.23" style="stop-color:#227DA5"/>
			<stop  offset="0.61" style="stop-color:#103A4D"/>
			<stop  offset="0.87" style="stop-color:#041016"/>
			<stop  offset="1" style="stop-color:#000000"/>
		</radialGradient>
		<path class="st44" d="M50.7,22.7c0,0.2-0.2,0.3-0.4,0.3c-0.2,0-0.3-0.2-0.3-0.4s0.2-0.3,0.4-0.3C50.5,22.4,50.7,22.5,50.7,22.7
			L50.7,22.7z"/>
		
			<radialGradient id="SVGID_41_" cx="39.3902" cy="60.9641" r="0.7174" gradientTransform="matrix(1 0 0 1 -1.35 -46.77)" gradientUnits="userSpaceOnUse">
			<stop  offset="0" style="stop-color:#2EA9E0"/>
			<stop  offset="0.23" style="stop-color:#227DA5"/>
			<stop  offset="0.61" style="stop-color:#103A4D"/>
			<stop  offset="0.87" style="stop-color:#041016"/>
			<stop  offset="1" style="stop-color:#000000"/>
		</radialGradient>
		<path class="st45" d="M38.7,14.2c0,0.4-0.3,0.6-0.6,0.6s-0.6-0.3-0.6-0.6s0.3-0.6,0.6-0.6l0,0C38.4,13.6,38.7,13.8,38.7,14.2
			L38.7,14.2z"/>
		
			<radialGradient id="SVGID_42_" cx="39.3902" cy="60.9641" r="0.455" gradientTransform="matrix(1 0 0 1 -1.35 -46.77)" gradientUnits="userSpaceOnUse">
			<stop  offset="0" style="stop-color:#2EA9E0"/>
			<stop  offset="0.23" style="stop-color:#227DA5"/>
			<stop  offset="0.61" style="stop-color:#103A4D"/>
			<stop  offset="0.87" style="stop-color:#041016"/>
			<stop  offset="1" style="stop-color:#000000"/>
		</radialGradient>
		<path class="st46" d="M38.4,14.2c0,0.2-0.2,0.4-0.4,0.4c-0.2,0-0.4-0.2-0.4-0.4c0-0.2,0.2-0.4,0.4-0.4l0,0
			C38.2,13.8,38.4,14,38.4,14.2z"/>
		
			<radialGradient id="SVGID_43_" cx="42.2541" cy="58.8706" r="0.7174" gradientTransform="matrix(1 0 0 1 -1.35 -46.77)" gradientUnits="userSpaceOnUse">
			<stop  offset="0" style="stop-color:#2EA9E0"/>
			<stop  offset="0.23" style="stop-color:#227DA5"/>
			<stop  offset="0.61" style="stop-color:#103A4D"/>
			<stop  offset="0.87" style="stop-color:#041016"/>
			<stop  offset="1" style="stop-color:#000000"/>
		</radialGradient>
		<path class="st47" d="M41.5,12.1c0,0.4-0.3,0.6-0.6,0.6s-0.6-0.3-0.6-0.6s0.3-0.6,0.6-0.6l0,0C41.2,11.5,41.5,11.7,41.5,12.1z"/>
		
			<radialGradient id="SVGID_44_" cx="42.2541" cy="58.8706" r="0.455" gradientTransform="matrix(1 0 0 1 -1.35 -46.77)" gradientUnits="userSpaceOnUse">
			<stop  offset="0" style="stop-color:#2EA9E0"/>
			<stop  offset="0.23" style="stop-color:#227DA5"/>
			<stop  offset="0.61" style="stop-color:#103A4D"/>
			<stop  offset="0.87" style="stop-color:#041016"/>
			<stop  offset="1" style="stop-color:#000000"/>
		</radialGradient>
		<path class="st48" d="M41.2,12.1c0,0.2-0.2,0.4-0.4,0.4s-0.4-0.2-0.4-0.4c0-0.2,0.2-0.4,0.4-0.4l0,0
			C41.1,11.7,41.2,11.9,41.2,12.1z"/>
		
			<radialGradient id="SVGID_45_" cx="44.0165" cy="-1.6496" r="0.7174" gradientTransform="matrix(1 0 0 1 0 12)" gradientUnits="userSpaceOnUse">
			<stop  offset="0" style="stop-color:#2EA9E0"/>
			<stop  offset="0.23" style="stop-color:#227DA5"/>
			<stop  offset="0.61" style="stop-color:#103A4D"/>
			<stop  offset="0.87" style="stop-color:#041016"/>
			<stop  offset="1" style="stop-color:#000000"/>
		</radialGradient>
		<circle class="st49" cx="44" cy="10.3" r="0.6"/>
		
			<radialGradient id="SVGID_46_" cx="44.0165" cy="-1.6496" r="0.455" gradientTransform="matrix(1 0 0 1 0 12)" gradientUnits="userSpaceOnUse">
			<stop  offset="0" style="stop-color:#2EA9E0"/>
			<stop  offset="0.23" style="stop-color:#227DA5"/>
			<stop  offset="0.61" style="stop-color:#103A4D"/>
			<stop  offset="0.87" style="stop-color:#041016"/>
			<stop  offset="1" style="stop-color:#000000"/>
		</radialGradient>
		<circle class="st50" cx="44" cy="10.3" r="0.4"/>
		
			<radialGradient id="SVGID_47_" cx="52.0918" cy="7.6037" r="0.7174" gradientTransform="matrix(1 0 0 1 0 12)" gradientUnits="userSpaceOnUse">
			<stop  offset="0" style="stop-color:#2EA9E0"/>
			<stop  offset="0.23" style="stop-color:#227DA5"/>
			<stop  offset="0.61" style="stop-color:#103A4D"/>
			<stop  offset="0.87" style="stop-color:#041016"/>
			<stop  offset="1" style="stop-color:#000000"/>
		</radialGradient>
		<circle class="st51" cx="52.1" cy="19.6" r="0.6"/>
		
			<radialGradient id="SVGID_48_" cx="52.0918" cy="7.6037" r="0.455" gradientTransform="matrix(1 0 0 1 0 12)" gradientUnits="userSpaceOnUse">
			<stop  offset="0" style="stop-color:#2EA9E0"/>
			<stop  offset="0.23" style="stop-color:#227DA5"/>
			<stop  offset="0.61" style="stop-color:#103A4D"/>
			<stop  offset="0.87" style="stop-color:#041016"/>
			<stop  offset="1" style="stop-color:#000000"/>
		</radialGradient>
		<circle class="st52" cx="52.1" cy="19.6" r="0.4"/>
		
			<radialGradient id="SVGID_49_" cx="55.0244" cy="71.3729" r="0.7174" gradientTransform="matrix(1 0 0 1 -1.35 -46.77)" gradientUnits="userSpaceOnUse">
			<stop  offset="0" style="stop-color:#2EA9E0"/>
			<stop  offset="0.23" style="stop-color:#227DA5"/>
			<stop  offset="0.61" style="stop-color:#103A4D"/>
			<stop  offset="0.87" style="stop-color:#041016"/>
			<stop  offset="1" style="stop-color:#000000"/>
		</radialGradient>
		<path class="st53" d="M54.3,24.6c0,0.4-0.3,0.6-0.6,0.6S53,25,53,24.6s0.3-0.6,0.6-0.6l0,0C54,24,54.3,24.2,54.3,24.6L54.3,24.6z"
			/>
		
			<radialGradient id="SVGID_50_" cx="55.0244" cy="71.3729" r="0.455" gradientTransform="matrix(1 0 0 1 -1.35 -46.77)" gradientUnits="userSpaceOnUse">
			<stop  offset="0" style="stop-color:#2EA9E0"/>
			<stop  offset="0.23" style="stop-color:#227DA5"/>
			<stop  offset="0.61" style="stop-color:#103A4D"/>
			<stop  offset="0.87" style="stop-color:#041016"/>
			<stop  offset="1" style="stop-color:#000000"/>
		</radialGradient>
		<path class="st54" d="M54,24.6c0,0.2-0.2,0.4-0.3,0.4c-0.2,0-0.4-0.2-0.4-0.3c0-0.2,0.2-0.4,0.3-0.4l0,0
			C53.9,24.2,54,24.4,54,24.6L54,24.6z"/>
		
			<radialGradient id="SVGID_51_" cx="33.2726" cy="9.9372" r="0.7174" gradientTransform="matrix(1 0 0 1 0 12)" gradientUnits="userSpaceOnUse">
			<stop  offset="0" style="stop-color:#2EA9E0"/>
			<stop  offset="0.23" style="stop-color:#227DA5"/>
			<stop  offset="0.61" style="stop-color:#103A4D"/>
			<stop  offset="0.87" style="stop-color:#041016"/>
			<stop  offset="1" style="stop-color:#000000"/>
		</radialGradient>
		<circle class="st55" cx="33.3" cy="21.9" r="0.6"/>
		
			<radialGradient id="SVGID_52_" cx="34.6226" cy="68.7078" r="0.4553" gradientTransform="matrix(1 0 0 1 -1.35 -46.77)" gradientUnits="userSpaceOnUse">
			<stop  offset="0" style="stop-color:#2EA9E0"/>
			<stop  offset="0.23" style="stop-color:#227DA5"/>
			<stop  offset="0.61" style="stop-color:#103A4D"/>
			<stop  offset="0.87" style="stop-color:#041016"/>
			<stop  offset="1" style="stop-color:#000000"/>
		</radialGradient>
		<path class="st56" d="M33.6,21.9c0,0.2-0.2,0.4-0.4,0.4c-0.2,0-0.4-0.2-0.4-0.4l0,0c0-0.2,0.2-0.4,0.4-0.4
			C33.5,21.6,33.6,21.7,33.6,21.9z"/>
		
			<radialGradient id="SVGID_53_" cx="31.422" cy="13.0663" r="0.7174" gradientTransform="matrix(1 0 0 1 0 12)" gradientUnits="userSpaceOnUse">
			<stop  offset="0" style="stop-color:#2EA9E0"/>
			<stop  offset="0.23" style="stop-color:#227DA5"/>
			<stop  offset="0.61" style="stop-color:#103A4D"/>
			<stop  offset="0.87" style="stop-color:#041016"/>
			<stop  offset="1" style="stop-color:#000000"/>
		</radialGradient>
		<circle class="st57" cx="31.4" cy="25.1" r="0.6"/>
		
			<radialGradient id="SVGID_54_" cx="32.772" cy="71.8363" r="0.455" gradientTransform="matrix(1 0 0 1 -1.35 -46.77)" gradientUnits="userSpaceOnUse">
			<stop  offset="0" style="stop-color:#2EA9E0"/>
			<stop  offset="0.23" style="stop-color:#227DA5"/>
			<stop  offset="0.61" style="stop-color:#103A4D"/>
			<stop  offset="0.87" style="stop-color:#041016"/>
			<stop  offset="1" style="stop-color:#000000"/>
		</radialGradient>
		<path class="st58" d="M31.8,25.1c0,0.2-0.2,0.4-0.4,0.4c-0.2,0-0.4-0.2-0.4-0.4s0.2-0.4,0.4-0.4l0,0
			C31.6,24.7,31.8,24.9,31.8,25.1z"/>
		
			<radialGradient id="SVGID_55_" cx="29.8672" cy="8.0614" r="0.7174" gradientTransform="matrix(1 0 0 1 0 12)" gradientUnits="userSpaceOnUse">
			<stop  offset="0" style="stop-color:#2EA9E0"/>
			<stop  offset="0.23" style="stop-color:#227DA5"/>
			<stop  offset="0.61" style="stop-color:#103A4D"/>
			<stop  offset="0.87" style="stop-color:#041016"/>
			<stop  offset="1" style="stop-color:#000000"/>
		</radialGradient>
		<circle class="st59" cx="29.9" cy="20.1" r="0.6"/>
		
			<radialGradient id="SVGID_56_" cx="29.8672" cy="8.0614" r="0.455" gradientTransform="matrix(1 0 0 1 0 12)" gradientUnits="userSpaceOnUse">
			<stop  offset="0" style="stop-color:#2EA9E0"/>
			<stop  offset="0.23" style="stop-color:#227DA5"/>
			<stop  offset="0.61" style="stop-color:#103A4D"/>
			<stop  offset="0.87" style="stop-color:#041016"/>
			<stop  offset="1" style="stop-color:#000000"/>
		</radialGradient>
		<circle class="st60" cx="29.9" cy="20.1" r="0.4"/>
		
			<radialGradient id="SVGID_57_" cx="44.4156" cy="20.7285" r="1.5951" gradientTransform="matrix(1 0 0 1 0 12)" gradientUnits="userSpaceOnUse">
			<stop  offset="0" style="stop-color:#2EA9E0"/>
			<stop  offset="0.23" style="stop-color:#227DA5"/>
			<stop  offset="0.61" style="stop-color:#103A4D"/>
			<stop  offset="0.87" style="stop-color:#041016"/>
			<stop  offset="1" style="stop-color:#000000"/>
		</radialGradient>
		<circle class="st61" cx="44.4" cy="32.7" r="1.4"/>
		
			<radialGradient id="SVGID_58_" cx="45.7628" cy="79.4957" r="1.0105" gradientTransform="matrix(1 0 0 1 -1.35 -46.77)" gradientUnits="userSpaceOnUse">
			<stop  offset="0" style="stop-color:#2EA9E0"/>
			<stop  offset="0.23" style="stop-color:#227DA5"/>
			<stop  offset="0.61" style="stop-color:#103A4D"/>
			<stop  offset="0.87" style="stop-color:#041016"/>
			<stop  offset="1" style="stop-color:#000000"/>
		</radialGradient>
		<path class="st62" d="M45.2,32.7c0,0.4-0.3,0.8-0.8,0.8c-0.4,0-0.8-0.3-0.8-0.8s0.3-0.8,0.8-0.8l0,0
			C44.8,31.9,45.2,32.3,45.2,32.7L45.2,32.7z"/>
		
			<radialGradient id="SVGID_59_" cx="38.2105" cy="19.584" r="1.5982" gradientTransform="matrix(1 0 0 1 0 12)" gradientUnits="userSpaceOnUse">
			<stop  offset="0" style="stop-color:#2EA9E0"/>
			<stop  offset="0.23" style="stop-color:#227DA5"/>
			<stop  offset="0.61" style="stop-color:#103A4D"/>
			<stop  offset="0.87" style="stop-color:#041016"/>
			<stop  offset="1" style="stop-color:#000000"/>
		</radialGradient>
		<circle class="st63" cx="38.2" cy="31.6" r="1.4"/>
		
			<radialGradient id="SVGID_60_" cx="38.2105" cy="19.5868" r="1.0105" gradientTransform="matrix(1 0 0 1 0 12)" gradientUnits="userSpaceOnUse">
			<stop  offset="0" style="stop-color:#2EA9E0"/>
			<stop  offset="0.23" style="stop-color:#227DA5"/>
			<stop  offset="0.61" style="stop-color:#103A4D"/>
			<stop  offset="0.87" style="stop-color:#041016"/>
			<stop  offset="1" style="stop-color:#000000"/>
		</radialGradient>
		<circle class="st64" cx="38.2" cy="31.6" r="0.8"/>
		
			<radialGradient id="SVGID_61_" cx="40.9237" cy="23.1681" r="1.5966" gradientTransform="matrix(1 0 0 1 0 12)" gradientUnits="userSpaceOnUse">
			<stop  offset="0" style="stop-color:#2EA9E0"/>
			<stop  offset="0.23" style="stop-color:#227DA5"/>
			<stop  offset="0.61" style="stop-color:#103A4D"/>
			<stop  offset="0.87" style="stop-color:#041016"/>
			<stop  offset="1" style="stop-color:#000000"/>
		</radialGradient>
		<circle class="st65" cx="40.9" cy="35.2" r="1.4"/>
		
			<radialGradient id="SVGID_62_" cx="42.2737" cy="81.9381" r="1.0105" gradientTransform="matrix(1 0 0 1 -1.35 -46.77)" gradientUnits="userSpaceOnUse">
			<stop  offset="0" style="stop-color:#2EA9E0"/>
			<stop  offset="0.23" style="stop-color:#227DA5"/>
			<stop  offset="0.61" style="stop-color:#103A4D"/>
			<stop  offset="0.87" style="stop-color:#041016"/>
			<stop  offset="1" style="stop-color:#000000"/>
		</radialGradient>
		<path class="st66" d="M41.7,35.2c0,0.4-0.3,0.8-0.8,0.8s-0.8-0.3-0.8-0.8s0.3-0.8,0.8-0.8l0,0C41.4,34.4,41.7,34.7,41.7,35.2
			L41.7,35.2z"/>
		
			<radialGradient id="SVGID_63_" cx="39.0535" cy="-6.689317e-02" r="1.5982" gradientTransform="matrix(1 0 0 1 0 12)" gradientUnits="userSpaceOnUse">
			<stop  offset="0" style="stop-color:#2EA9E0"/>
			<stop  offset="0.23" style="stop-color:#227DA5"/>
			<stop  offset="0.61" style="stop-color:#103A4D"/>
			<stop  offset="0.87" style="stop-color:#041016"/>
			<stop  offset="1" style="stop-color:#000000"/>
		</radialGradient>
		<circle class="st67" cx="39" cy="11.9" r="1.4"/>
		
			<radialGradient id="SVGID_64_" cx="40.4007" cy="58.7059" r="1.0105" gradientTransform="matrix(1 0 0 1 -1.35 -46.77)" gradientUnits="userSpaceOnUse">
			<stop  offset="0" style="stop-color:#2EA9E0"/>
			<stop  offset="0.23" style="stop-color:#227DA5"/>
			<stop  offset="0.61" style="stop-color:#103A4D"/>
			<stop  offset="0.87" style="stop-color:#041016"/>
			<stop  offset="1" style="stop-color:#000000"/>
		</radialGradient>
		<path class="st68" d="M39.8,11.9c0,0.4-0.4,0.8-0.8,0.8c-0.4,0-0.8-0.4-0.8-0.8c0-0.4,0.4-0.8,0.8-0.8l0,0
			C39.5,11.2,39.8,11.5,39.8,11.9L39.8,11.9z"/>
		<text transform="matrix(1 0 0 1 38.7268 23.3711)" class="st69 st70 st71">COG</text>
	</g>
</g>
</svg>
