<?xml version="1.0" encoding="utf-8"?>
<!-- Generator: Adobe Illustrator 23.1.0, SVG Export Plug-In . SVG Version: 6.00 Build 0)  -->
<svg version="1.1" id="Layer_1" xmlns="http://www.w3.org/2000/svg" xmlns:xlink="http://www.w3.org/1999/xlink" x="0px" y="0px"
	 viewBox="0 0 165.3 40.3" style="enable-background:new 0 0 165.3 40.3;" xml:space="preserve">
<style type="text/css">
	.st0{fill:#474747;}
	.st1{font-family:'Arial-Black';}
	.st2{font-size:17.1312px;}
	.st3{fill:#5A5A5A;}
	.st4{fill:#444444;}
	.st5{fill:#FDBF00;}
	.st6{fill:#FF9F00;}
	.st7{fill:#FFD400;}
	.st8{fill:#6E6E6E;}
</style>
<text transform="matrix(1.1013 0 0 1 32.8105 27.6816)" class="st0 st1 st2">COGNITOMO</text>
<path class="st3" d="M26.9,15.3v5.3l-8.4,3.8l-8.3-3.8v-5.3H26.9z"/>
<path class="st4" d="M26.9,15.3v5.3l-8.4,3.8v-9.1H26.9z"/>
<path class="st5" d="M29.9,13v12.1h-1.5V13.8L29.9,13z"/>
<path class="st6" d="M29.9,13v12.1h-0.8V13.4L29.9,13z"/>
<path class="st7" d="M29.2,20l-2.3,2.3V28h4.5v-5.7L29.2,20z"/>
<path class="st5" d="M31.4,22.3V28h-2.3V20L31.4,22.3z"/>
<path class="st8" d="M31.4,13l-12.9,6.8L5.6,13l12.9-6.9L31.4,13z"/>
<path class="st3" d="M31.4,13l-12.9,6.8V6.1L31.4,13z"/>
<path class="st7" d="M18.5,10.7c-1.7,0-3,1-3,2.3s1.3,2.3,3,2.3s3-1,3-2.3S20.2,10.7,18.5,10.7z"/>
<path class="st5" d="M21.5,13c0,1.3-1.3,2.3-3,2.3v-4.5C20.2,10.7,21.5,11.7,21.5,13z"/>
</svg>
