<?xml version="1.0" encoding="utf-8"?>
<!-- Generator: Adobe Illustrator 23.1.0, SVG Export Plug-In . SVG Version: 6.00 Build 0)  -->
<svg version="1.1" id="Layer_1" xmlns="http://www.w3.org/2000/svg" xmlns:xlink="http://www.w3.org/1999/xlink" x="0px" y="0px"
	 viewBox="0 0 237 318.6" style="enable-background:new 0 0 237 318.6;" xml:space="preserve">
<style type="text/css">
	.st0{opacity:0.35;fill:url(#SVGID_1_);}
	.st1{fill:#FFFFFF;}
	.st2{fill:url(#SVGID_2_);}
	.st3{fill:url(#SVGID_3_);}
	.st4{fill:url(#SVGID_4_);}
	.st5{fill:#272A45;}
	.st6{fill:#202338;}
	.st7{fill:#2F6B8C;}
	.st8{fill:#2273B5;}
	.st9{fill:#EEA886;}
	.st10{fill:#525252;}
	.st11{fill:#A77860;}
	.st12{fill:#C4B5AE;}
	.st13{fill:#EAD8CF;}
	.st14{fill:#181A2B;}
	.st15{fill:#8F8F8F;}
	.st16{fill:#F0F0F0;}
	.st17{fill:#CCCCCC;}
	.st18{fill:url(#SVGID_5_);}
	.st19{fill:#F5F7FF;}
	.st20{fill:url(#SVGID_6_);}
	.st21{fill:url(#SVGID_7_);}
	.st22{fill:#FAFAFA;}
	.st23{fill:#E8E8E8;}
	.st24{fill:#DA5E5E;}
	.st25{fill:url(#SVGID_8_);}
	.st26{fill:#E6E6E6;}
	.st27{fill:url(#SVGID_9_);}
	.st28{fill:#78C2FF;}
	.st29{fill:#D6D6D6;}
	.st30{fill:url(#SVGID_10_);}
	.st31{fill:url(#SVGID_11_);}
	.st32{fill:url(#SVGID_12_);}
	.st33{fill:url(#SVGID_13_);}
	.st34{fill:url(#SVGID_14_);}
	.st35{fill:url(#SVGID_15_);}
	.st36{fill:url(#SVGID_16_);}
	.st37{fill:url(#SVGID_17_);}
	.st38{fill:url(#SVGID_18_);}
	.st39{fill:url(#SVGID_19_);}
	.st40{fill:url(#SVGID_20_);}
	.st41{fill:url(#SVGID_21_);}
	.st42{fill:#C5CCD1;}
	.st43{fill:url(#SVGID_22_);}
	.st44{opacity:0.45;}
	.st45{fill:url(#SVGID_23_);}
	.st46{fill:url(#SVGID_24_);}
	.st47{fill:url(#SVGID_25_);}
	.st48{fill:#5080E8;}
	.st49{fill:#292C47;}
	.st50{fill:#3D416B;}
	.st51{fill:#CFBEB6;}
	.st52{fill:#23263D;}
	.st53{fill:#588DFF;}
	.st54{fill:#807066;}
	.st55{fill:#191B2B;}
	.st56{fill:#304E8C;}
	.st57{fill:#282B45;}
	.st58{fill:#EDDAD3;}
	.st59{fill:#1D3B54;}
	.st60{fill:#434343;}
	.st61{fill:#EEA987;}
	.st62{fill:#FFC055;}
	.st63{fill:#CF8C6C;}
	.st64{fill:#DB9C7C;}
	.st65{fill:#323657;}
</style>
<g>
	<linearGradient id="SVGID_1_" gradientUnits="userSpaceOnUse" x1="51.4721" y1="60.6349" x2="37.0556" y2="139.5824">
		<stop  offset="0" style="stop-color:#40D5E6"/>
		<stop  offset="1" style="stop-color:#5577FF"/>
	</linearGradient>
	<path class="st0" d="M69.6,109.2H21c-8.2,0-14.8-6.6-14.8-14.8l0,0c0-8.2,6.6-14.8,14.8-14.8h48.6c8.2,0,14.8,6.6,14.8,14.8l0,0
		C84.4,102.6,77.8,109.2,69.6,109.2z"/>
	<g>
		<path class="st1" d="M67.4,104.8c-5.5,0-10-4.5-10-10c0-5.5,4.5-10,10-10c5.5,0,10,4.5,10,10C77.4,100.3,72.9,104.8,67.4,104.8z
			 M67.4,86.8c-4.4,0-8,3.6-8,8c0,4.4,3.6,8,8,8c4.4,0,8-3.6,8-8C75.4,90.4,71.8,86.8,67.4,86.8z"/>
	</g>
	<linearGradient id="SVGID_2_" gradientUnits="userSpaceOnUse" x1="23.6233" y1="88.6168" x2="50.9464" y2="88.6168">
		<stop  offset="0" style="stop-color:#D5E4FF"/>
		<stop  offset="1" style="stop-color:#EDFFFE"/>
	</linearGradient>
	<rect x="23.6" y="87.4" class="st2" width="27.3" height="2.4"/>
	<linearGradient id="SVGID_3_" gradientUnits="userSpaceOnUse" x1="27.6539" y1="94.8061" x2="50.9464" y2="94.8061">
		<stop  offset="0" style="stop-color:#D5E4FF"/>
		<stop  offset="1" style="stop-color:#EDFFFE"/>
	</linearGradient>
	<rect x="27.7" y="93.6" class="st3" width="23.3" height="2.4"/>
	<linearGradient id="SVGID_4_" gradientUnits="userSpaceOnUse" x1="13.4923" y1="100.9955" x2="50.9464" y2="100.9955">
		<stop  offset="0" style="stop-color:#D5E4FF"/>
		<stop  offset="1" style="stop-color:#EDFFFE"/>
	</linearGradient>
	<rect x="13.5" y="99.8" class="st4" width="37.5" height="2.4"/>
</g>
<g>
	<g>
		<g>
			<path class="st5" d="M84.8,147.7c1.3-2.6,5.6-12.5,5.6-12.5l-5.5-0.8c0,0-2.2,5-3.2,8.5c-0.5,1.7-1.2,3.3-1.3,3.6
				c-0.2,0.3-7.2,5.6-7.9,6c-0.8,0.4-3.7,1.4-5.1,2.8c-1.4,1.4-0.7,3.4-0.7,3.4c3,3.8,8.5-1.1,8.5-1.1S82.9,151.3,84.8,147.7z"/>
		</g>
	</g>
	<g>
		<g>
			<path class="st6" d="M73.7,245c0,0,1.9,2,3.8,2.4c1.9,0.4,3.3,0.9,3.3,2.1c0,1.1-5.5,1.9-7.7,0.7c-3.3-1.7-3.6-1.2-4-2.1
				c-0.4-0.9,0.4-3.1,0.4-3.4C69.5,244.5,73.7,245,73.7,245z"/>
		</g>
	</g>
	<g>
		<g>
			<path class="st7" d="M73.5,244.1c0,0,0.2,0.9,0.2,0.9c0,0-4.3,0.5-4.2-0.2c0.1-0.6,0.3-1.3,0.3-1.3L73.5,244.1z"/>
		</g>
	</g>
	<g>
		<g>
			<path class="st6" d="M52.4,245.6c0,0,1.4,1.9,3.3,2.4c1.8,0.4,3,1.3,3.1,2.4c0.1,1.1-4.3,2.6-7.4,0.6c-2-1.3-2.8-1.2-3.2-2
				c-0.4-0.8,0.2-3.1,0.2-3.4C48.2,245.2,52.4,245.6,52.4,245.6z"/>
		</g>
	</g>
	<g>
		<g>
			<path class="st7" d="M52.3,244.6c0,0,0.1,0.9,0.1,1c0,0-4.1,0.7-4.1,0c0-0.6,0.3-1.3,0.3-1.3L52.3,244.6z"/>
		</g>
	</g>
	<g>
		<g>
			<path class="st8" d="M69.2,188.2c0,0,2,14.4,2.8,19.3c0.9,5.7,1.3,10.4,1.5,13.4c0.3,3.7,0.3,22.7,0.6,23.8
				c0.2,1.1-5.1,0.5-5.1,0.5s-3.4-24.8-4.4-28.7c-0.9-3.7-3.6-19.6-4.4-18.6c-0.8,1-3.4,19-4,21.9c-0.6,2.9-3.2,25.8-3.2,25.8
				s-4.3,1.2-5.4,0.3c0,0,0.4-20.7,0.8-26.1c0.2-2.1-1.3-24.8,2.2-34C52.4,180.9,69.2,188.2,69.2,188.2z"/>
		</g>
	</g>
	<g>
		<path class="st5" d="M63.4,153.7c0,0,5.3,1.1,5.9,1.6c0.7,0.6,1.9,6.3,1.9,7.9c0.1,1.6-0.6,8.3-1.3,10.8
			c-0.7,2.5-0.6,14.8-0.1,18.2c0,0-10.6,3-21,1.7c0,0,1.7-12.9,1.3-16.3c-0.5-4.4-1.8-14.5-1.8-14.5s0.9-7,1.8-7.8
			c0.9-0.8,7.3-1.6,7.3-1.6H63.4z"/>
	</g>
	<g>
		<path class="st9" d="M61.2,137.4c0,0,6.3-2.3,5.9,6.1c-0.4,8.4-1.9,9.3-6,8.1c-4.2-1.2-4.5-6.5-5-9
			C55.5,140,59.1,137.8,61.2,137.4z"/>
	</g>
	<g>
		<path class="st9" d="M64.2,154.8c0,0-1.3,0.9-6.2-1.3c0,0,0.1-3.4-0.8-6.5c-1-3.2,6.6,4.2,6.6,4.2c-0.1,0.1-0.1,0.4,0,0.8
			c0,0.4,0.1,0.8,0.2,1.3C64.2,154.3,64.2,153.9,64.2,154.8z"/>
	</g>
	<g>
		<path class="st10" d="M56.9,146.7c0,0,0-2.2,0.9-2.4c0.9-0.2,1.4,1.1,1.4,1.1l0.8,0c0,0-0.7-2.3,0.2-2.8c0.9-0.5,6.2-0.1,6.9-0.8
			c0.7-0.8,1.2-5.1-0.7-6.2c-1.3-0.8-6.5-0.9-9,1.4c0,0-2.2,0-2.3,1.8C55.1,140.4,56.2,145.5,56.9,146.7z"/>
	</g>
	<g>
		<path class="st11" d="M64,153.3c-4.9-0.8-5.6-3.6-5.6-3.7c1.9,2.5,5.4,2.3,5.4,2.3C63.8,152.3,63.8,152.8,64,153.3z"/>
	</g>
	<g>
		<path class="st9" d="M58.9,143.3c-0.3-0.7-1.9-0.6-1.7,0.5c0.2,1.2,1.5,3,2,2.6C59.7,146.1,59.3,144.3,58.9,143.3z"/>
	</g>
	<g>
		<path class="st5" d="M65.4,154.1c0,0,2.3,0.6,5.6-1.1c3.3-1.7-3.2,4.7-3.2,4.7L65.4,154.1z"/>
	</g>
	<g>
		<path class="st5" d="M78.1,155c0,0-7,8.1-7,10c0,1.9-1.3-5.8-1.3-5.8L78.1,155z"/>
	</g>
	<g>
		<path class="st12" d="M56,153.9c0,0,5.1,3.4,8.8,4.3c0.2,0,0-4.2,0-4.2S61.7,152.7,56,153.9z"/>
	</g>
	<g>
		<path class="st9" d="M59.5,153.3c0,0,2,1,3.6,1.1c0,0,0.8-0.3,0.9-1.2L59.5,153.3z"/>
	</g>
	<g>
		<path class="st13" d="M64,153.3c0,0-0.3,0.9-0.9,1.2l1.8,1.9l-0.2-2.4L64,153.3z"/>
	</g>
	<g>
		<path class="st5" d="M53,155c0,0,3.3,0.9,1.5,6.9c-1.4,4.7-1.6,5.7-1.6,5.7l-7.6-1.9c0,0,2.2-10.4,5.9-11
			C51.2,154.8,52.3,154.7,53,155z"/>
	</g>
	<g>
		<g>
			<g>
				<g>
					<g>
						<g>
							<path class="st9" d="M44.8,199.4c0,0-0.2-0.5-0.2-0.8c0,0,0-0.5,0.1-0.8c0-0.1,0-0.2,0-0.3c0-0.3-0.2-0.8,0-1.5
								c0.1-0.6,1.3-3.3,1.3-3.3l1.6,0.2l1.6,0c0,0,1.4,3.7,1.4,4.4c0,0.1,0,0.1,0,0.2c-0.1,0.5-0.4,0.9-0.4,1.1
								c0,0.1-0.4,1-0.7,1.2c-0.4,0.1-0.7,0.1-1-0.1c0,0-0.8,0.2-1.3,0c0,0-0.7,0.3-1.3-0.2C45.9,199.6,45.1,199.8,44.8,199.4z"/>
						</g>
					</g>
				</g>
			</g>
		</g>
	</g>
	<g>
		<path class="st5" d="M53.4,155.4c0.7,0.3,1.1,0.3,0.7,3.9c-0.2,1.4-0.9,5.8-1.4,6.6c-0.5,0.8-2.7,7.1-2.8,7.9
			c-0.2,1.2-0.3,9.9-0.3,10.3c0,1,0,9.3,0,9.3l-5.6,0.8c0,0-0.6-9.7-0.7-10.8c-0.3-2.7-0.3-8.2,0.2-11.1c0.6-3.4,2.6-10,2.9-10.5
			C46.7,161.3,48.9,153.6,53.4,155.4z"/>
	</g>
	<g>
		<path class="st14" d="M51.3,168.9c0,0-1.6,4.7-1.7,5.3c0,0.7-0.2,17.3-0.2,17.3S51.2,174.4,51.3,168.9z"/>
	</g>
	<g>
		<path class="st13" d="M58,152.5c0,0,2.6,1.6,5.1,1.9l-0.9,2.6l-4.8-3.4L58,152.5z"/>
	</g>
</g>
<g>
	
		<rect x="139.5" y="189.1" transform="matrix(-1 -1.224647e-16 1.224647e-16 -1 295.1853 427.4684)" class="st15" width="16.2" height="49.2"/>
</g>
<g>
	<path class="st16" d="M119.1,212.8h57c22.9,0,41.4-18.5,41.4-41.4v-15.8c0-22.9-18.5-41.4-41.4-41.4h-57
		c-22.9,0-41.4,18.5-41.4,41.4v15.8C77.7,194.3,96.2,212.8,119.1,212.8z"/>
</g>
<rect x="111.2" y="236.5" class="st17" width="72.8" height="3.7"/>
<g>
	
		<rect x="83.2" y="103.7" transform="matrix(-1 -1.224647e-16 1.224647e-16 -1 295.1855 301.0787)" class="st1" width="128.9" height="93.7"/>
</g>
<g>
	<linearGradient id="SVGID_5_" gradientUnits="userSpaceOnUse" x1="83.1588" y1="109.3582" x2="212.0266" y2="109.3582">
		<stop  offset="0" style="stop-color:#FF9F55"/>
		<stop  offset="1" style="stop-color:#FFD255"/>
	</linearGradient>
	<polygon class="st18" points="83.2,115 212,115 212,103.7 83.2,103.7 	"/>
</g>
<path class="st19" d="M104.8,111.5H90.7c-1.2,0-2.1-1-2.1-2.1l0,0c0-1.2,1-2.1,2.1-2.1h14.1c1.2,0,2.1,1,2.1,2.1l0,0
	C106.9,110.5,106,111.5,104.8,111.5z"/>
<g>
	<g>
		<rect x="83.2" y="103.7" class="st1" width="128.9" height="93.7"/>
	</g>
	<g>
		<g>
			<linearGradient id="SVGID_6_" gradientUnits="userSpaceOnUse" x1="147.5927" y1="96.7153" x2="147.5927" y2="124.2219">
				<stop  offset="0" style="stop-color:#8EC3F9"/>
				<stop  offset="1" style="stop-color:#B8EBFF"/>
			</linearGradient>
			<rect x="83.2" y="103.7" class="st20" width="128.9" height="10.5"/>
		</g>
		<g>
			<linearGradient id="SVGID_7_" gradientUnits="userSpaceOnUse" x1="156.0821" y1="103.3516" x2="156.0821" y2="125.1583">
				<stop  offset="0" style="stop-color:#8EC3F9"/>
				<stop  offset="1" style="stop-color:#B8EBFF"/>
			</linearGradient>
			<path class="st21" d="M212,115.3H106c-3.2,0-5.8-2.6-5.8-5.8v-1.1H212V115.3z"/>
		</g>
		<g>
			<path class="st1" d="M172.2,113.7h-67.7c-1.2,0-2.1-0.9-2.1-2.1l0,0c0-1.2,0.9-2.1,2.1-2.1h67.7c1.2,0,2.1,0.9,2.1,2.1l0,0
				C174.3,112.8,173.4,113.7,172.2,113.7z"/>
		</g>
		<g>
			<path class="st1" d="M207.7,113.7h-27.5c-1.2,0-2.1-0.9-2.1-2.1l0,0c0-1.2,0.9-2.1,2.1-2.1h27.5c1.2,0,2.1,0.9,2.1,2.1l0,0
				C209.8,112.8,208.8,113.7,207.7,113.7z"/>
		</g>
		<g>
			<g>
				<polygon class="st22" points="90.9,112.4 90.6,112.1 91.9,110.9 90.6,109.6 90.9,109.3 92.5,110.9 				"/>
			</g>
		</g>
		<g>
			<g>
				<polygon class="st22" points="87.4,112.4 85.8,110.8 87.4,109.3 87.7,109.6 86.4,110.8 87.7,112.1 				"/>
			</g>
		</g>
		<g>
			<path class="st22" d="M98.5,111.4l-0.7-1.1l-0.9,0.9l0.2,0.2l0.4-0.4c-0.1,0.8-0.8,1.4-1.5,1.4c-0.9,0-1.6-0.7-1.6-1.6
				c0-0.9,0.7-1.6,1.6-1.6V109c-1,0-1.9,0.9-1.9,1.9c0,1,0.9,1.9,1.9,1.9c1,0,1.7-0.7,1.9-1.7l0.3,0.5L98.5,111.4z"/>
		</g>
		<g>
			<path class="st22" d="M212,108.5h-10c-0.9,0-1.6-0.7-1.6-1.6v-0.6c0-0.9,0.7-1.6,1.6-1.6h10V108.5z"/>
		</g>
		<g>
			<g>
				<path class="st23" d="M204.7,106.6c0,0.6-0.5,1-1,1c-0.6,0-1-0.5-1-1c0-0.6,0.5-1,1-1C204.2,105.6,204.7,106,204.7,106.6z"/>
			</g>
			<g>
				<path class="st23" d="M207.2,106.6c0,0.6-0.5,1-1,1c-0.6,0-1-0.5-1-1c0-0.6,0.5-1,1-1C206.8,105.6,207.2,106,207.2,106.6z"/>
			</g>
			<g>
				<path class="st24" d="M209.8,106.6c0,0.6-0.5,1-1,1s-1-0.5-1-1c0-0.6,0.5-1,1-1S209.8,106,209.8,106.6z"/>
			</g>
		</g>
		<g>
			<linearGradient id="SVGID_8_" gradientUnits="userSpaceOnUse" x1="142.2266" y1="125.2172" x2="141.5416" y2="113.5724">
				<stop  offset="0" style="stop-color:#8EC3F9"/>
				<stop  offset="1" style="stop-color:#B8EBFF"/>
			</linearGradient>
			<path class="st25" d="M195.5,107.6H86.4c-1.8,0-3.3-1.5-3.3-3.3v-0.6h115.6v0.6C198.8,106.1,197.3,107.6,195.5,107.6z"/>
		</g>
	</g>
</g>
<g>
	<g>
		<rect x="151.4" y="124.3" class="st26" width="27" height="2.7"/>
		<rect x="151.4" y="129.1" class="st26" width="48.6" height="2.7"/>
		<linearGradient id="SVGID_9_" gradientUnits="userSpaceOnUse" x1="148.7566" y1="118.852" x2="148.4133" y2="134.0692">
			<stop  offset="0" style="stop-color:#FF9340"/>
			<stop  offset="1" style="stop-color:#FFCE45"/>
		</linearGradient>
		<rect x="147.6" y="124.3" class="st27" width="2" height="7.5"/>
	</g>
	<g>
		<rect x="151.4" y="140.6" class="st26" width="34.6" height="2.7"/>
		<rect x="151.4" y="145.4" class="st26" width="42.2" height="2.7"/>
		<rect x="147.6" y="140.6" class="st28" width="2" height="7.5"/>
	</g>
	<g>
		<rect x="151.4" y="155.9" class="st26" width="20.2" height="2.7"/>
		<rect x="151.4" y="160.7" class="st26" width="47" height="2.7"/>
		<rect x="147.6" y="155.9" class="st28" width="2" height="7.5"/>
	</g>
</g>
<g>
	<rect x="96.2" y="187.3" class="st29" width="5.3" height="0.7"/>
	<rect x="94.9" y="186.2" class="st29" width="7.9" height="0.7"/>
	<linearGradient id="SVGID_10_" gradientUnits="userSpaceOnUse" x1="98.8525" y1="173.6335" x2="98.8525" y2="188.2455">
		<stop  offset="0" style="stop-color:#40D5E6"/>
		<stop  offset="1" style="stop-color:#5577FF"/>
	</linearGradient>
	<path class="st30" d="M100.2,177.2c0,0.8-0.6,1.4-1.4,1.4c-0.8,0-1.4-0.6-1.4-1.4c0-0.8,0.6-1.4,1.4-1.4
		C99.6,175.9,100.2,176.5,100.2,177.2z"/>
	<linearGradient id="SVGID_11_" gradientUnits="userSpaceOnUse" x1="98.8405" y1="173.6332" x2="98.8405" y2="188.246">
		<stop  offset="0" style="stop-color:#40D5E6"/>
		<stop  offset="1" style="stop-color:#5577FF"/>
	</linearGradient>
	<path class="st31" d="M101.3,181.7v2.6c-0.8,0.3-1.6,0.5-2.5,0.5c-0.9,0-1.7-0.2-2.5-0.5v-2.6c0-1.4,1.1-2.5,2.5-2.5
		C100.2,179.2,101.3,180.3,101.3,181.7z"/>
	<g>
		<linearGradient id="SVGID_12_" gradientUnits="userSpaceOnUse" x1="98.8406" y1="174.5784" x2="98.8406" y2="187.3746">
			<stop  offset="0" style="stop-color:#D3DAE0"/>
			<stop  offset="1" style="stop-color:#FFFFFF"/>
		</linearGradient>
		<path class="st32" d="M98.8,185c-0.9,0-1.7-0.2-2.5-0.5c-2.2-1-3.6-3.2-3.6-5.6c0-3.4,2.8-6.1,6.1-6.1c3.4,0,6.1,2.8,6.1,6.1
			c0,2.4-1.4,4.6-3.6,5.6C100.6,184.8,99.7,185,98.8,185z M98.8,173c-3.2,0-5.8,2.6-5.8,5.8c0,2.3,1.3,4.4,3.4,5.3
			c0.8,0.3,1.6,0.5,2.4,0.5c0.8,0,1.7-0.2,2.4-0.5c2.1-0.9,3.4-3,3.4-5.3C104.7,175.6,102.1,173,98.8,173z"/>
	</g>
</g>
<g>
	<rect x="113.9" y="187.3" class="st29" width="5.3" height="0.7"/>
	<rect x="112.6" y="186.2" class="st29" width="7.9" height="0.7"/>
	<linearGradient id="SVGID_13_" gradientUnits="userSpaceOnUse" x1="116.5612" y1="173.6335" x2="116.5612" y2="188.2455">
		<stop  offset="0" style="stop-color:#40D5E6"/>
		<stop  offset="1" style="stop-color:#5577FF"/>
	</linearGradient>
	<path class="st33" d="M117.9,177.2c0,0.8-0.6,1.4-1.4,1.4c-0.8,0-1.4-0.6-1.4-1.4c0-0.8,0.6-1.4,1.4-1.4
		C117.3,175.9,117.9,176.5,117.9,177.2z"/>
	<linearGradient id="SVGID_14_" gradientUnits="userSpaceOnUse" x1="116.5492" y1="173.6332" x2="116.5492" y2="188.246">
		<stop  offset="0" style="stop-color:#40D5E6"/>
		<stop  offset="1" style="stop-color:#5577FF"/>
	</linearGradient>
	<path class="st34" d="M119,181.7v2.6c-0.8,0.3-1.6,0.5-2.5,0.5c-0.9,0-1.7-0.2-2.5-0.5v-2.6c0-1.4,1.1-2.5,2.5-2.5
		C117.9,179.2,119,180.3,119,181.7z"/>
	<g>
		<linearGradient id="SVGID_15_" gradientUnits="userSpaceOnUse" x1="116.5492" y1="174.5784" x2="116.5492" y2="187.3746">
			<stop  offset="0" style="stop-color:#D3DAE0"/>
			<stop  offset="1" style="stop-color:#FFFFFF"/>
		</linearGradient>
		<path class="st35" d="M116.5,185c-0.9,0-1.7-0.2-2.5-0.5c-2.2-1-3.6-3.2-3.6-5.6c0-3.4,2.8-6.1,6.1-6.1c3.4,0,6.1,2.8,6.1,6.1
			c0,2.4-1.4,4.6-3.6,5.6C118.3,184.8,117.4,185,116.5,185z M116.5,173c-3.2,0-5.8,2.6-5.8,5.8c0,2.3,1.3,4.4,3.4,5.3
			c0.8,0.3,1.6,0.5,2.4,0.5c0.8,0,1.7-0.2,2.4-0.5c2.1-0.9,3.4-3,3.4-5.3C122.4,175.6,119.8,173,116.5,173z"/>
	</g>
</g>
<g>
	<rect x="131.6" y="187.3" class="st29" width="5.3" height="0.7"/>
	<rect x="130.3" y="186.2" class="st29" width="7.9" height="0.7"/>
	<linearGradient id="SVGID_16_" gradientUnits="userSpaceOnUse" x1="134.2698" y1="173.6335" x2="134.2698" y2="188.2455">
		<stop  offset="0" style="stop-color:#40D5E6"/>
		<stop  offset="1" style="stop-color:#5577FF"/>
	</linearGradient>
	<path class="st36" d="M135.6,177.2c0,0.8-0.6,1.4-1.4,1.4c-0.8,0-1.4-0.6-1.4-1.4c0-0.8,0.6-1.4,1.4-1.4
		C135,175.9,135.6,176.5,135.6,177.2z"/>
	<linearGradient id="SVGID_17_" gradientUnits="userSpaceOnUse" x1="134.2579" y1="173.6332" x2="134.2579" y2="188.246">
		<stop  offset="0" style="stop-color:#40D5E6"/>
		<stop  offset="1" style="stop-color:#5577FF"/>
	</linearGradient>
	<path class="st37" d="M136.7,181.7v2.6c-0.8,0.3-1.6,0.5-2.5,0.5c-0.9,0-1.7-0.2-2.5-0.5v-2.6c0-1.4,1.1-2.5,2.5-2.5
		C135.6,179.2,136.7,180.3,136.7,181.7z"/>
	<g>
		<linearGradient id="SVGID_18_" gradientUnits="userSpaceOnUse" x1="134.2578" y1="174.5784" x2="134.2578" y2="187.3746">
			<stop  offset="0" style="stop-color:#D3DAE0"/>
			<stop  offset="1" style="stop-color:#FFFFFF"/>
		</linearGradient>
		<path class="st38" d="M134.3,185c-0.9,0-1.7-0.2-2.5-0.5c-2.2-1-3.6-3.2-3.6-5.6c0-3.4,2.8-6.1,6.1-6.1c3.4,0,6.1,2.8,6.1,6.1
			c0,2.4-1.4,4.6-3.6,5.6C136,184.8,135.1,185,134.3,185z M134.3,173c-3.2,0-5.8,2.6-5.8,5.8c0,2.3,1.3,4.4,3.4,5.3
			c0.8,0.3,1.6,0.5,2.4,0.5c0.8,0,1.7-0.2,2.4-0.5c2.1-0.9,3.4-3,3.4-5.3C140.1,175.6,137.5,173,134.3,173z"/>
	</g>
</g>
<g>
	<rect x="149.3" y="187.3" class="st29" width="5.3" height="0.7"/>
	<rect x="148" y="186.2" class="st29" width="7.9" height="0.7"/>
	<linearGradient id="SVGID_19_" gradientUnits="userSpaceOnUse" x1="151.9785" y1="173.6335" x2="151.9785" y2="188.2455">
		<stop  offset="0" style="stop-color:#40D5E6"/>
		<stop  offset="1" style="stop-color:#5577FF"/>
	</linearGradient>
	<path class="st39" d="M153.3,177.2c0,0.8-0.6,1.4-1.4,1.4c-0.8,0-1.4-0.6-1.4-1.4c0-0.8,0.6-1.4,1.4-1.4
		C152.7,175.9,153.3,176.5,153.3,177.2z"/>
	<linearGradient id="SVGID_20_" gradientUnits="userSpaceOnUse" x1="151.9666" y1="173.6332" x2="151.9666" y2="188.246">
		<stop  offset="0" style="stop-color:#40D5E6"/>
		<stop  offset="1" style="stop-color:#5577FF"/>
	</linearGradient>
	<path class="st40" d="M154.4,181.7v2.6c-0.8,0.3-1.6,0.5-2.5,0.5c-0.9,0-1.7-0.2-2.5-0.5v-2.6c0-1.4,1.1-2.5,2.5-2.5
		S154.4,180.3,154.4,181.7z"/>
	<g>
		<linearGradient id="SVGID_21_" gradientUnits="userSpaceOnUse" x1="151.9666" y1="174.5784" x2="151.9666" y2="187.3746">
			<stop  offset="0" style="stop-color:#D3DAE0"/>
			<stop  offset="1" style="stop-color:#FFFFFF"/>
		</linearGradient>
		<path class="st41" d="M152,185c-0.9,0-1.7-0.2-2.5-0.5c-2.2-1-3.6-3.2-3.6-5.6c0-3.4,2.8-6.1,6.1-6.1s6.1,2.8,6.1,6.1
			c0,2.4-1.4,4.6-3.6,5.6C153.7,184.8,152.9,185,152,185z M152,173c-3.2,0-5.8,2.6-5.8,5.8c0,2.3,1.3,4.4,3.4,5.3
			c0.8,0.3,1.6,0.5,2.4,0.5c0.8,0,1.7-0.2,2.4-0.5c2.1-0.9,3.4-3,3.4-5.3C157.8,175.6,155.2,173,152,173z"/>
	</g>
</g>
<g>
	<rect x="98.6" y="190.1" class="st42" width="0.5" height="2"/>
	
		<rect x="98.6" y="190.1" transform="matrix(-1.836970e-16 1 -1 -1.836970e-16 289.9509 92.2697)" class="st42" width="0.5" height="2"/>
</g>
<g>
	<rect x="116.3" y="190.1" class="st42" width="0.5" height="2"/>
	
		<rect x="116.3" y="190.1" transform="matrix(-1.836970e-16 1 -1 -1.836970e-16 307.6715 74.5491)" class="st42" width="0.5" height="2"/>
</g>
<g>
	<rect x="134" y="190.1" class="st42" width="0.5" height="2"/>
	
		<rect x="134" y="190.1" transform="matrix(-1.836970e-16 1 -1 -1.836970e-16 325.3922 56.8285)" class="st42" width="0.5" height="2"/>
</g>
<g>
	<rect x="151.8" y="190.1" class="st42" width="0.5" height="2"/>
	
		<rect x="151.8" y="190.1" transform="matrix(-1.836970e-16 1 -1 -1.836970e-16 343.1127 39.1079)" class="st42" width="0.5" height="2"/>
</g>
<linearGradient id="SVGID_22_" gradientUnits="userSpaceOnUse" x1="107.0652" y1="163.4655" x2="113.587" y2="136.0056">
	<stop  offset="0" style="stop-color:#FF9340"/>
	<stop  offset="1" style="stop-color:#FFCE45"/>
</linearGradient>
<polygon class="st43" points="131.8,144.2 96.4,123.7 96.4,164.6 "/>
<g class="st44">
	<g>
		<g>
			<g>
				<g>
					<g>
						<linearGradient id="SVGID_23_" gradientUnits="userSpaceOnUse" x1="26.7953" y1="140.7222" x2="41.1293" y2="140.7222">
							<stop  offset="0" style="stop-color:#40D5E6"/>
							<stop  offset="1" style="stop-color:#5577FF"/>
						</linearGradient>
						<path class="st45" d="M31,144.9l-4-6.6c-0.3-0.5-0.2-1.3,0.4-1.6c0.5-0.3,1.3-0.2,1.6,0.4l2.9,4.7l7.6-4.5
							c0.5-0.3,1.3-0.1,1.6,0.4c0.3,0.5,0.1,1.3-0.4,1.6L31,144.9z"/>
					</g>
				</g>
			</g>
		</g>
	</g>
	<g>
		<linearGradient id="SVGID_24_" gradientUnits="userSpaceOnUse" x1="19.1813" y1="140.5723" x2="48.2635" y2="140.5723">
			<stop  offset="0" style="stop-color:#40D5E6"/>
			<stop  offset="1" style="stop-color:#5577FF"/>
		</linearGradient>
		<path class="st46" d="M33.7,155.1c-8,0-14.5-6.5-14.5-14.5c0-8,6.5-14.5,14.5-14.5c8,0,14.5,6.5,14.5,14.5
			C48.3,148.6,41.7,155.1,33.7,155.1z M33.7,128.1c-6.9,0-12.5,5.6-12.5,12.5c0,6.9,5.6,12.5,12.5,12.5c6.9,0,12.5-5.6,12.5-12.5
			C46.2,133.7,40.6,128.1,33.7,128.1z"/>
	</g>
</g>
<g class="st44">
	<linearGradient id="SVGID_25_" gradientUnits="userSpaceOnUse" x1="79.1765" y1="63.203" x2="92.4971" y2="63.203">
		<stop  offset="0" style="stop-color:#40D5E6"/>
		<stop  offset="1" style="stop-color:#5577FF"/>
	</linearGradient>
	<path class="st47" d="M81.5,66.8c0-0.5,0-0.9,0.1-1.4c0.1-0.4,0.2-0.9,0.4-1.3c0.2-0.4,0.4-0.8,0.8-1.2c0.3-0.4,0.8-0.7,1.3-1
		c0.3-0.1,0.6-0.3,1.1-0.6c0.5-0.2,0.9-0.5,1.3-0.8c0.4-0.3,0.8-0.7,1.1-1.1c0.3-0.4,0.5-0.9,0.5-1.4c0-0.7-0.3-1.2-0.8-1.6
		c-0.5-0.4-1.1-0.6-1.7-0.6c-0.4,0-0.8,0.1-1.1,0.2c-0.3,0.2-0.6,0.3-0.9,0.6c-0.3,0.2-0.5,0.5-0.7,0.7c-0.2,0.3-0.4,0.5-0.5,0.7
		l-3.3-2.3c0.5-1.3,1.4-2.3,2.6-3c1.2-0.7,2.5-1.1,4-1.1c0.8,0,1.6,0.1,2.4,0.3c0.8,0.2,1.5,0.6,2.1,1.1c0.6,0.5,1.1,1.2,1.5,2
		c0.4,0.8,0.6,1.8,0.6,2.9c0,1.2-0.2,2.2-0.7,3c-0.5,0.8-1.2,1.5-2.2,2.1c-0.4,0.3-0.9,0.6-1.3,0.8c-0.5,0.2-0.9,0.5-1.2,0.7
		c-0.4,0.3-0.7,0.5-0.9,0.9c-0.2,0.3-0.3,0.7-0.3,1.1H81.5z M81.6,74.6v-4.7h4.1v4.7H81.6z"/>
</g>
<g>
	<path class="st9" d="M201.7,183.1c0,0-1.2-0.1-1.7-0.1c-0.5,0-3,1.4-3.8,1.4c-0.8,0-6.3-1.8-6.5-2c-0.3-0.1,0.1-0.5,0.1-0.5
		l12.1-1.2L201.7,183.1z"/>
	<g>
		<path class="st48" d="M211.5,163.6l1.2,12.7c0,0,0.5,1.6-3,2.2c-3.6,0.6-9.3,1.8-9.3,1.8s0.1,4.2,0.6,4.3
			c1.4,0.1,11.7-1.7,15.8-2.5c3.2-0.7,1.2-18.1,1.2-18.1L211.5,163.6z"/>
	</g>
	<path class="st9" d="M201.6,178.8c0,0-1.1,0.3-1.7,0.4c-0.5,0.1-3.1-0.9-4-0.8c-0.8,0.2-5.9,2.7-6.2,2.9c-0.2,0.2,0.1,0.5,0.1,0.5
		l12.1-0.6L201.6,178.8z"/>
	<g>
		<g>
			<g>
				<path class="st49" d="M215,246.2c0,0-2.5,1.5-3.7,2.1c-1.1,0.6-5.6,0.8-6,1.2c-0.4,0.4-0.3,1.8,0.5,1.9c0.7,0.1,6.2,0.6,8,0.1
					c1.8-0.4,5.2,0.2,5.9,0c0.7-0.3,0.2-4.3-0.1-5.2C219.3,245.3,215,246.2,215,246.2z"/>
			</g>
		</g>
	</g>
	<g>
		<g>
			<g>
				<path class="st50" d="M214.7,244.5l0.2,1.6c0,0,3.4,0.6,4.4,0.1l-0.3-1.7L214.7,244.5z"/>
			</g>
		</g>
	</g>
	<path class="st49" d="M208,186.8c-0.1,1.1-0.2,3.6-0.2,6.2c0,0.6,0,1.2,0,1.7c-0.1,3.5-0.1,6.8-0.1,6.8c0.2,4.4,0.9,14,2.2,16.2
		c1.8,2.9,3.8,27.1,3.8,27.1l6.5,0.7c0,0,0.4-16.2-0.6-20.4c-1.1-4.7-3.2-11.1-2-15.4c0.8-2.7,2.3-11.4,2.3-11.4s1.7-9.7-0.1-17.2
		C219.5,179.3,208,186.8,208,186.8z"/>
	<g>
		<g>
			<g>
				<path class="st49" d="M203.7,246.2c0,0-2.5,1.5-3.7,2.1c-1.1,0.6-5.6,0.8-6,1.2c-0.4,0.4-0.3,1.8,0.5,1.9c0.7,0.1,6.2,0.6,8,0.1
					c1.8-0.4,5.2,0.2,5.9,0c0.7-0.3,0.2-4.3-0.1-5.2C208.1,245.3,203.7,246.2,203.7,246.2z"/>
			</g>
		</g>
	</g>
	<g>
		<g>
			<g>
				<path class="st50" d="M203.5,244.5l0.2,1.6c0,0,3.4,0.6,4.4,0.1l-0.3-1.7L203.5,244.5z"/>
			</g>
		</g>
	</g>
	<path class="st49" d="M202.1,245.3h6.7c0,0,2.2-13,2.4-18.7c0,0,0,0,0,0c0-0.6,0-1.2,0-1.6c-0.1-1.2-0.2-2.5-0.4-3.9c0,0,0,0,0,0
		c-0.4-4.1-0.7-8.6,0.7-11.6c1.1-2.6,4-10.9,4-10.9s3.1-9.4,2.5-17c-0.2-1.9-12.1,2.9-12.1,2.9c-0.3,1.1-1.1,4.6-1.3,7.2
		c-1.6,14.9-1,24.5-1,24.5C204.4,219.5,202.1,245.3,202.1,245.3z"/>
	<g>
		<path class="st51" d="M206.9,152.8c0,0-2.3,5.5-2.8,8.5c-0.5,3,1.5,11.1,1.6,12.7c0.3,5.2,0.4,10.9,0.4,10.9l11.3,5.1
			c0,0,1.2-4.6,2-10.3c0.8-5.6,0.2-10.5-0.3-13.8c-1.6-10.2-8-15.1-8-15.1L206.9,152.8z"/>
	</g>
	<g>
		<path class="st9" d="M198.3,142.8c0,0-0.8,3,0,3.3c0.7,0.2,0,3.2,0,3.6c-0.1,0.5,1.3,0.5,1.6,0.7c0.3,0.2,2,3.4,3,3.3
			c1-0.1,5.3-2.9,6.2-4.5c0.9-1.6,0.5-7.8-0.9-10.1S199.7,137.5,198.3,142.8z"/>
	</g>
	<g>
		<path class="st9" d="M204.7,150.3c0,0,0.1,0.3,0.2,0.8c0,0.2,0.1,0.4,0.2,0.7c0,0.2,0.1,0.4,0.1,0.6c0,0.1,0,0.1,0.1,0.2
			c0.1,0.3,0.2,0.7,0.2,1c0.2,0.9,0.3,1.8,0.3,2.3c-0.1,1.4,4.8-5.1,4.8-5.1s-1.1-4.2-1.6-9.1C208.4,136.7,204.7,150.3,204.7,150.3z
			"/>
	</g>
	<g>
		<path class="st49" d="M198.2,143.5c0,0-2.2-2.5,0-5.4c2.2-2.8,8-0.3,8.6-0.3c0.6,0,3.8-0.6,3.6,5.4c-0.1,5.3-0.4,5.1-0.4,5.1
			s-1.6-2.2-2.3-2.5c-1.1-0.4-3,0.2-3,0.2s0.3-2.7-1.2-2.7C201.8,143.3,199.5,142.6,198.2,143.5z"/>
	</g>
	<g>
		<path class="st9" d="M205.8,144.2c0-0.4,0.1-2,1.6-1.4c1.5,0.6,0.1,3.9-0.1,4C207.1,146.9,205.4,147.4,205.8,144.2z"/>
	</g>
	<path class="st52" d="M205.3,186.8c0,0,0.5-2.4,0.6-2.8l15.3,2.5l-0.2,2C221.1,188.5,210.1,187.8,205.3,186.8z"/>
	<path class="st53" d="M221.3,174.5c0,0-0.8,10.6,4.6,22.1c0.7,1.4-10.1,1.3-10.1,1.3L221.3,174.5z"/>
	<g>
		<path class="st53" d="M205.6,165.1c0.2,1.2,0.4,2.4,0.5,3.5v0c0.3,2.4,0.5,4.7,0.6,7.1c0,0.2,0,0.5,0,0.7c0,0.4,0,0.8,0.1,1.2
			c0,0.5,0,1,0.1,1.5c0.3,10.5,4.2,18.8,4.2,18.8s7.7,0.5,9.7-0.6c0,0,1.4-11.9,0.8-23.6c0-0.9-0.1-1.8-0.2-2.7c0,0,0,0,0,0
			c-0.8-9.5-4.5-18.7-10.2-20.2C211,151,204.5,158.9,205.6,165.1z"/>
	</g>
	
		<rect x="180.5" y="181.6" transform="matrix(-0.9992 4.037756e-02 -4.037756e-02 -0.9992 388.4343 357.1378)" class="st54" width="20.2" height="1.9"/>
	
		<rect x="167.9" y="173.1" transform="matrix(-0.338 -0.9412 0.9412 -0.338 74.398 400.3347)" class="st54" width="20.2" height="1.9"/>
	<path class="st55" d="M208.2,215.1c0.6,3.7,3,11.4,3.1,11.6c0-0.6,0-1.2,0-1.6c-0.1-1.2-0.2-2.5-0.4-3.9c0,0,0,0,0,0
		c-0.1-1.2-1-3.4-1.6-4.9c-0.6-1.5-1.1-7.5-1.1-7.5S207.6,211.3,208.2,215.1z"/>
	<path class="st11" d="M205.3,152.5c0.1,0.3,0.2,0.7,0.2,1c1.4-1,3.1-3.6,3.2-3.7C208.1,150.7,205.3,152.5,205.3,152.5z"/>
	<path class="st56" d="M206.7,175.1c0,0.2,0,0.5,0,0.7c0,0.4,0,0.8,0.1,1.1c1.7-0.4,5-1.2,6-3c1.4-2.4-2-8-2.1-8.1
		c0,0.1,1.4,7,0,7.7C209.8,174,207.9,174.6,206.7,175.1z"/>
	<path class="st57" d="M205.6,157.5c0,0-1.2,5.9-0.1,12.9c0.9,5.9,1.2,10.1,1.2,10.1l-0.4,1.7l-0.8-1.3c0,0-1.4-7.5-1.6-10.7
		c-0.3-3.2-0.5-7.4,1.3-12.8L205.6,157.5z"/>
	<path class="st57" d="M205.7,157.5c0,0-0.1,0.2-0.4,0.3c-0.2,0.1-0.6-0.3,0.3-2.1L205.7,157.5z"/>
	<g>
		<path class="st58" d="M210.4,150.1c0,0-3,3.8-5,4.8l0.1,3.2l5.7-7.3L210.4,150.1z"/>
	</g>
	<path class="st53" d="M216.9,160.5c-0.2-1.5-1.9-7.6-5.4-6.7c-3.5,0.9-2.5,5.1-1.7,8.3c0.8,3.3,3.7,11.3,3.2,11.8
		c-0.5,0.5-4.5,2.3-5.4,2.6c-0.9,0.3-6.5,2.1-6.9,2.3c-0.4,0.2,2.2,4.8,2.2,4.8s14-4.8,16.3-6.3
		C221.4,175.7,216.9,160.5,216.9,160.5z"/>
</g>
<g>
	<g>
		<g>
			<path class="st59" d="M171.6,200.8c0,0-0.2-2.8-0.9-3.2c-0.7-0.4-0.3,0.4-0.3,0.4s0.4,2,0.5,2.8
				C170.9,200.9,171.6,200.8,171.6,200.8z"/>
		</g>
	</g>
	<path class="st60" d="M152.2,143c0,0,6.8-0.6,6.7,6.6c-0.2,7.2-1.3,8.3,0,13.4c1.3,5.1-6.7-2.9-6.7-2.9L152.2,143z"/>
	<path class="st61" d="M146.5,162.5c0,0-9.7,6-10.5,5.4c-1.1-0.9-4.3-8.6-4.3-8.6l-2.4,1.2c0,0,2.9,13.3,6.8,12.3
		c3.9-1,12.9-6.5,12.9-6.5L146.5,162.5z"/>
	<path class="st61" d="M159.7,187.5c0,0,2.5,3.2,3.4,5.3c0.9,2.1,2.4,6.8,2.2,10.4c-0.2,3.6-1.4,10.4-1,11.9
		c0.3,1.5,0.7,4.7,1.1,5.8c0.4,1.1,1.9,4.2,2,7.5c0.1,3.3-2.1,17.6-2,18.9c0.1,1.3-2.5,0.5-2.5,0.5s-0.9-12.9-1.4-15.2
		c-0.5-2.2-1.1-9.8-1.5-10.3c-0.4-0.5-1.7-6.2-1.5-7.1s-4.8-14.2-5.1-16.9c-0.3-2.7-7.7-10.9-7.7-10.9S152,185,159.7,187.5z"/>
	<path class="st61" d="M147.7,187.5c0,0-0.1,1.3-0.3,1.8c-0.1,0.5-3.6,13.1-3.9,17.9c-0.3,4.8-1.2,8.9-1.4,10s0.1,4.5,0.4,5.4
		c0.3,0.9-1.5,21.9-1.6,22.4c-0.1,0.5,1.2,0.6,2.1,0.5c0.9-0.1,5.7-15.4,5.4-18c-0.3-2.6-0.6-8,0.2-10.3c0.8-2.2,8.4-18.3,8.4-19.3
		C157.2,196.9,160.4,179.9,147.7,187.5z"/>
	<path class="st61" d="M162.9,246.2c0,0-0.2,1.7-0.5,2.2c-0.3,0.5-1,2.8-1.3,3.3c-0.3,0.4-1.1,3.8,0,4.2c1.1,0.4,3.6,1.1,4.4-0.3
		c0.8-1.3,1-2.7,0.8-3.7c-0.1-1-1.1-5.7-1.1-6.2C165.1,245.3,162.9,246.2,162.9,246.2z"/>
	<path class="st1" d="M161.4,250.8c0,0-0.1,2.6,1.8,2.6c1.9,0,2.8-2.3,2.8-2.3s0.7,1.2,0,3.6c-0.7,2.5-3.4,1.9-4.1,1.9
		S158.5,255.6,161.4,250.8z"/>
	<path class="st1" d="M141.1,243.9c0,0-1.4,2.5-2.2,3c-1,0.6-3,2.6-3.7,2.7c-0.7,0.1-3.2,0.5-2.7,1.9c0.4,1.1,6.3,1,7,0.4
		c0.7-0.6,2.7-2.6,3.5-2.6c0.8,0,0.5,3,0.5,3h0.9c0,0,0.3-2.9,0.3-3.3c0.1-1.5-0.9-2.5-1-3.4c0-0.8-0.1-1.4-0.1-1.4L141.1,243.9z"/>
	<path class="st61" d="M135.5,249.5c0,0,2,0.7,3.5-0.2c1.5-0.9,4.4-2.2,5.4-2.2c0,0-0.6-1.7-0.6-1.9c0-0.2-0.1-1.1-0.1-1.1l-2.5-0.4
		c0,0-1.6,2.4-2.4,3C138.1,247.3,136.2,248.7,135.5,249.5z"/>
	<path class="st62" d="M145.5,187.2c0,0-0.7,2.9-1,3.8c-0.3,0.9-1.9,14.1-2.3,22.3c0,0,10,3.8,23.7,3.1c0,0,0.3-15.2-0.9-19.5
		c-1.3-4.3-3.5-8.3-5.3-9.6C158.2,186.4,145.5,187.2,145.5,187.2z"/>
	<g>
		<g>
			<path class="st61" d="M168.3,194.7c0,0-0.2,1.2-0.6,2.4c-0.4,1.2-0.7,1.6-0.6,2.2c0.1,0.5,0.7,0.9,0.8,0.7c0.1-0.2,0.2-2.2,1-2.2
				c0.8,0-0.2,2.5,0.2,2.3c0.5-0.2,2.4-1.2,2.3-2.2c-0.1-1-0.9-1.7-0.8-3.2c0-1.4-0.4-1.9-0.4-1.9L168.3,194.7z"/>
		</g>
	</g>
	<g>
		<g>
			<path class="st9" d="M128.6,159.9c0,0,1.2,1.5,1.9,1.7c0.7,0.2,1.5-1.5,1.5-1.5l-0.4-1.5L128.6,159.9z"/>
		</g>
	</g>
	<g>
		<g>
			<path class="st9" d="M131.5,159.4c0,0,0.6-1.7,0.6-2c0.1-0.3-0.2-1.1-0.7-1.8c-0.5-0.7-1.1-1.5-1.3-1.7c-0.1-0.1-0.2-0.2-0.5-0.1
				c-0.4,0.2-0.6,0.5-0.6,0.5s-0.5,0-0.8,0.4c0,0-0.5,0-0.7,0.6c0,0-0.5,0-0.6,0.4c0,0,0.2,0.7,0.2,1c0,0.3,0.6,1.8,1.4,3.2
				C128.6,159.9,129.8,160.9,131.5,159.4z"/>
		</g>
	</g>
	<g>
		<g>
			<path class="st63" d="M130.2,157.1c0,0-0.6,0.7-0.7,1c-0.1,0.3-1.8-0.8-1.8-0.8S129.4,156.4,130.2,157.1z"/>
		</g>
	</g>
	<g>
		<g>
			<path class="st64" d="M130.2,154c0,0,1,2,0.6,2.2c-0.3,0.2-0.5,0-0.5,0l-0.1,1c0,0-0.4,0.7-1,0c0,0-0.3,0.7-0.8,0
				c0,0-0.4,0.3-0.7,0.1c-0.3-0.3-0.8-1.7-0.8-1.7s0-0.4,0.6-0.5c0,0,0.1-0.5,0.7-0.6c0,0,0.4-0.5,0.9-0.6c0,0,0.3-0.4,1-0.3
				C130.1,153.8,130.2,153.9,130.2,154z"/>
		</g>
	</g>
	<g>
		<g>
			<path class="st9" d="M132.1,157.3c0,0-1.2-1-2.1-1.3c-0.2-0.1-0.4-0.1-0.5,0.1c-0.1,0.2-0.1,0.6,0.4,1c0.5,0.5,0.9,1.3,0.9,1.3
				S131.5,158.7,132.1,157.3z"/>
		</g>
	</g>
	<g>
		<path class="st9" d="M129.2,154.1c0,0,1.2,2.2,1.2,2.4c0,0.2,0.8-0.2,0.8-0.4c0-0.2-0.9-2.1-1-2.3S129.4,153.5,129.2,154.1z"/>
	</g>
	<g>
		<path class="st9" d="M130.4,154.2c0,0-1.9-3.5-2.2-3.4c-0.4,0.2-0.3,1.2,1.3,3.8C131.1,157.2,130.4,154.2,130.4,154.2z"/>
	</g>
	<path class="st65" d="M146,169.8l-3.9-5.2c0,0,7-5.4,9.1-2C151.2,162.6,151.4,168.3,146,169.8z"/>
	<path class="st65" d="M143.6,169.6c0.1,1.7,1,3.2,1.1,3.8c0.1,0.6,0,2.1,0.2,3.5c0.2,1.4,0.7,8.3,0.6,10.3
		c-0.2,2,13.5,1.1,14.5,0.5c0,0-2.3-4.1-2.4-5.8c0-0.6-0.4-2.4,0.6-3.7c0.5-0.7,1.5-2.9,2.4-4.6c0,0-0.2-0.3,0,0
		c0.4-0.6,0.7-1.3,1-1.7l0,0c0.3-0.6,0.5-1.3,0.5-1.3s0.6-7.6-1.1-8.4c-1.7-0.9-2.6-1-4.2-1.1c-1.6-0.1-2.7-0.4-2.7-0.4l-3.8,0.4
		c0,0-2.4,0.9-3.4,0.9c-1,0.1-2.2,2.1-2.1,3.5C145.1,166.8,143.5,167.9,143.6,169.6z"/>
	<g>
		<g>
			<path class="st59" d="M168.9,197.8c0,0-1.1,0.3-1,4l1.2-0.2c0,0,0-2.1,0.4-3.2C169.5,198.4,169.4,197.7,168.9,197.8z"/>
		</g>
	</g>
	<g>
		<g>
			<polygon class="st59" points="164.3,202.7 174.1,199.9 174,211.9 164.4,217.7 			"/>
		</g>
	</g>
	<g>
		<polygon class="st59" points="164.4,217.7 165.6,217.9 175,212.1 174.9,200 174.1,199.9 		"/>
	</g>
	<path class="st9" d="M159.5,161.4c0,0,3,0,4.4,2.7c1.4,2.7,1.5,5.5,1.9,6.5c0.3,1,1.2,6.9,1.5,7.7c0.3,0.9,2.3,6.6,2.8,9.9
		c0.5,3.3,0.6,6.6,0.6,6.6l-2.4-0.1c0,0-2.4-8.9-3.2-11c-0.7-1.8-1-5-1.4-6.1c-0.4-1.1-2.9-8.9-3.4-9.5
		C159.7,167.6,156.9,161.9,159.5,161.4z"/>
	<path class="st65" d="M160.5,172.2l6.2-1.9c0,0-1.9-9.1-7.2-8.9C155.3,161.6,160.5,172.2,160.5,172.2z"/>
	<path class="st9" d="M152.9,143.7c-1.7-0.3-5.6,0.1-6.7,4.6c0,0,0,1.2,0.2,2.2c0.2,1-1,3.7-0.8,3.9c0.2,0.2,1.1,0.4,1.1,0.4
		s0.6,3.2,1.7,3.3c1.1,0.1,5.3-0.3,7.6-3.9C158.5,150.7,159.8,144.9,152.9,143.7z"/>
	<path class="st9" d="M150.1,156.9c0,0,0.1,0.4,0.2,1.1c0,0.3,0.1,0.7,0.1,1.1c0.1,1.1,0,2.5-0.4,3.3c0,0,2.1,1.3,4.4-1.8
		c0,0-0.2-3.9,1.1-6C156.8,152.5,150.1,156.9,150.1,156.9z"/>
	<path class="st60" d="M146.2,148.3c0,0,2.6,2.2,5.3,2.9c2.7,0.7,4.1,3.7,4.1,3.7s4.8-4.8,1.9-9.4
		C154.6,140.9,146.2,143,146.2,148.3z"/>
	<path class="st11" d="M150.3,158.1c0,0.3,0.1,0.7,0.1,1.1c2.4-1.2,3.7-2.7,3.7-2.7C152.7,157.5,150.3,158.1,150.3,158.1z"/>
	<path class="st60" d="M152,151.4c0,0,2.8,7.4,2.4,9.2c0,0,1.5-0.3,4.1,0.5C158.5,161.2,157.2,147.9,152,151.4z"/>
	<path class="st9" d="M155.3,160.9c0,0-0.9,5.6-4.3,4.9c-3.4-0.6-0.8-4.7-0.8-4.7S151.6,159.9,155.3,160.9z"/>
</g>
</svg>
