<svg id="Layer_1" data-name="Layer 1" xmlns="http://www.w3.org/2000/svg" viewBox="0 0 177.05 255.34"><defs><style>.cls-1{fill:#5793ce;}.cls-2{fill:#396caa;}.cls-3{fill:#d4ecff;}.cls-4{fill:#fff;}.cls-5{fill:#b2d3ea;}</style></defs><title>soft_solution</title><rect class="cls-1" x="28.06" y="129.9" width="5.14" height="11.09" transform="translate(139.36 151.74) rotate(119.83)"/><path class="cls-1" d="M24,133.74a4,4,0,0,1,1.81-3.15c1-.58,1.82-.12,1.82,1a4,4,0,0,1-1.81,3.16C24.82,135.37,24,134.9,24,133.74Z" transform="translate(-24 -24.51)"/><rect class="cls-1" x="37.14" y="132.87" width="8.33" height="17.39" transform="translate(160.65 151.64) rotate(119.83)"/><path class="cls-2" d="M35.13,135.07l-3.25-1.87a6.65,6.65,0,0,0-2.56,4.46l3.26,1.87A6.68,6.68,0,0,0,35.13,135.07Z" transform="translate(-24 -24.51)"/><path class="cls-1" d="M30.82,139a6.47,6.47,0,0,1,2.93-5.11c1.62-.94,2.94-.19,3,1.69a6.53,6.53,0,0,1-2.93,5.11C32.14,141.58,30.82,140.83,30.82,139Z" transform="translate(-24 -24.51)"/><path class="cls-3" d="M27,132.55a.52.52,0,0,1,0-1,1.85,1.85,0,0,1,1.7,0c.47.27.47.71,0,1A1.89,1.89,0,0,1,27,132.55Z" transform="translate(-24 -24.51)"/><path class="cls-1" d="M64.27,155.59a.63.63,0,0,1-.54-.31.62.62,0,0,1,.23-.85L87.23,141a6.37,6.37,0,0,0,3.18-5.5V100.4a1.91,1.91,0,0,1,2.87-1.65l37.6,21.8V91.25a.63.63,0,0,1,1.25,0v30.38a.63.63,0,0,1-.32.54.62.62,0,0,1-.62,0L92.65,99.83a.67.67,0,0,0-.67,0,.66.66,0,0,0-.33.58v35.1a7.59,7.59,0,0,1-3.8,6.57L64.59,155.51A.61.61,0,0,1,64.27,155.59Z" transform="translate(-24 -24.51)"/><path class="cls-1" d="M110.82,181.75a.63.63,0,0,1-.54-.31.62.62,0,0,1,.23-.85l28.94-16.71a6.37,6.37,0,0,0,3.18-5.5V97.94a.62.62,0,1,1,1.24,0v60.44a7.6,7.6,0,0,1-3.8,6.58l-28.94,16.71A.58.58,0,0,1,110.82,181.75Z" transform="translate(-24 -24.51)"/><path class="cls-1" d="M162.72,210.81a.67.67,0,0,1-.34-1.25l26.24-15.15a6.3,6.3,0,0,0,3.15-5.48l-.08-28.21a6.35,6.35,0,0,0-3.16-5.45l-33.87-19.5a.67.67,0,0,1-.34-.58V104.62a.67.67,0,1,1,1.34,0V134.8l33.54,19.31a7.69,7.69,0,0,1,3.83,6.6l.08,28.22a7.64,7.64,0,0,1-3.82,6.64l-26.24,15.15A.68.68,0,0,1,162.72,210.81Z" transform="translate(-24 -24.51)"/><rect class="cls-1" x="128.42" y="78.25" width="5.14" height="11.09"/><path class="cls-1" d="M156.81,114.9a4,4,0,0,1-3.63,0,1.11,1.11,0,0,1,0-2.1,4,4,0,0,1,3.63,0A1.11,1.11,0,0,1,156.81,114.9Z" transform="translate(-24 -24.51)"/><rect class="cls-1" x="126.83" y="62.79" width="8.33" height="17.39"/><path class="cls-2" d="M152.42,104.58v3.76a6.64,6.64,0,0,0,5.14,0v-3.76A6.73,6.73,0,0,0,152.42,104.58Z" transform="translate(-24 -24.51)"/><path class="cls-1" d="M157.94,106.4a6.5,6.5,0,0,1-5.89,0c-1.63-.94-1.63-2.46,0-3.4a6.5,6.5,0,0,1,5.89,0C159.56,103.94,159.56,105.46,157.94,106.4Z" transform="translate(-24 -24.51)"/><rect class="cls-1" x="116.67" y="71.56" width="5.14" height="11.09"/><path class="cls-1" d="M145.07,108.21a4,4,0,0,1-3.64,0,1.1,1.1,0,0,1,0-2.09,4,4,0,0,1,3.64,0A1.1,1.1,0,0,1,145.07,108.21Z" transform="translate(-24 -24.51)"/><rect class="cls-1" x="115.08" y="56.11" width="8.33" height="17.39"/><path class="cls-2" d="M140.68,97.9v3.75a6.64,6.64,0,0,0,5.14,0V97.9A6.64,6.64,0,0,0,140.68,97.9Z" transform="translate(-24 -24.51)"/><path class="cls-1" d="M146.19,99.71a6.5,6.5,0,0,1-5.89,0c-1.62-.94-1.62-2.46,0-3.4a6.5,6.5,0,0,1,5.89,0C147.82,97.25,147.82,98.77,146.19,99.71Z" transform="translate(-24 -24.51)"/><rect class="cls-1" x="104.93" y="64.88" width="5.14" height="11.09"/><path class="cls-1" d="M133.32,101.53a4,4,0,0,1-3.63,0,1.11,1.11,0,0,1,0-2.1,4,4,0,0,1,3.63,0A1.11,1.11,0,0,1,133.32,101.53Z" transform="translate(-24 -24.51)"/><rect class="cls-1" x="103.34" y="49.42" width="8.33" height="17.39"/><path class="cls-2" d="M128.93,91.22V95a6.64,6.64,0,0,0,5.14,0V91.22A6.64,6.64,0,0,0,128.93,91.22Z" transform="translate(-24 -24.51)"/><ellipse class="cls-1" cx="107.5" cy="66.82" rx="4.16" ry="2.4"/><polygon class="cls-1" points="162.67 93.63 173.83 87.06 163.2 73.78 160.4 78.35 162.67 93.63"/><path class="cls-1" d="M105.6,45.31l17.82-10.25s-.67,10.23-.67,10.25-10.23,3.17-10.23,3.17Z" transform="translate(-24 -24.51)"/><path class="cls-1" d="M189.78,84.77a11.4,11.4,0,0,0-3.86-1.43c-1.8-9.44-8.37-19.46-16.2-24a15.94,15.94,0,0,0-6.63-2.24c-1.07-11.45-9-24.45-18.69-30-5.05-2.91-9.63-3.26-13-1.47h0l-.16.09-.26.15L120.47,32,124,34.8c-3.14,1.37-5.12,4.89-5.12,10.08,0,9.58,6.73,21.24,15,26l55.91,39.92c6.23,3.6,11.28.68,11.28-6.51S196,88.37,189.78,84.77Z" transform="translate(-24 -24.51)"/><path class="cls-1" d="M119.36,40.66l24.12-14.09c-4.68-2.44-8.91-2.64-12.09-1h0l-.16.09-.26.15L120.47,32,124,34.8A8.44,8.44,0,0,0,119.36,40.66Z" transform="translate(-24 -24.51)"/><path class="cls-1" d="M163.9,82.12l17.59-10.33a34.05,34.05,0,0,0-11.77-12.44,19.18,19.18,0,0,0-1.8-.92L145.54,71.51Z" transform="translate(-24 -24.51)"/><path class="cls-3" d="M125.42,33.2l7.85,4.52,14.36-8.45a28.7,28.7,0,0,0-3.23-2.19,20.23,20.23,0,0,0-5-2.11Z" transform="translate(-24 -24.51)"/><path class="cls-3" d="M179.55,68.75l-14,8.28,4.88,5.44L183.14,75A40.3,40.3,0,0,0,179.55,68.75Z" transform="translate(-24 -24.51)"/><path class="cls-3" d="M178.74,91.27a11.28,11.28,0,0,0-3.85-1.43c-1.8-9.44-8.37-19.47-16.2-24a15.8,15.8,0,0,0-6.63-2.24c-1.07-11.45-9-24.45-18.69-30-10.39-6-18.82-1.14-18.82,10.86q0,.62,0,1.23c-7.6-3.52-13.53.45-13.53,9.45,0,9.58,6.72,21.23,15,26l62.67,36.19C185,120.92,190,118,190,110.81S185,94.87,178.74,91.27Z" transform="translate(-24 -24.51)"/><path class="cls-4" d="M114.58,45.67q0-.62,0-1.23v0c-4.19-1.63-7.8-.92-10.07,1.7C106.94,44.06,110.52,43.79,114.58,45.67Z" transform="translate(-24 -24.51)"/><path class="cls-4" d="M179.66,90.38A11.14,11.14,0,0,0,175.81,89c-1.8-9.44-8.37-19.47-16.2-24A16,16,0,0,0,153,62.71c-1.07-11.44-9-24.45-18.69-30-6.48-3.73-12.19-3.25-15.57.54,3.45-2.95,8.73-3.06,14.65.36,9.66,5.58,17.62,18.58,18.69,30a15.8,15.8,0,0,1,6.63,2.24c7.83,4.52,14.4,14.55,16.2,24a11.28,11.28,0,0,1,3.85,1.43C185,94.87,190,103.62,190,110.81a9.34,9.34,0,0,1-1.8,6c1.69-1.31,2.71-3.67,2.71-6.9C190.94,102.72,185.89,94,179.66,90.38Z" transform="translate(-24 -24.51)"/><path class="cls-2" d="M113.26,48.53,118,50.71l-.24-5.18c0-.37,0-.73,0-1.09,0-4.63,1.4-8,3.94-9.45s6.14-1,10.15,1.32c8.63,5,16.15,17.1,17.13,27.59l.25,2.64,2.65.21a12.64,12.64,0,0,1,5.29,1.83c6.85,4,13,13.14,14.68,21.85l.42,2.18,2.19.34a8.22,8.22,0,0,1,2.77,1c5.26,3,9.71,10.74,9.71,16.81,0,2.28-.63,4-1.73,4.58s-2.86.35-4.83-.79L117.65,78.42c-7.29-4.21-13.45-14.88-13.45-23.3,0-3.3,1-5.82,2.67-6.91a4.62,4.62,0,0,1,2.5-.66A9.32,9.32,0,0,1,113.26,48.53Z" transform="translate(-24 -24.51)"/><polygon class="cls-1" points="120.53 63.29 122.19 62.46 120.56 61.23 120.53 63.29"/><polygon class="cls-1" points="115.57 40.96 117.17 40.15 117.2 40.99 115.57 40.96"/><polygon class="cls-1" points="125.25 58.07 126.92 57.23 123.7 54.16 125.25 58.07"/><path class="cls-1" d="M145.71,86.92l-7.83-4.61a1.65,1.65,0,0,1-.72-1.31l0-9.06,9.26,5.45,0,9.07C146.43,87,146.1,87.16,145.71,86.92Z" transform="translate(-24 -24.51)"/><path class="cls-1" d="M141.16,64.67l-8.45,5.44c-.36.23-.07,1.09.47,1.42l8.64,5.08,8.63,5.09c.54.32.84-.2.48-.85l-8.39-15.37C142.17,64.82,141.52,64.44,141.16,64.67Z" transform="translate(-24 -24.51)"/><path class="cls-3" d="M144,87.77l-7.83-4.61a1.66,1.66,0,0,1-.72-1.32l0-9.06,9.27,5.46,0,9.06C144.75,87.79,144.42,88,144,87.77Z" transform="translate(-24 -24.51)"/><path class="cls-3" d="M139.48,65.52,131,71c-.36.23-.07,1.09.47,1.41l8.64,5.09,8.63,5.08c.55.32.84-.2.48-.85l-8.39-15.36C140.5,65.67,139.85,65.28,139.48,65.52Z" transform="translate(-24 -24.51)"/><path class="cls-3" d="M130.78,99.49c0,.54-.38.76-.85.49a1.89,1.89,0,0,1-.86-1.47c0-.55.39-.77.86-.5A1.91,1.91,0,0,1,130.78,99.49Z" transform="translate(-24 -24.51)"/><path class="cls-5" d="M61.54,220.91,85,207.34c1.44-.83,1.26-2.29-.4-3.25L62,191a6.24,6.24,0,0,0-5.63-.23l-23.5,13.56c-1.44.84-1.26,2.29.4,3.25l22.69,13.1A6.28,6.28,0,0,0,61.54,220.91Z" transform="translate(-24 -24.51)"/><path class="cls-2" d="M25,194h0V183.84l22.77,0,7.87-4.54a7.86,7.86,0,0,1,7.05.29l7.34,4.24H92.83v10.44a2,2,0,0,1-1.2,1.89l-29.43,17a7.86,7.86,0,0,1-7.05-.29L26.74,196.42A2.81,2.81,0,0,1,25,194Z" transform="translate(-24 -24.51)"/><path class="cls-2" d="M58.93,178.58a8.21,8.21,0,0,1,3.78,1l7.34,4.24H92.83v10.44a2,2,0,0,1-1.2,1.89l-29.43,17a6.4,6.4,0,0,1-3.27.7Z" transform="translate(-24 -24.51)"/><path class="cls-1" d="M90.26,183.8h2.57v10.44a2,2,0,0,1-1.2,1.89l-1.37.79Z" transform="translate(-24 -24.51)"/><path class="cls-1" d="M61.75,213.34a8.06,8.06,0,0,1-5.64-.06V201.42h5.64Z" transform="translate(-24 -24.51)"/><path class="cls-3" d="M62.2,202.71l29.43-17c1.8-1,1.57-2.86-.51-4.06L62.71,165.25a7.86,7.86,0,0,0-7.05-.29L26.23,182c-1.8,1-1.58,2.86.51,4.07l28.41,16.4A7.8,7.8,0,0,0,62.2,202.71Z" transform="translate(-24 -24.51)"/><path class="cls-1" d="M61.67,199.66l24.66-14.24c1.51-.88,1.32-2.4-.43-3.41L62.09,168.26a6.53,6.53,0,0,0-5.9-.24L31.53,182.25c-1.51.88-1.32,2.4.42,3.41l23.81,13.75A6.58,6.58,0,0,0,61.67,199.66Z" transform="translate(-24 -24.51)"/><path class="cls-3" d="M35.85,196.67A2.62,2.62,0,0,0,37,198.73c.65.38,1.18.07,1.18-.69A2.64,2.64,0,0,0,37,196C36.38,195.6,35.85,195.91,35.85,196.67Z" transform="translate(-24 -24.51)"/><path class="cls-3" d="M32,194.46a2.65,2.65,0,0,0,1.19,2.06c.66.38,1.19.07,1.19-.69a2.6,2.6,0,0,0-1.19-2.05C32.56,193.4,32,193.7,32,194.46Z" transform="translate(-24 -24.51)"/><path class="cls-3" d="M28.2,192.25a2.62,2.62,0,0,0,1.19,2.06c.65.38,1.19.07,1.19-.68a2.65,2.65,0,0,0-1.19-2.06C28.73,191.19,28.2,191.5,28.2,192.25Z" transform="translate(-24 -24.51)"/><path class="cls-2" d="M25,177.76h0V167.61H47.79l7.87-4.54a7.8,7.8,0,0,1,7.05.29l7.34,4.24,22.78,0V178a2,2,0,0,1-1.2,1.88l-29.43,17a7.86,7.86,0,0,1-7.05-.29L26.74,180.2A2.83,2.83,0,0,1,25,177.76Z" transform="translate(-24 -24.51)"/><path class="cls-2" d="M58.93,162.36a8.09,8.09,0,0,1,3.78,1l7.34,4.24,22.78,0V178a2,2,0,0,1-1.2,1.88l-29.43,17a6.4,6.4,0,0,1-3.27.7Z" transform="translate(-24 -24.51)"/><path class="cls-1" d="M90.26,167.57h2.57V178a2,2,0,0,1-1.2,1.88l-1.37.79Z" transform="translate(-24 -24.51)"/><path class="cls-1" d="M61.75,197.11a8.06,8.06,0,0,1-5.64-.06V185.19h5.64Z" transform="translate(-24 -24.51)"/><path class="cls-3" d="M62.2,186.49l29.43-17c1.8-1,1.57-2.87-.51-4.07L62.71,149a7.83,7.83,0,0,0-7.05-.3l-29.43,17c-1.8,1.05-1.58,2.87.51,4.07L55.15,186.2A7.86,7.86,0,0,0,62.2,186.49Z" transform="translate(-24 -24.51)"/><path class="cls-1" d="M61.67,183.43l24.66-14.24c1.51-.87,1.32-2.4-.43-3.41L62.09,152a6.56,6.56,0,0,0-5.9-.25L31.53,166c-1.51.87-1.32,2.4.42,3.41l23.81,13.75A6.61,6.61,0,0,0,61.67,183.43Z" transform="translate(-24 -24.51)"/><path class="cls-3" d="M35.85,180.44A2.62,2.62,0,0,0,37,182.5c.65.38,1.18.07,1.18-.68A2.64,2.64,0,0,0,37,179.76C36.38,179.38,35.85,179.69,35.85,180.44Z" transform="translate(-24 -24.51)"/><path class="cls-1" d="M32,178.24a2.63,2.63,0,0,0,1.19,2c.66.38,1.19.08,1.19-.68a2.62,2.62,0,0,0-1.19-2.06C32.56,177.17,32,177.48,32,178.24Z" transform="translate(-24 -24.51)"/><path class="cls-1" d="M28.2,176a2.62,2.62,0,0,0,1.19,2.06c.65.38,1.19.07,1.19-.69a2.65,2.65,0,0,0-1.19-2.06C28.73,175,28.2,175.27,28.2,176Z" transform="translate(-24 -24.51)"/><path class="cls-2" d="M25,161.54h0V151.39l22.77,0,7.87-4.54a7.86,7.86,0,0,1,7.05.29l7.34,4.24H92.83v10.44a2,2,0,0,1-1.2,1.89l-29.43,17a7.83,7.83,0,0,1-7.05-.3L26.74,164A2.81,2.81,0,0,1,25,161.54Z" transform="translate(-24 -24.51)"/><path class="cls-2" d="M58.93,146.13a8.21,8.21,0,0,1,3.78,1l7.34,4.24H92.83v10.44a2,2,0,0,1-1.2,1.89l-29.43,17a6.4,6.4,0,0,1-3.27.7Z" transform="translate(-24 -24.51)"/><path class="cls-1" d="M90.26,151.35h2.57v10.44a2,2,0,0,1-1.2,1.89l-1.37.79Z" transform="translate(-24 -24.51)"/><path class="cls-1" d="M61.75,180.89a8,8,0,0,1-5.64-.07V169h5.64Z" transform="translate(-24 -24.51)"/><path class="cls-3" d="M62.2,170.26l29.43-17c1.8-1,1.57-2.86-.51-4.06L62.71,132.8a7.86,7.86,0,0,0-7.05-.29l-29.43,17c-1.8,1-1.58,2.86.51,4.07L55.15,170A7.83,7.83,0,0,0,62.2,170.26Z" transform="translate(-24 -24.51)"/><path class="cls-4" d="M26.74,151.57,55.15,168a7.8,7.8,0,0,0,7.05.29l29.43-17a3,3,0,0,0,.9-.8,1.89,1.89,0,0,1-.9,2.79l-29.43,17a7.83,7.83,0,0,1-7.05-.29l-28.41-16.4c-1.62-.94-2.11-2.25-1.41-3.27A4.12,4.12,0,0,0,26.74,151.57Z" transform="translate(-24 -24.51)"/><path class="cls-1" d="M35.85,164.22A2.62,2.62,0,0,0,37,166.28c.65.38,1.18.07,1.18-.69A2.64,2.64,0,0,0,37,163.53C36.38,163.15,35.85,163.46,35.85,164.22Z" transform="translate(-24 -24.51)"/><path class="cls-3" d="M32,162a2.65,2.65,0,0,0,1.19,2.06c.66.38,1.19.07,1.19-.69a2.62,2.62,0,0,0-1.19-2.06C32.56,161,32,161.25,32,162Z" transform="translate(-24 -24.51)"/><path class="cls-3" d="M28.2,159.8a2.62,2.62,0,0,0,1.19,2.06c.65.38,1.19.07,1.19-.68a2.65,2.65,0,0,0-1.19-2.06C28.73,158.74,28.2,159,28.2,159.8Z" transform="translate(-24 -24.51)"/><path class="cls-1" d="M60.46,159.73l13.77-7.95c.84-.49.74-1.34-.24-1.9L60.7,142.2a3.68,3.68,0,0,0-3.3-.14L43.63,150c-.85.49-.74,1.34.24,1.91l13.29,7.67A3.64,3.64,0,0,0,60.46,159.73Z" transform="translate(-24 -24.51)"/><path class="cls-3" d="M59.14,153.07l1.91-1.1c.11-.06.1-.18,0-.26l-1.84-1.06a.48.48,0,0,0-.45,0l-1.91,1.1c-.11.07-.1.18,0,.26l1.84,1.06A.5.5,0,0,0,59.14,153.07Z" transform="translate(-24 -24.51)"/><path class="cls-2" d="M74.23,151.78l0,0a1.74,1.74,0,0,0-.2-.13L60.7,144a3.68,3.68,0,0,0-3.3-.14l-13.73,7.93c-.78-.56-.82-1.32,0-1.77l13.77-7.95a3.68,3.68,0,0,1,3.3.14L74,149.88C75,150.44,75.07,151.29,74.23,151.78Z" transform="translate(-24 -24.51)"/><path class="cls-5" d="M113.43,250.1l23.5-13.57c1.44-.83,1.26-2.28-.4-3.25l-22.69-13.1a6.27,6.27,0,0,0-5.63-.23l-23.5,13.57c-1.44.83-1.26,2.29.41,3.25l22.69,13.1A6.25,6.25,0,0,0,113.43,250.1Z" transform="translate(-24 -24.51)"/><path class="cls-2" d="M76.92,223.18h0V213H99.68l7.87-4.54a7.8,7.8,0,0,1,7,.29l7.34,4.24,22.79,0v10.45a2.05,2.05,0,0,1-1.21,1.88l-29.43,17a7.83,7.83,0,0,1-7-.29l-28.41-16.4A2.8,2.8,0,0,1,76.92,223.18Z" transform="translate(-24 -24.51)"/><path class="cls-2" d="M110.82,207.78a8.09,8.09,0,0,1,3.78,1l7.34,4.24,22.79,0v10.45a2.05,2.05,0,0,1-1.21,1.88l-29.43,17a6.4,6.4,0,0,1-3.27.7Z" transform="translate(-24 -24.51)"/><path class="cls-1" d="M142.15,213h2.58v10.45a2.05,2.05,0,0,1-1.21,1.88l-1.37.79Z" transform="translate(-24 -24.51)"/><path class="cls-1" d="M113.64,242.53a8,8,0,0,1-5.63-.06V230.61h5.63Z" transform="translate(-24 -24.51)"/><path class="cls-3" d="M114.09,231.91l29.43-17c1.8-1,1.58-2.87-.51-4.07l-28.41-16.4a7.83,7.83,0,0,0-7-.3l-29.42,17c-1.81,1.05-1.58,2.87.5,4.07L107,231.62A7.86,7.86,0,0,0,114.09,231.91Z" transform="translate(-24 -24.51)"/><path class="cls-1" d="M113.56,228.85l24.66-14.24c1.51-.87,1.32-2.4-.42-3.41L114,197.46a6.58,6.58,0,0,0-5.91-.25L83.42,211.45c-1.51.87-1.32,2.4.43,3.41l23.81,13.75A6.59,6.59,0,0,0,113.56,228.85Z" transform="translate(-24 -24.51)"/><path class="cls-3" d="M87.74,225.86a2.62,2.62,0,0,0,1.19,2.06c.65.38,1.19.07,1.19-.68a2.65,2.65,0,0,0-1.19-2.06C88.27,224.8,87.74,225.11,87.74,225.86Z" transform="translate(-24 -24.51)"/><path class="cls-1" d="M83.92,223.66a2.62,2.62,0,0,0,1.18,2.05c.66.38,1.19.08,1.19-.68A2.62,2.62,0,0,0,85.1,223C84.45,222.59,83.92,222.9,83.92,223.66Z" transform="translate(-24 -24.51)"/><path class="cls-3" d="M80.09,221.45a2.62,2.62,0,0,0,1.19,2.06c.66.38,1.19.07,1.19-.69a2.62,2.62,0,0,0-1.19-2.06C80.62,220.38,80.09,220.69,80.09,221.45Z" transform="translate(-24 -24.51)"/><path class="cls-2" d="M76.92,207h0V196.81l22.76,0,7.87-4.54a7.86,7.86,0,0,1,7,.29l7.34,4.24h22.79v10.44a2.06,2.06,0,0,1-1.21,1.89l-29.43,17a7.83,7.83,0,0,1-7-.3l-28.41-16.4A2.77,2.77,0,0,1,76.92,207Z" transform="translate(-24 -24.51)"/><path class="cls-2" d="M110.82,191.55a8.21,8.21,0,0,1,3.78,1l7.34,4.24h22.79v10.44a2.06,2.06,0,0,1-1.21,1.89l-29.43,17a6.4,6.4,0,0,1-3.27.7Z" transform="translate(-24 -24.51)"/><path class="cls-1" d="M142.15,196.77h2.58v10.44a2.06,2.06,0,0,1-1.21,1.89l-1.37.79Z" transform="translate(-24 -24.51)"/><path class="cls-1" d="M113.64,226.31a8,8,0,0,1-5.63-.07V214.39h5.63Z" transform="translate(-24 -24.51)"/><path class="cls-3" d="M114.09,215.68l29.43-17c1.8-1,1.58-2.86-.51-4.06L114.6,178.22a7.86,7.86,0,0,0-7-.29l-29.42,17c-1.81,1-1.58,2.86.5,4.07L107,215.39A7.83,7.83,0,0,0,114.09,215.68Z" transform="translate(-24 -24.51)"/><path class="cls-1" d="M113.56,212.62l24.66-14.23c1.51-.88,1.32-2.4-.42-3.41L114,181.23a6.55,6.55,0,0,0-5.91-.24L83.42,195.22c-1.51.88-1.32,2.4.43,3.41l23.81,13.75A6.53,6.53,0,0,0,113.56,212.62Z" transform="translate(-24 -24.51)"/><path class="cls-3" d="M87.74,209.64a2.62,2.62,0,0,0,1.19,2.06c.65.38,1.19.07,1.19-.69A2.65,2.65,0,0,0,88.93,209C88.27,208.57,87.74,208.88,87.74,209.64Z" transform="translate(-24 -24.51)"/><path class="cls-3" d="M83.92,207.43a2.64,2.64,0,0,0,1.18,2.06c.66.38,1.19.07,1.19-.69a2.64,2.64,0,0,0-1.19-2.06C84.45,206.37,83.92,206.67,83.92,207.43Z" transform="translate(-24 -24.51)"/><path class="cls-1" d="M80.09,205.22a2.62,2.62,0,0,0,1.19,2.06c.66.38,1.19.07,1.19-.68a2.62,2.62,0,0,0-1.19-2.06C80.62,204.16,80.09,204.46,80.09,205.22Z" transform="translate(-24 -24.51)"/><path class="cls-2" d="M76.92,190.73h0V180.58H99.68l7.87-4.55a7.83,7.83,0,0,1,7,.3l7.34,4.24,22.79,0V191a2.06,2.06,0,0,1-1.21,1.89l-29.43,17a7.86,7.86,0,0,1-7-.29L78.63,193.16A2.77,2.77,0,0,1,76.92,190.73Z" transform="translate(-24 -24.51)"/><path class="cls-2" d="M110.82,175.33a8.09,8.09,0,0,1,3.78,1l7.34,4.24,22.79,0V191a2.06,2.06,0,0,1-1.21,1.89l-29.43,17a6.4,6.4,0,0,1-3.27.7Z" transform="translate(-24 -24.51)"/><path class="cls-1" d="M142.15,180.54h2.58V191a2.06,2.06,0,0,1-1.21,1.89l-1.37.79Z" transform="translate(-24 -24.51)"/><path class="cls-1" d="M113.64,210.08A8,8,0,0,1,108,210V198.16h5.63Z" transform="translate(-24 -24.51)"/><path class="cls-3" d="M114.09,199.46l29.43-17c1.8-1,1.58-2.87-.51-4.07L114.6,162a7.83,7.83,0,0,0-7-.3l-29.42,17c-1.81,1.05-1.58,2.87.5,4.07L107,199.17A7.86,7.86,0,0,0,114.09,199.46Z" transform="translate(-24 -24.51)"/><path class="cls-4" d="M78.63,180.76,107,197.17a7.86,7.86,0,0,0,7,.29l29.43-17a2.74,2.74,0,0,0,.9-.8,1.9,1.9,0,0,1-.9,2.8l-29.43,17a7.83,7.83,0,0,1-7-.3l-28.41-16.4c-1.62-.93-2.11-2.24-1.41-3.27A3.93,3.93,0,0,0,78.63,180.76Z" transform="translate(-24 -24.51)"/><path class="cls-1" d="M87.74,193.41a2.62,2.62,0,0,0,1.19,2.06c.65.38,1.19.07,1.19-.68a2.65,2.65,0,0,0-1.19-2.06C88.27,192.35,87.74,192.65,87.74,193.41Z" transform="translate(-24 -24.51)"/><path class="cls-1" d="M83.92,191.21a2.63,2.63,0,0,0,1.18,2c.66.38,1.19.08,1.19-.68a2.62,2.62,0,0,0-1.19-2.06C84.45,190.14,83.92,190.45,83.92,191.21Z" transform="translate(-24 -24.51)"/><path class="cls-3" d="M80.09,189a2.62,2.62,0,0,0,1.19,2.06c.66.37,1.19.07,1.19-.69a2.62,2.62,0,0,0-1.19-2.06C80.62,187.93,80.09,188.24,80.09,189Z" transform="translate(-24 -24.51)"/><path class="cls-1" d="M112.35,188.92,126.12,181c.85-.48.74-1.34-.24-1.9l-13.29-7.68a3.67,3.67,0,0,0-3.3-.13l-13.77,8c-.84.49-.74,1.34.24,1.9l13.29,7.68A3.67,3.67,0,0,0,112.35,188.92Z" transform="translate(-24 -24.51)"/><path class="cls-3" d="M111,182.27l1.91-1.1c.11-.07.1-.19,0-.27l-1.84-1.06a.53.53,0,0,0-.46,0l-1.91,1.1c-.11.07-.1.19,0,.27l1.84,1.06A.48.48,0,0,0,111,182.27Z" transform="translate(-24 -24.51)"/><path class="cls-2" d="M126.12,181l0,0a1,1,0,0,0-.2-.14l-13.29-7.68a3.67,3.67,0,0,0-3.3-.13L95.56,181c-.78-.55-.82-1.31,0-1.76l13.77-8a3.67,3.67,0,0,1,3.3.13l13.29,7.68C126.86,179.63,127,180.49,126.12,181Z" transform="translate(-24 -24.51)"/><path class="cls-3" d="M116.71,218.1c0,.55.38.77.85.5a1.91,1.91,0,0,0,.85-1.48c0-.54-.38-.77-.85-.49A1.87,1.87,0,0,0,116.71,218.1Z" transform="translate(-24 -24.51)"/><path class="cls-3" d="M119.35,216.59c0,.54.38.76.85.49a1.89,1.89,0,0,0,.86-1.48c0-.54-.39-.76-.86-.49A1.88,1.88,0,0,0,119.35,216.59Z" transform="translate(-24 -24.51)"/><path class="cls-3" d="M116.71,221.29c0,.55.38.77.85.5a1.91,1.91,0,0,0,.85-1.48c0-.54-.38-.76-.85-.49A1.87,1.87,0,0,0,116.71,221.29Z" transform="translate(-24 -24.51)"/><path class="cls-1" d="M119.35,219.78c0,.54.38.76.85.49a1.89,1.89,0,0,0,.86-1.48c0-.54-.39-.76-.86-.49A1.88,1.88,0,0,0,119.35,219.78Z" transform="translate(-24 -24.51)"/><path class="cls-5" d="M165.32,279.29l23.5-13.56c1.45-.83,1.26-2.29-.4-3.25l-22.69-13.1a6.24,6.24,0,0,0-5.63-.23l-23.5,13.56c-1.44.84-1.26,2.29.41,3.25l22.69,13.1A6.22,6.22,0,0,0,165.32,279.29Z" transform="translate(-24 -24.51)"/><path class="cls-2" d="M128.81,252.38h0V242.23l22.76,0,7.87-4.54a7.86,7.86,0,0,1,7.05.29l7.34,4.24h22.79v10.44a2,2,0,0,1-1.21,1.89l-29.43,17a7.81,7.81,0,0,1-7-.3l-28.42-16.4A2.77,2.77,0,0,1,128.81,252.38Z" transform="translate(-24 -24.51)"/><path class="cls-2" d="M162.71,237a8.18,8.18,0,0,1,3.78,1l7.34,4.24h22.79v10.44a2,2,0,0,1-1.21,1.89l-29.43,17a6.35,6.35,0,0,1-3.27.7Z" transform="translate(-24 -24.51)"/><path class="cls-1" d="M194,242.19h2.58v10.44a2,2,0,0,1-1.21,1.89l-1.37.79Z" transform="translate(-24 -24.51)"/><path class="cls-1" d="M165.53,271.73a8,8,0,0,1-5.63-.07V259.81h5.63Z" transform="translate(-24 -24.51)"/><path class="cls-3" d="M166,261.1l29.43-17c1.81-1,1.58-2.86-.51-4.06l-28.41-16.41a7.86,7.86,0,0,0-7.05-.29l-29.42,17c-1.81,1-1.58,2.86.5,4.07l28.42,16.4A7.81,7.81,0,0,0,166,261.1Z" transform="translate(-24 -24.51)"/><path class="cls-1" d="M165.45,258l24.66-14.23c1.52-.88,1.33-2.4-.42-3.41l-23.81-13.75a6.55,6.55,0,0,0-5.91-.24l-24.66,14.23c-1.51.88-1.32,2.4.43,3.41l23.81,13.75A6.53,6.53,0,0,0,165.45,258Z" transform="translate(-24 -24.51)"/><path class="cls-3" d="M139.63,255.06a2.62,2.62,0,0,0,1.19,2.06c.66.38,1.19.07,1.19-.69a2.62,2.62,0,0,0-1.19-2.06C140.16,254,139.63,254.3,139.63,255.06Z" transform="translate(-24 -24.51)"/><path class="cls-1" d="M135.81,252.85a2.62,2.62,0,0,0,1.19,2.06c.65.38,1.18.07,1.18-.69a2.65,2.65,0,0,0-1.18-2.06C136.34,251.79,135.81,252.09,135.81,252.85Z" transform="translate(-24 -24.51)"/><path class="cls-3" d="M132,250.64a2.65,2.65,0,0,0,1.19,2.06c.66.38,1.19.07,1.19-.68a2.62,2.62,0,0,0-1.19-2.06C132.52,249.58,132,249.88,132,250.64Z" transform="translate(-24 -24.51)"/><path class="cls-2" d="M128.81,236.15h0V226h22.76l7.87-4.55a7.83,7.83,0,0,1,7.05.3l7.34,4.24,22.79,0V236.4a2,2,0,0,1-1.21,1.89l-29.43,17a7.84,7.84,0,0,1-7-.29l-28.42-16.4A2.8,2.8,0,0,1,128.81,236.15Z" transform="translate(-24 -24.51)"/><path class="cls-2" d="M162.71,220.75a8.06,8.06,0,0,1,3.78,1l7.34,4.24,22.79,0V236.4a2,2,0,0,1-1.21,1.89l-29.43,17a6.35,6.35,0,0,1-3.27.7Z" transform="translate(-24 -24.51)"/><path class="cls-1" d="M194,226h2.58V236.4a2,2,0,0,1-1.21,1.89l-1.37.79Z" transform="translate(-24 -24.51)"/><path class="cls-1" d="M165.53,255.5a8,8,0,0,1-5.63-.06V243.58h5.63Z" transform="translate(-24 -24.51)"/><path class="cls-3" d="M166,244.88l29.43-17c1.81-1,1.58-2.87-.51-4.07l-28.41-16.4a7.83,7.83,0,0,0-7.05-.3l-29.42,17c-1.81,1-1.58,2.87.5,4.07l28.42,16.41A7.84,7.84,0,0,0,166,244.88Z" transform="translate(-24 -24.51)"/><path class="cls-1" d="M165.45,241.82l24.66-14.24c1.52-.87,1.33-2.4-.42-3.41l-23.81-13.74a6.58,6.58,0,0,0-5.91-.25l-24.66,14.24c-1.51.87-1.32,2.4.43,3.41l23.81,13.74A6.56,6.56,0,0,0,165.45,241.82Z" transform="translate(-24 -24.51)"/><path class="cls-1" d="M139.63,238.83a2.62,2.62,0,0,0,1.19,2.06c.66.38,1.19.07,1.19-.68a2.62,2.62,0,0,0-1.19-2.06C140.16,237.77,139.63,238.08,139.63,238.83Z" transform="translate(-24 -24.51)"/><path class="cls-1" d="M135.81,236.63a2.62,2.62,0,0,0,1.19,2.05c.65.38,1.18.08,1.18-.68a2.64,2.64,0,0,0-1.18-2.06C136.34,235.56,135.81,235.87,135.81,236.63Z" transform="translate(-24 -24.51)"/><path class="cls-3" d="M132,234.42a2.65,2.65,0,0,0,1.19,2.06c.66.37,1.19.07,1.19-.69a2.62,2.62,0,0,0-1.19-2.06C132.52,233.35,132,233.66,132,234.42Z" transform="translate(-24 -24.51)"/><path class="cls-2" d="M128.81,219.93h0V209.77h22.76l7.87-4.54a7.86,7.86,0,0,1,7.05.29l7.34,4.24h22.79v10.44a2,2,0,0,1-1.21,1.89l-29.43,17a7.81,7.81,0,0,1-7-.3l-28.42-16.4A2.77,2.77,0,0,1,128.81,219.93Z" transform="translate(-24 -24.51)"/><path class="cls-2" d="M162.71,204.52a8.18,8.18,0,0,1,3.78,1l7.34,4.24h22.79v10.44a2,2,0,0,1-1.21,1.89l-29.43,17a6.35,6.35,0,0,1-3.27.69Z" transform="translate(-24 -24.51)"/><path class="cls-1" d="M194,209.74h2.58v10.44a2,2,0,0,1-1.21,1.89l-1.37.79Z" transform="translate(-24 -24.51)"/><path class="cls-1" d="M165.53,239.28a8,8,0,0,1-5.63-.07V227.36h5.63Z" transform="translate(-24 -24.51)"/><path class="cls-3" d="M166,228.65l29.43-17c1.81-1,1.58-2.86-.51-4.07l-28.41-16.4a7.86,7.86,0,0,0-7.05-.29l-29.42,17c-1.81,1-1.58,2.86.5,4.07l28.42,16.4A7.84,7.84,0,0,0,166,228.65Z" transform="translate(-24 -24.51)"/><path class="cls-4" d="M130.52,210l28.42,16.4a7.78,7.78,0,0,0,7,.29l29.43-17a2.63,2.63,0,0,0,.9-.8,1.89,1.89,0,0,1-.9,2.8l-29.43,17a7.84,7.84,0,0,1-7-.29L130.52,212c-1.62-.94-2.11-2.25-1.4-3.27A4,4,0,0,0,130.52,210Z" transform="translate(-24 -24.51)"/><path class="cls-3" d="M139.63,222.61a2.62,2.62,0,0,0,1.19,2.06c.66.38,1.19.07,1.19-.69a2.62,2.62,0,0,0-1.19-2.06C140.16,221.54,139.63,221.85,139.63,222.61Z" transform="translate(-24 -24.51)"/><path class="cls-3" d="M135.81,220.4a2.62,2.62,0,0,0,1.19,2.06c.65.38,1.18.07,1.18-.69a2.64,2.64,0,0,0-1.18-2.06C136.34,219.33,135.81,219.64,135.81,220.4Z" transform="translate(-24 -24.51)"/><path class="cls-1" d="M132,218.19a2.65,2.65,0,0,0,1.19,2.06c.66.38,1.19.07,1.19-.69a2.6,2.6,0,0,0-1.19-2.05C132.52,217.13,132,217.43,132,218.19Z" transform="translate(-24 -24.51)"/><path class="cls-1" d="M164.24,218.12l13.77-8c.85-.49.74-1.34-.23-1.91l-13.3-7.67a3.68,3.68,0,0,0-3.3-.14l-13.77,8c-.84.49-.74,1.34.24,1.91L161,218A3.62,3.62,0,0,0,164.24,218.12Z" transform="translate(-24 -24.51)"/><path class="cls-3" d="M162.92,211.46l1.91-1.1c.12-.07.1-.18,0-.26L163,209a.5.5,0,0,0-.46,0l-1.9,1.1c-.12.07-.11.18,0,.26l1.84,1.06A.48.48,0,0,0,162.92,211.46Z" transform="translate(-24 -24.51)"/><path class="cls-2" d="M178,210.17l0,0-.19-.13-13.3-7.68a3.68,3.68,0,0,0-3.3-.14l-13.73,7.93c-.78-.56-.82-1.32,0-1.77l13.77-8a3.68,3.68,0,0,1,3.3.14l13.3,7.67C178.75,208.83,178.86,209.68,178,210.17Z" transform="translate(-24 -24.51)"/><path class="cls-3" d="M168.22,231.3c0,.55.38.77.86.5a1.91,1.91,0,0,0,.85-1.48c0-.54-.38-.76-.85-.49A1.86,1.86,0,0,0,168.22,231.3Z" transform="translate(-24 -24.51)"/><path class="cls-3" d="M170.87,229.79c0,.54.38.76.85.49a1.88,1.88,0,0,0,.85-1.48c0-.54-.38-.76-.85-.49A1.88,1.88,0,0,0,170.87,229.79Z" transform="translate(-24 -24.51)"/><path class="cls-3" d="M168.22,234.5c0,.54.38.76.86.49a1.89,1.89,0,0,0,.85-1.48c0-.54-.38-.76-.85-.49A1.86,1.86,0,0,0,168.22,234.5Z" transform="translate(-24 -24.51)"/><path class="cls-1" d="M170.87,233c0,.54.38.76.85.49a1.88,1.88,0,0,0,.85-1.48c0-.54-.38-.76-.85-.49A1.88,1.88,0,0,0,170.87,233Z" transform="translate(-24 -24.51)"/><path class="cls-1" d="M168.22,247.53c0,.54.38.76.86.49a1.87,1.87,0,0,0,.85-1.47c0-.55-.38-.77-.85-.5A1.88,1.88,0,0,0,168.22,247.53Z" transform="translate(-24 -24.51)"/><path class="cls-3" d="M170.87,246c0,.55.38.77.85.49a1.87,1.87,0,0,0,.85-1.47c0-.54-.38-.77-.85-.49A1.87,1.87,0,0,0,170.87,246Z" transform="translate(-24 -24.51)"/><path class="cls-1" d="M168.22,250.72c0,.54.38.76.86.49a1.87,1.87,0,0,0,.85-1.47c0-.55-.38-.77-.85-.5A1.89,1.89,0,0,0,168.22,250.72Z" transform="translate(-24 -24.51)"/><path class="cls-3" d="M170.87,249.2c0,.55.38.77.85.5a1.91,1.91,0,0,0,.85-1.48c0-.54-.38-.76-.85-.49A1.87,1.87,0,0,0,170.87,249.2Z" transform="translate(-24 -24.51)"/><path class="cls-3" d="M168.22,263.75c0,.55.38.77.86.5a1.89,1.89,0,0,0,.85-1.48c0-.54-.38-.76-.85-.49A1.86,1.86,0,0,0,168.22,263.75Z" transform="translate(-24 -24.51)"/><path class="cls-1" d="M170.87,262.24c0,.54.38.76.85.49a1.88,1.88,0,0,0,.85-1.48c0-.54-.38-.76-.85-.49A1.88,1.88,0,0,0,170.87,262.24Z" transform="translate(-24 -24.51)"/><path class="cls-3" d="M168.22,267c0,.54.38.76.86.49a1.88,1.88,0,0,0,.85-1.48c0-.54-.38-.76-.85-.49A1.86,1.86,0,0,0,168.22,267Z" transform="translate(-24 -24.51)"/><path class="cls-3" d="M170.87,265.43c0,.54.38.76.85.49a1.87,1.87,0,0,0,.85-1.47c0-.55-.38-.77-.85-.5A1.89,1.89,0,0,0,170.87,265.43Z" transform="translate(-24 -24.51)"/><polygon class="cls-1" points="143.38 155.17 145.29 154.4 143.81 153.26 143.38 155.17"/><polygon class="cls-1" points="142.43 134.49 144.28 133.74 144.15 134.52 142.43 134.49"/><polygon class="cls-1" points="149.38 150.34 151.31 149.56 148.49 146.72 149.38 150.34"/><path class="cls-1" d="M168.79,178.87l-7.39-4.27a1.21,1.21,0,0,1-.51-1.22l1.77-8.39,8.76,5-1.77,8.39A.56.56,0,0,1,168.79,178.87Z" transform="translate(-24 -24.51)"/><path class="cls-1" d="M168.26,158.26l-10,5c-.42.21-.28,1,.23,1.31l8.16,4.71,8.16,4.71c.51.29.92-.19.67-.79L169.57,159C169.31,158.4,168.7,158,168.26,158.26Z" transform="translate(-24 -24.51)"/><path class="cls-3" d="M166.85,179.65l-7.39-4.27a1.2,1.2,0,0,1-.51-1.22l1.78-8.39,8.75,5-1.77,8.4A.56.56,0,0,1,166.85,179.65Z" transform="translate(-24 -24.51)"/><path class="cls-3" d="M166.33,159l-10,5c-.42.22-.28,1,.24,1.31l8.15,4.71,8.16,4.71c.51.3.92-.18.67-.79l-5.92-14.22C167.37,159.18,166.76,158.83,166.33,159Z" transform="translate(-24 -24.51)"/><polygon class="cls-1" points="92.07 125.74 93.98 124.97 92.49 123.83 92.07 125.74"/><polygon class="cls-1" points="91.11 105.05 92.97 104.3 92.84 105.08 91.11 105.05"/><polygon class="cls-1" points="98.06 120.9 100 120.12 97.18 117.28 98.06 120.9"/><path class="cls-1" d="M117.48,149.43l-7.4-4.27a1.18,1.18,0,0,1-.5-1.21l1.77-8.4,8.76,5.06L118.33,149A.55.55,0,0,1,117.48,149.43Z" transform="translate(-24 -24.51)"/><path class="cls-1" d="M117,128.83l-10,5c-.42.22-.28,1,.23,1.31l8.16,4.71,8.16,4.71c.51.3.92-.18.67-.78l-5.93-14.23C118,129,117.38,128.61,117,128.83Z" transform="translate(-24 -24.51)"/><path class="cls-3" d="M115.54,150.22,108.15,146a1.2,1.2,0,0,1-.51-1.22l1.77-8.39,8.76,5-1.78,8.39A.56.56,0,0,1,115.54,150.22Z" transform="translate(-24 -24.51)"/><path class="cls-3" d="M115,129.61l-10,5c-.42.21-.28,1,.23,1.3l8.16,4.71,8.16,4.71c.51.3.92-.18.67-.78l-5.93-14.23C116.06,129.75,115.45,129.39,115,129.61Z" transform="translate(-24 -24.51)"/><path class="cls-3" d="M142.56,105.85c0,.55-.38.77-.85.49a1.87,1.87,0,0,1-.85-1.47c0-.55.38-.77.85-.49A1.87,1.87,0,0,1,142.56,105.85Z" transform="translate(-24 -24.51)"/><path class="cls-3" d="M154.34,112.21c0,.55-.38.77-.85.5a1.89,1.89,0,0,1-.85-1.48c0-.54.38-.76.85-.49A1.87,1.87,0,0,1,154.34,112.21Z" transform="translate(-24 -24.51)"/><path class="cls-2" d="M76,157.08l1.9-1.1c.12-.06.11-.18,0-.26L76,154.66a.5.5,0,0,0-.46,0l-1.9,1.1c-.12.07-.1.19,0,.26l1.84,1.07A.53.53,0,0,0,76,157.08Z" transform="translate(-24 -24.51)"/><path class="cls-2" d="M71.6,159.62l1.9-1.1c.12-.07.1-.19,0-.26l-1.84-1.07a.53.53,0,0,0-.46,0l-1.9,1.1c-.12.06-.1.18,0,.26l1.84,1.06A.5.5,0,0,0,71.6,159.62Z" transform="translate(-24 -24.51)"/><path class="cls-2" d="M67.21,162.16l1.9-1.1c.12-.07.1-.19,0-.27l-1.84-1.06a.5.5,0,0,0-.46,0l-1.9,1.1c-.12.07-.11.19,0,.26l1.84,1.07A.57.57,0,0,0,67.21,162.16Z" transform="translate(-24 -24.51)"/><path class="cls-2" d="M50.83,142l1.9-1.1c.12-.07.11-.19,0-.27l-1.84-1.06a.51.51,0,0,0-.45,0l-1.91,1.1c-.12.07-.1.19,0,.27L50.37,142A.53.53,0,0,0,50.83,142Z" transform="translate(-24 -24.51)"/><path class="cls-2" d="M46.44,144.54l1.9-1.1c.12-.06.1-.18,0-.26l-1.84-1.06a.5.5,0,0,0-.46,0l-1.9,1.1c-.12.07-.1.18,0,.26L46,144.52A.5.5,0,0,0,46.44,144.54Z" transform="translate(-24 -24.51)"/><path class="cls-2" d="M42.05,147.08,44,146c.12-.07.1-.19,0-.27l-1.84-1.06a.53.53,0,0,0-.46,0l-1.9,1.1c-.12.07-.11.19,0,.27l1.84,1.06A.5.5,0,0,0,42.05,147.08Z" transform="translate(-24 -24.51)"/></svg>