<svg id="Layer_1" data-name="Layer 1" xmlns="http://www.w3.org/2000/svg" viewBox="0 0 227.08 202.51"><defs><style>.cls-1{fill:#ebf2f9;}.cls-2{fill:#acd29a;}.cls-3{fill:#ffb07b;}.cls-4{fill:#365da4;}.cls-5{fill:#2b478b;}.cls-6{fill:#c65447;}.cls-7{fill:#ea8e50;}.cls-8{fill:#d86713;}.cls-9{fill:#f1a34f;}.cls-10{fill:#80bdcc;}.cls-11{fill:#5f9aa8;}.cls-12{fill:#2c3a64;}.cls-13{fill:#35488b;}.cls-14{fill:#935c2f;}.cls-15{fill:#a16d3c;}.cls-16{fill:#d3782f;}.cls-17{fill:#e69d43;}.cls-18{fill:#4a75cb;}.cls-19{fill:#699dee;}.cls-20{fill:#c3e0f4;}.cls-21{fill:#1e3d70;}.cls-22{fill:#233862;}.cls-23{fill:#2a4e96;}.cls-24{fill:#82b378;}</style></defs><title>training</title><path class="cls-1" d="M33.71,246.41s-46-76.3-17.42-121.92S67.4,138.1,83,133.73c19.75-5.52,28.29-88.62,57.81-88.7,33.59-.09,58.25,32.85,45.12,111.28-9.69,57.86,56.89,10.48,47.11,91.23Z" transform="translate(-6.95 -45.03)"/><path class="cls-2" d="M129.59,241.11c-6-1-10.59,1.14-15,.54-3.49-.49-5.31-4-10-5a20,20,0,0,0,3-2.08c1.21-1.17,2.95-3.49,0-3.59-2.11-.06-3.76,3.47-4.52,5.45a14.31,14.31,0,0,0-2.27,0c1-3.13,2.86-9.17,3.32-10.33.63-1.58-2-6.85-5.12-.94-2.19,4.15-.71,8.94.38,11.43a17.62,17.62,0,0,0-2.43.58c-2.57-5.87-10.76-22.6-19.63-20.52-9.67,2.26,11.05,13.51,16.28,21.85-4.27,2-8,4.39-14.51,2.63-17.23-4.66-18.6,5.83-18.6,5.83l77,0A10.43,10.43,0,0,0,129.59,241.11Z" transform="translate(-6.95 -45.03)"/><path class="cls-3" d="M104.36,203.23c.09.86,1.31.83,2.69.62s1,.15,3,.12,2.59-.7,2.67-1-.86-.43-1.87-.64l-.38-.08a8.28,8.28,0,0,1-2.89-1.76c-.94-.67-1.57-3.72-1.57-3.72l-2.75,0s.87,2.76,1.32,3.72a3.26,3.26,0,0,1-.11,1.83A3.46,3.46,0,0,0,104.36,203.23Z" transform="translate(-6.95 -45.03)"/><path class="cls-4" d="M107.05,203.85c1.37-.21,1,.15,3,.12s2.59-.7,2.67-1-.86-.43-1.87-.64v0A5.45,5.45,0,0,1,108,203c-1.31-.09-2.65-.59-3.55-.66a3.46,3.46,0,0,0-.06.91C104.45,204.09,105.67,204.06,107.05,203.85Z" transform="translate(-6.95 -45.03)"/><path class="cls-3" d="M82.84,203.09c.06.86,1.28.88,2.66.72s1,.2,3,.23,2.61-.6,2.71-.87-.85-.46-1.85-.71l-.38-.09a8.35,8.35,0,0,1-2.82-1.88c-.91-.7-.16-3.61-.16-3.61l-2.09-1s-.29,3-.44,4.51a16.4,16.4,0,0,1-.48,1.78A3.36,3.36,0,0,0,82.84,203.09Z" transform="translate(-6.95 -45.03)"/><path class="cls-4" d="M85.5,203.81c1.39-.15,1,.2,3,.23s2.61-.6,2.71-.87-.85-.46-1.85-.71v0a5.49,5.49,0,0,1-2.84.5c-1.3-.14-2.63-.69-3.52-.79a3.36,3.36,0,0,0-.1.9C82.9,204,84.12,204,85.5,203.81Z" transform="translate(-6.95 -45.03)"/><path class="cls-5" d="M87.53,160s-.58,2.81-1.16,17a46.27,46.27,0,0,0-1.85,5.85c-.78,3.21-1.33,16.63-1.33,16.63a1.63,1.63,0,0,0,1.26.51,2.69,2.69,0,0,0,1.37-.29s5.41-17.58,8.05-24.4,4.19-16.57,4.19-16.57Z" transform="translate(-6.95 -45.03)"/><path class="cls-5" d="M94.05,161.16s.43,2.83,4.8,16.36a44.94,44.94,0,0,0,.29,6.13c.38,3.28,4.81,16.23,4.81,16.23a2.77,2.77,0,0,0,1.47,0,4.69,4.69,0,0,0,1.46-.71s-1.7-18.5-1.58-25.82-1.82-17-1.82-17Z" transform="translate(-6.95 -45.03)"/><path class="cls-6" d="M101.8,122a3.92,3.92,0,0,0-2.13-.52,1,1,0,0,1,.47-.19,3.14,3.14,0,0,0-1.2.25c-5-2.22-6.19,5.25-6.17,7s-.06,3.76-2.69,5.2c-5.17,2.83-1.21,8.42-1.21,8.42-.93,2.66,2.52,5.93,2.52,5.93-.06-1.41,6.44-10.44,10-12.5a9.79,9.79,0,0,0,1.32-3.48,9.16,9.16,0,0,1-.86,3.16C104.81,132.76,103.61,123.14,101.8,122Z" transform="translate(-6.95 -45.03)"/><path class="cls-3" d="M100.71,134.61a4.71,4.71,0,0,1-2.89.53,3.83,3.83,0,0,1-1.93-1.84c.5-.1.65-.79.63-3.72l.23,0,3.64.73.14,0s-.09,1.19-.09,2.31c0,.24,0,.47,0,.69C100.47,134,100.55,134.54,100.71,134.61Z" transform="translate(-6.95 -45.03)"/><path class="cls-7" d="M100.44,132.68c0,.24,0,.47,0,.69-2.12-.09-3.34-2.51-3.8-3.57l3.74.55.14,0S100.44,131.56,100.44,132.68Z" transform="translate(-6.95 -45.03)"/><path class="cls-6" d="M96.36,129.21A11,11,0,0,1,95,126c-.19-1.07.35-5,4.33-4.46a5.36,5.36,0,0,1,2.24.84c.87.59,2.11,1.85.72,5.3l-.36,1.17Z" transform="translate(-6.95 -45.03)"/><path class="cls-3" d="M100.75,132.13s-5-.65-4.5-3.74.12-5.24,3.3-4.95,3.63,1.56,3.73,2.62S102.05,132.22,100.75,132.13Z" transform="translate(-6.95 -45.03)"/><path class="cls-6" d="M101.82,123.7s-1.89,3.41-4,3.64-3-.47-3-.47a6,6,0,0,0,2.44-3.19S101.05,121.83,101.82,123.7Z" transform="translate(-6.95 -45.03)"/><path class="cls-6" d="M101.44,123.94a4.44,4.44,0,0,1,1,1.78c.13.82,0,2.46.48,2.47,0,0,1.39-2.3.45-3.86S101.44,123.94,101.44,123.94Z" transform="translate(-6.95 -45.03)"/><path class="cls-8" d="M134.37,165.81a7.74,7.74,0,0,0-6.37-4,7.21,7.21,0,0,0-4.61,1.61,1.22,1.22,0,0,1-2-.69l-2.13-9.91a2.68,2.68,0,0,0-3.18-2.05l-34.51,7.42a2.63,2.63,0,0,0-2,3.11L87,195.75a2.74,2.74,0,0,0,1.84,2l-.46.13h1.35a4.26,4.26,0,0,0,.5-.06l.75-.16h0l8.86-1.91a1.67,1.67,0,0,0,.91-2.73,7.05,7.05,0,0,1-1.63-3.37,7.17,7.17,0,0,1,14.06-2.85,7.12,7.12,0,0,1-.41,4.32,1.12,1.12,0,0,0,.34,1.34l-.52.25h1.2a1.37,1.37,0,0,0,.28,0l10.57-2.28a2.66,2.66,0,0,0,2-3.18l-2.11-9.85a1.25,1.25,0,0,1,1.53-1.48,7.18,7.18,0,0,0,8.24-10.11Z" transform="translate(-6.95 -45.03)"/><path class="cls-9" d="M126.78,161.79a7.21,7.21,0,0,0-4.61,1.61,1.22,1.22,0,0,1-2-.69l-2.13-9.91a2.68,2.68,0,0,0-3.18-2.05l-34.51,7.42a2.61,2.61,0,0,0-2,3.11l7.42,34.47A2.71,2.71,0,0,0,89,197.84l9.61-2.07a1.67,1.67,0,0,0,.91-2.73,7.05,7.05,0,0,1-1.63-3.37A7.17,7.17,0,0,1,112,186.82a7.12,7.12,0,0,1-.41,4.32,1.15,1.15,0,0,0,1.3,1.57l10.57-2.28a2.68,2.68,0,0,0,2.06-3.18l-2.12-9.85a1.25,1.25,0,0,1,1.53-1.48,7.18,7.18,0,0,0,8.24-10.11A7.74,7.74,0,0,0,126.78,161.79Z" transform="translate(-6.95 -45.03)"/><path class="cls-3" d="M114.15,148.68s2.16.35,2.72,1.75-.22,2.35-.53,2.35a1.36,1.36,0,0,1-1.15-1C114.92,151.1,114.15,148.68,114.15,148.68Z" transform="translate(-6.95 -45.03)"/><path class="cls-3" d="M84.52,154.93s2.42,0,3.29,1.42S88,159,87.65,159a1.5,1.5,0,0,1-1.43-.83C85.79,157.43,84.52,154.93,84.52,154.93Z" transform="translate(-6.95 -45.03)"/><path class="cls-10" d="M114.21,150.31c-.21-.05-1.15-.16-2.34-.35-2.19-.34-5.25-1-6.28-1.89a17.9,17.9,0,0,1-1.59-3.3,30.41,30.41,0,0,0-.54,8.44L88.63,156.4c1.27-2.57,3.24-5.76,2.87-8.33-.14-1-.66-2.27-.86-3.75,0-.12,0-.25,0-.38-2.08,1.71-4.48,3.6-4.54,4-.09.63,1.52,7.64,1.52,7.64-.4.93-2.14.73-2.14.73-1.64-1.17-4-7.79-3.85-9.25s6.16-9.83,7.6-11.83,6.63-1.92,6.76-1.92h0c4.14,2.48,4.52.42,4.52.42s3.73.71,4.38,1.81,3.46,9.48,3.65,9.77c.42.62,7.23,3.08,7.35,3.8S114.82,150.43,114.21,150.31Z" transform="translate(-6.95 -45.03)"/><path class="cls-11" d="M93.8,155.29l-5.17,1.11c1.29-2.56,3-5.75,2.61-8.32-.14-1-.45-2.09-.6-3.57l0-.57s3.66,2.88,3.73,6A31.29,31.29,0,0,1,93.8,155.29Z" transform="translate(-6.95 -45.03)"/><path class="cls-11" d="M112,150c-2.22-.34-5.32-.95-6.36-1.9a16.94,16.94,0,0,1-1.61-3.29s-.24-2.61.44-2.51,1.68,4.72,2.4,5S111.07,148.92,112,150Z" transform="translate(-6.95 -45.03)"/><g id="man"><path class="cls-12" d="M229.82,242c-.34,1.16-1.93,1.93-2.14,3.35a3,3,0,0,1-.69,1.59h-4.94c0-.27.27-.56.91-.7,1.37-.3,1.89-2,1.8-3.51,0-.64,0-1.38,0-2,0-.88.11-1.58.11-1.58l2.92-.68.3.39.3.38S230.17,240.85,229.82,242Z" transform="translate(-6.95 -45.03)"/><path class="cls-12" d="M206.83,246.94h-10a2,2,0,0,1,1.26-.62c1.54-.25,4.2-1.15,4.79-3.11a1.33,1.33,0,0,0,.05-.19c.47-2.1,3.9.64,3.9.64l0,.23A10.83,10.83,0,0,1,206.83,246.94Z" transform="translate(-6.95 -45.03)"/><path class="cls-13" d="M198.51,191.29s.52,6.49,1.13,14.31c.83,10.61,1.83,23.64,1.93,26.11.17,4.29.86,11.15.86,11.15s1.63,1.63,4.89.94a112.4,112.4,0,0,0,3.73-20.15c0-.17,0-.34,0-.51.77-10.55,2-32.75,2-32.75Z" transform="translate(-6.95 -45.03)"/><path class="cls-12" d="M198.51,191.29s.52,6.49,1.13,14.31l11.41,18.05c0-.17,0-.34,0-.51.77-10.55,2-32.75,2-32.75Z" transform="translate(-6.95 -45.03)"/><path class="cls-13" d="M200.88,192.06s9.39,23.53,15.57,34.6,8.1,14.14,8.1,14.14,3.54-1.41,3.86-2.38c0,0-2.36-21.35-6.5-26.56-2.33-2.94-5.08-11.76-5.21-14.85s-.83-9.2-.83-9.2Z" transform="translate(-6.95 -45.03)"/><path class="cls-14" d="M205.7,155.73a27.16,27.16,0,0,1-.43-3.93L210,148a9.58,9.58,0,0,0,3.21,7.82s-6.35,3.12-10,2A8.62,8.62,0,0,1,205.7,155.73Z" transform="translate(-6.95 -45.03)"/><path class="cls-15" d="M204.15,151.71s6.06,1,6.63-2.77,1.73-6.21-2.11-7-4.82.53-5.32,1.75S202.59,151.35,204.15,151.71Z" transform="translate(-6.95 -45.03)"/><path class="cls-15" d="M182.86,159.51l-1.29-.8a3.26,3.26,0,0,0-4.35-.9s-1.09.7-.36,1.28.53.25,1.54,1.09a3,3,0,0,0,3.17.68l1.08-.1Z" transform="translate(-6.95 -45.03)"/><path class="cls-16" d="M181.33,159.76c.33-1,.49-1.13.49-1.13s10.44,1.23,11.42,1.31,14.64-2.75,14.64-2.75l6.45,7.84s-19,.71-21.5.48c-4.12-.38-11.57-4.21-11.57-4.21A3,3,0,0,1,181.33,159.76Z" transform="translate(-6.95 -45.03)"/><path class="cls-17" d="M216.58,189c0,.4-.81.84-1.17,1a25.24,25.24,0,0,1-8.13,2.34c-3.4.35-7.42-.41-8.79-.4a.6.6,0,0,1-.39-.14c-.09-.08-.16-4.23-.09-9.46,0-.21,0-.43,0-.63v-.07c0-.55,0-1.1,0-1.66,0-1.53.09-3.1.16-4.66.1-2.31.24-4.57.43-6.57a36.67,36.67,0,0,1,.77-5.19,12.63,12.63,0,0,1,4-6.34l1.27-1.12a6,6,0,0,0,4-.48c1.45-.72,3-1.49,3.29-1.3,2,1.46,3.28,4.78,4,9a46.92,46.92,0,0,1,.54,7.45c0,1,0,2.05-.1,3.08a101.44,101.44,0,0,0,.2,13.23C216.53,187.93,216.57,188.57,216.58,189Z" transform="translate(-6.95 -45.03)"/><path class="cls-18" d="M184.37,137.44,146,131.35a3,3,0,0,0-3.42,2.49l-1.69,10.68a12.56,12.56,0,0,0,0,1.88l1.38.21.24,0h0a1.88,1.88,0,0,0,.77-.1,7.9,7.9,0,1,1,1.45,15.23,7.81,7.81,0,0,1-4.27-2.14,1.27,1.27,0,0,0-.75-.35h0l-1.44-.22-1.8,13a3,3,0,0,0,2.44,3.38l10.95,1.74a1.38,1.38,0,0,1,.91,2.16,7.78,7.78,0,0,0-1.37,3.35,7.91,7.91,0,0,0,8.47,9.12,8.5,8.5,0,0,0,6.66-4.93,7.94,7.94,0,0,0,.18-5.38,1.34,1.34,0,0,1,1.49-1.73l11,1.75a2.94,2.94,0,0,0,3.37-2.45l6.1-38.37A2.87,2.87,0,0,0,184.37,137.44Z" transform="translate(-6.95 -45.03)"/><path class="cls-16" d="M212,163.24s-2.94,13.71-14,16.77c0-1.53.09-3.1.16-4.66.1-2.31.24-4.57.43-6.57a4.19,4.19,0,0,1,.55-.24C202.93,167.31,212,163.24,212,163.24Z" transform="translate(-6.95 -45.03)"/><path class="cls-19" d="M163.2,186.69a8.06,8.06,0,0,0,.18-5.38,1.33,1.33,0,0,1,1.48-1.72l11,1.74a3,3,0,0,0,3.37-2.44l6.09-38.37a2.87,2.87,0,0,0-2.39-3.29l-38.33-6.09a3,3,0,0,0-3.42,2.48l-1.69,10.68a1.84,1.84,0,0,0,2.44,2,7.9,7.9,0,1,1-2.83,13.09,1.26,1.26,0,0,0-2.12.7l-1.87,11.76a2.94,2.94,0,0,0,2.45,3.37L148.52,177a1.38,1.38,0,0,1,.91,2.17,7.91,7.91,0,0,0,7.1,12.47A8.53,8.53,0,0,0,163.2,186.69Z" transform="translate(-6.95 -45.03)"/><path class="cls-15" d="M182.91,168.35l-1.58-.26A3.89,3.89,0,0,0,176.4,167s-1.24.69-.42,1.34.61.3,1.74,1.24a3.63,3.63,0,0,0,3.58.85l1.23-.06Z" transform="translate(-6.95 -45.03)"/><path class="cls-17" d="M181.7,169.15c.05-1.16.67-1.28.67-1.28s11.94-.79,13-1,10.53-8.08,10.53-8.08,3.68-3.3,6.26-2.19a5,5,0,0,1,3.05,4.64,5.1,5.1,0,0,1-3,4.94c-4.27,2-12.81,5.91-14.75,6.25-4.33.75-15.46-1.66-15.46-1.66A3.66,3.66,0,0,1,181.7,169.15Z" transform="translate(-6.95 -45.03)"/><path class="cls-12" d="M203.35,143.68a3.54,3.54,0,0,1-.85-4.66,9.37,9.37,0,0,0,4.68,0c2.75-.64,5.21.26,5.53,1.23a2.24,2.24,0,0,1,1.18,2c.1,1.6-3.11,6.66-3.11,6.66s-.69-.86-.5-1.45.77-1.9.05-1.9-1,1.07-1.26.65.24-2.22-.61-2.52S204.32,144.22,203.35,143.68Z" transform="translate(-6.95 -45.03)"/></g><path class="cls-20" d="M123.06,245.87l-8.49-38.57h2.33a1,1,0,0,0,1-1V205a1,1,0,0,0-1-1H87.24a1,1,0,0,0-1,1v1.3a1,1,0,0,0,1,1h3l-8.5,38.57a1,1,0,0,0,.74,1.15,1,1,0,0,0,1.14-.73l8.59-39h20.37l8.59,39a1,1,0,0,0,1.15.73h0A1,1,0,0,0,123.06,245.87Z" transform="translate(-6.95 -45.03)"/><path class="cls-2" d="M179.4,222.25c-3.14-3-14.47,16-14.47,16S182.54,225.27,179.4,222.25Z" transform="translate(-6.95 -45.03)"/><path class="cls-2" d="M179,231.06c-2.78-1.12-11.68,8.26-13.68,10.43a42.41,42.41,0,0,0-5.06-.37c-14.09-.25-20.48,6.13-20.48,6.13l39.3.13s-3.48-4.42-13.36-5.84c2.42-1.14,9.55-4.46,12.15-5.09C181,235.67,182.17,232.31,179,231.06Z" transform="translate(-6.95 -45.03)"/><path class="cls-8" d="M167.94,211.94h-8.48a1.45,1.45,0,0,0-1.27,2.14c.51.92-1.29,9-5.09,9.17a6.19,6.19,0,0,1-5.4-9.75,1,1,0,0,0-.8-1.56h-9.34a2.31,2.31,0,0,0-2.31,2.31s-.85,10-1.57,9.66a6,6,0,0,0-2.44-.64h-.32l-1.64,0L129,235.62h1.34a7.89,7.89,0,0,0,3.35-.65,1,1,0,0,1,1.52.93v8.75a2.31,2.31,0,0,0,2.31,2.31H168a2.26,2.26,0,0,0,2.26-2.26V214.28A2.34,2.34,0,0,0,167.94,211.94Z" transform="translate(-6.95 -45.03)"/><path class="cls-9" d="M127.9,235.47a6.24,6.24,0,0,0,4.19-.52,1,1,0,0,1,1.52.94v8.74a2.3,2.3,0,0,0,2.31,2.31h30.46a2.26,2.26,0,0,0,2.26-2.25V214.26a2.35,2.35,0,0,0-2.34-2.35h-8.49a1.44,1.44,0,0,0-1.26,2.14,6.19,6.19,0,1,1-10.49-.58,1,1,0,0,0-.81-1.56h-9.33a2.31,2.31,0,0,0-2.31,2.31v8.7a1.08,1.08,0,0,1-1.57,1,6.2,6.2,0,0,0-8.78,7A6.66,6.66,0,0,0,127.9,235.47Z" transform="translate(-6.95 -45.03)"/><path class="cls-2" d="M39.69,247.11l5.48,0s-.19-1.32-3.88-1.66h0c-1.43-4-5.62-14.65-9.27-14.14s4.93,10.29,8.39,14.1a8.45,8.45,0,0,0-1.37.11c-.83-1.67-2.49-4-5.15-3.91-2.83.11,1,2.7,3.68,4.28a6.79,6.79,0,0,0-2.07,1.15l4.13,0,.08,0Z" transform="translate(-6.95 -45.03)"/><path class="cls-7" d="M49.23,194.26l1,.78s2.64-.95,3.24,2.2c0,0,.16,1.34-.69,1.35a15.13,15.13,0,0,0-1.7-.11,2.19,2.19,0,0,1-2.38-1.58l-.57-.83Z" transform="translate(-6.95 -45.03)"/><path class="cls-21" d="M49.12,196a2,2,0,0,0,.71-1.41s-8.95-7.32-9.86-7.92a110.9,110.9,0,0,1-10.28-9.81c-1.53-1.76-3.42-1.08-5.59-.46l-1.78.51a3,3,0,0,0-.95,5.1c5,4.12,13.25,8.75,14.8,9.73A86.77,86.77,0,0,0,47.54,197,4.86,4.86,0,0,0,49.12,196Z" transform="translate(-6.95 -45.03)"/><path class="cls-22" d="M59.59,240.87a6.74,6.74,0,0,0,5.5.77s2.68-.61,3.27.73c0,0-4.12,2.09-5.16,2.66A12.9,12.9,0,0,0,61,246.66a1.07,1.07,0,0,1-1.56-.12c-.18-.22-.39-.48-.62-.79-.63-.86-2.11-3.64-2.11-3.64Z" transform="translate(-6.95 -45.03)"/><path class="cls-5" d="M60.6,240.12s-1.32,3-4.37,2.49a84.62,84.62,0,0,1-10.5-10.49A23.46,23.46,0,0,1,42.47,227c-2.84-6.56-10.48-16.34-15.34-21.3l12.16-4.4s3.89,7.83,9.08,17.46C52.1,225.73,56.51,233.59,60.6,240.12Z" transform="translate(-6.95 -45.03)"/><path class="cls-22" d="M48.37,218.79l-2.64,13.33A23.46,23.46,0,0,1,42.47,227c-2.84-6.56-10.48-16.34-15.34-21.3l12.16-4.4S43.18,209.16,48.37,218.79Z" transform="translate(-6.95 -45.03)"/><path class="cls-22" d="M38.39,242.6s-.13,2.43,2.82,2.76c0,0,1.69,0,1.69,1.56l-8.57,0a6.57,6.57,0,0,1-.31-2,15.05,15.05,0,0,1,1-3.71Z" transform="translate(-6.95 -45.03)"/><path class="cls-5" d="M35.3,201.33s5.42,5.95,8.86,16.68c1.87,5.83-3.43,20.5-4.47,25.6a16.23,16.23,0,0,1-6-.64,117.77,117.77,0,0,1,1.23-18.64c.8-4.54-7.13-9.71-10.59-17.92-2.36-5.58.51-5.49,4-5.62Z" transform="translate(-6.95 -45.03)"/><path class="cls-3" d="M29.05,174.77c-3,1.7-9.19.13-9.19.13a8.58,8.58,0,0,0,1.37-7.48l2.36,1.2,2.55,1.29s.16.82.28,2.28c0,.38,0,.8.07,1.26A7.9,7.9,0,0,1,29.05,174.77Z" transform="translate(-6.95 -45.03)"/><path class="cls-23" d="M40.1,201c0,.53-.61.78-.74.81-1.22.22-4.61,1.54-7.67,1.85a24.42,24.42,0,0,1-7.59-.52c-.35-.07-1.17-.29-1.22-.62S12.75,182,20.56,173.38c.19-.2,1.73.17,3.14.5a5.78,5.78,0,0,0,3.57-.29l1.32.7c1.63.9,4.71,4.12,5.07,6.64.18,1.29.91,2.24,1.12,3.37.08.42.16.83.25,1.22.16.78.32,1.53.49,2.23.46,1.91.95,3.56,1.42,5s1,2.76,1.45,3.81c.58,1.36,1.07,2.38,1.37,3.15A3.8,3.8,0,0,1,40.1,201Z" transform="translate(-6.95 -45.03)"/><path class="cls-21" d="M39.76,199.69a39.53,39.53,0,0,1-19.12-19.53s11.54,4.26,14.39,5.36c.16.78.32,1.53.49,2.23.46,1.91.95,3.56,1.42,5s1,2.76,1.45,3.81C39,197.9,39.46,198.92,39.76,199.69Z" transform="translate(-6.95 -45.03)"/><path class="cls-18" d="M79.87,185.47l-3-9.65a1.74,1.74,0,0,0-2.12-1.14h0l-.13,0-1.07.35a9.45,9.45,0,0,1-2.87,2.07,6.91,6.91,0,0,1-8.52-4.49c-1.49-4,.24-8.38,4.26-9.65,1.37-.43,4.07.38,4.07.38l1.09-.36a1.18,1.18,0,0,0,.78-1.49L69,150.93a2.75,2.75,0,0,0-3.45-1.8l-9.89,3.12A1.29,1.29,0,0,1,54,150.81a7.21,7.21,0,0,0-.25-3.37,7.39,7.39,0,0,0-10.89-4.09,8,8,0,0,0-3.52,6.91,7.45,7.45,0,0,0,2.1,4.57,1.25,1.25,0,0,1-.52,2.07L30.94,160a2.77,2.77,0,0,0-1.8,3.46l10.93,34.64a2.69,2.69,0,0,0,3.37,1.75L78,189A2.8,2.8,0,0,0,79.87,185.47Z" transform="translate(-6.95 -45.03)"/><path class="cls-19" d="M38.26,150.61a7.39,7.39,0,0,0,2.1,4.57,1.26,1.26,0,0,1-.52,2.07l-10,3.14a2.75,2.75,0,0,0-1.8,3.45L39,198.48a2.68,2.68,0,0,0,3.37,1.75L77,189.32a2.78,2.78,0,0,0,1.82-3.5l-3-9.65a1.72,1.72,0,0,0-2.88-.67,7.32,7.32,0,0,1-3.3,2,7.39,7.39,0,1,1,.19-14.13,1.18,1.18,0,0,0,1.49-1.48l-3.35-10.61a2.75,2.75,0,0,0-3.45-1.8l-9.89,3.12a1.29,1.29,0,0,1-1.66-1.44,7.48,7.48,0,0,0-.25-3.37,7.4,7.4,0,0,0-10.9-4.09A8,8,0,0,0,38.26,150.61Z" transform="translate(-6.95 -45.03)"/><path class="cls-3" d="M48.07,195.82l1.22.45a2.63,2.63,0,0,1,4,1.09s.56,1.23-.32,1.5-.56,0-1.79.42a2.35,2.35,0,0,1-2.91-.76l-.83-.61Z" transform="translate(-6.95 -45.03)"/><path class="cls-23" d="M49.08,197.55l.66-1.72s-9.27-7.55-10.22-8.2c-.64-.44-7.05-5.23-10.17-9a6.54,6.54,0,0,0-6.36-2.2l-1.95.41a2.9,2.9,0,0,0-1.29,5c5.14,4.4,13.8,9.5,15.41,10.57,4,2.63,12.87,6.33,12.87,6.33A2.32,2.32,0,0,0,49.08,197.55Z" transform="translate(-6.95 -45.03)"/><path class="cls-7" d="M26.42,172.19a6.34,6.34,0,0,1-4.9-2.28,22.67,22.67,0,0,0,2.07-1.29l2.55,1.29S26.3,170.73,26.42,172.19Z" transform="translate(-6.95 -45.03)"/><path class="cls-3" d="M27.68,169.15s-4.49,3.22-6.46.4-3.86-4.32-1.08-6.5,4.1-1.49,5-.7S28.8,168.24,27.68,169.15Z" transform="translate(-6.95 -45.03)"/><path class="cls-22" d="M25.6,159.79a7.1,7.1,0,0,0-.53-1.85s-.28,1.17-2.41,1-5.52.21-6.64,2.64a3.45,3.45,0,0,0-.2.48,5.8,5.8,0,0,1-.25-1.35,4.08,4.08,0,0,0,0,2.35h0s0,.08,0,.12a4.72,4.72,0,0,0-.86,1.63,1.45,1.45,0,0,1,.8-.7c0,1.89.75,3.74,2.1,4.29,2,.8,1.95.19,3.93,1.5,0,0,.53-.66.17-1.1s-1.73-1.09-1-1.73,1,.08,1.32-.36-1.12-1.73.69-2.94S25.76,160.88,25.6,159.79Z" transform="translate(-6.95 -45.03)"/><path class="cls-24" d="M136.21,247s-1.9-2.81-4.87-2.59c-.91.07-2.37.29-4.08.53-1.29-4.49-4.83-15.16-9.62-15.76s4.68,11.25,8.59,15.9l-2.2.26c-2.07-2.21-5.68-5.48-8.69-5.23s2.63,3.38,6.71,5.42a16.33,16.33,0,0,1-6.32-.4c-3.56-1.37-6.82,1.87-6.82,1.87Z" transform="translate(-6.95 -45.03)"/></svg>